<?xml version="1.0" standalone="no"?>
<!DOCTYPE svg PUBLIC "-//W3C//DTD SVG 20010904//EN"
 "http://www.w3.org/TR/2001/REC-SVG-20010904/DTD/svg10.dtd">
<svg version="1.0" xmlns="http://www.w3.org/2000/svg"
 width="400.000000pt" height="400.000000pt" viewBox="0 0 400.000000 400.000000"
 preserveAspectRatio="xMidYMid meet">
<g transform="translate(0.000000,400.000000) scale(0.100000,-0.100000)"
fill="#82878c" stroke="none">
<path d="M1727 3695 c-724 -118 -1281 -650 -1439 -1375 -20 -93 -22 -133 -22
-345 0 -212 2 -252 22 -345 152 -697 665 -1210 1362 -1362 93 -20 133 -22 345
-22 212 0 252 2 345 22 697 152 1210 665 1362 1362 20 93 22 133 22 345 0 212
-2 252 -22 345 -151 695 -666 1212 -1357 1360 -131 29 -483 37 -618 15z m573
-1017 c-111 -266 -205 -489 -207 -495 -4 -10 82 -13 412 -13 229 0 415 -4 413
-8 -4 -11 -1408 -1376 -1419 -1380 -5 -2 2 23 16 55 14 32 108 254 209 493
l184 435 -415 3 c-304 2 -414 5 -411 14 5 15 1411 1388 1416 1383 2 -2 -87
-221 -198 -487z"/>
</g>
</svg>
