<?xml version="1.0" encoding="UTF-8" standalone="no"?>
<!-- Generator: Adobe Illustrator 16.0.0, SVG Export Plug-In . SVG Version: 6.00 Build 0)  -->

<svg
   xmlns:dc="http://purl.org/dc/elements/1.1/"
   xmlns:cc="http://creativecommons.org/ns#"
   xmlns:rdf="http://www.w3.org/1999/02/22-rdf-syntax-ns#"
   xmlns:svg="http://www.w3.org/2000/svg"
   xmlns="http://www.w3.org/2000/svg"
   xmlns:sodipodi="http://sodipodi.sourceforge.net/DTD/sodipodi-0.dtd"
   xmlns:inkscape="http://www.inkscape.org/namespaces/inkscape"
   version="1.1"
   id="Capa_1"
   x="0px"
   y="0px"
   width="485.215px"
   height="485.215px"
   viewBox="0 0 485.215 485.215"
   style="enable-background:new 0 0 485.215 485.215;"
   xml:space="preserve"
   sodipodi:docname="palm-icon.svg"
   inkscape:version="0.92.2 5c3e80d, 2017-08-06"><metadata
     id="metadata49"><rdf:RDF><cc:Work
         rdf:about=""><dc:format>image/svg+xml</dc:format><dc:type
           rdf:resource="http://purl.org/dc/dcmitype/StillImage" /><dc:title></dc:title></cc:Work></rdf:RDF></metadata><defs
     id="defs47" /><sodipodi:namedview
     pagecolor="#ffffff"
     bordercolor="#666666"
     borderopacity="1"
     objecttolerance="10"
     gridtolerance="10"
     guidetolerance="10"
     inkscape:pageopacity="0"
     inkscape:pageshadow="2"
     inkscape:window-width="1220"
     inkscape:window-height="657"
     id="namedview45"
     showgrid="false"
     inkscape:zoom="0.66156241"
     inkscape:cx="12.914733"
     inkscape:cy="200.16735"
     inkscape:window-x="105"
     inkscape:window-y="51"
     inkscape:window-maximized="0"
     inkscape:current-layer="Capa_1" /><g
     id="g12"
     transform="matrix(-1,0,0,1,485.215,0)"><path
       d="M 248.958,406.438 C 247.52,359.851 236.196,221.104 153.567,155.536 137.988,178.575 103.459,241.805 111.648,342.672 100.382,298.161 73.476,227.589 92.385,135.96 63.612,142.505 11.875,156.898 0,177.926 5.598,149.436 49.709,87.63 96.825,75.103 96.708,75.015 96.59,74.921 96.471,74.865 96.574,74.743 96.693,74.688 96.798,74.566 87.84,54.992 66.928,15.04 43.624,10.097 66.22,8.94 111.709,21.377 138.881,42.643 221.253,-9.005 301.598,1.003 350.113,0.443 283.061,15.1 238.992,46.906 211.793,74.743 c 76.836,18.127 132.155,60.919 170.36,84.645 -81.146,-32.49 -144.804,-28.285 -183.923,-19.135 33.92,33.554 80.033,128.944 113.146,253.831 2.366,-0.089 4.671,-0.443 7.042,-0.443 67.584,0 130.52,34.531 166.797,91.568 H 151.628 c 23.352,-36.693 57.779,-63.906 97.33,-78.771 z"
       id="path10"
       inkscape:connector-curvature="0" /></g><g
     id="g14" /><g
     id="g16" /><g
     id="g18" /><g
     id="g20" /><g
     id="g22" /><g
     id="g24" /><g
     id="g26" /><g
     id="g28" /><g
     id="g30" /><g
     id="g32" /><g
     id="g34" /><g
     id="g36" /><g
     id="g38" /><g
     id="g40" /><g
     id="g42" /><path
     style="stroke-width:1.5115732;fill:#23282d;fill-opacity:1;opacity:1"
     d="m 4.491743,480.11617 c 1.4612793,-2.28626 6.42666,-8.80753 11.03418,-14.49174 34.502717,-42.56525 91.902817,-70.53426 144.755787,-70.53426 h 14.10367 l 1.66588,-6.42418 c 5.20922,-20.08867 19.65814,-65.96348 28.17407,-89.45168 23.86625,-65.8268 50.6517,-119.12872 74.60878,-148.46836 l 8.8237,-10.80616 -6.31815,-1.54824 c -26.12272,-6.4013 -77.89595,-6.24625 -110.79301,0.3318 -10.90472,2.18049 -27.46754,6.38401 -36.80625,9.34115 -9.33871,2.95713 -17.2848,5.0713 -17.65796,4.69813 -0.91027,-0.91027 44.17067,-29.33243 64.12771,-40.43059 26.47001,-14.720025 63.83456,-29.919397 85.36404,-34.724887 4.78035,-1.066999 8.69155,-2.430746 8.69155,-3.03055 0,-1.977966 -25.61458,-23.191286 -39.76703,-32.934014 C 212.24896,26.325576 180.04997,11.586051 151.22017,3.5206916 L 140.49151,0.51926498 181.30399,1.2106719 c 26.56824,0.4500944 46.35191,1.5405983 56.68399,3.1245037 34.25747,5.2516549 68.72673,16.6280234 94.77942,31.2813654 11.63986,6.546838 13.67504,7.240118 16.32121,5.559757 12.53797,-7.961811 27.42153,-15.524846 38.41497,-19.52045 13.95835,-5.073213 35.93982,-10.419425 43.05889,-10.472553 l 4.38362,-0.03271 -5.8952,4.352135 c -12.57801,9.285735 -24.34669,25.050554 -35.93521,48.137298 -6.14795,12.247965 -6.22255,12.507747 -3.59248,12.509407 3.30207,0.0021 20.36634,8.671885 30.16404,15.325378 23.39322,15.886027 55.57682,56.257557 62.41523,78.294507 1.04133,3.35568 0.55569,3.17754 -5.47263,-2.00743 -8.07108,-6.94196 -25.94233,-15.57529 -45.16049,-21.81637 -14.51314,-4.71313 -38.13122,-11.00789 -38.79842,-10.34068 -0.1992,0.19919 0.64225,6.11882 1.86987,13.15473 3.21327,18.41621 4.45585,63.90092 2.31445,84.72157 -2.12216,20.63368 -8.90291,54.27639 -15.96861,79.2283 l -5.13643,18.13888 -0.10445,-16.84504 c -0.34515,-55.6186 -14.0261,-110.13772 -37.58546,-149.7795 -3.07941,-5.1815 -6.12745,-9.4328 -6.77345,-9.44733 -0.64599,-0.0151 -7.12589,5.92541 -14.39978,13.19986 -38.2157,38.21863 -64.52226,100.0094 -75.77577,177.98774 -4.14652,28.73215 -6.23126,60.26673 -4.03882,61.09226 0.91925,0.34614 8.88674,4.24111 17.70553,8.65551 25.78662,12.90791 47.35207,30.01932 64.16902,50.91579 5.4686,6.79518 10.60037,13.54525 11.40392,15.00014 1.38745,2.51205 -6.84673,2.64525 -163.5275,2.64525 H 1.8349474 l 2.6568712,-4.15682 z"
     id="path3740"
     inkscape:connector-curvature="0" /></svg>