<svg xmlns="http://www.w3.org/2000/svg" viewBox="0 0 32 32"><path fill="#B22234" d="M15.2 6H32v1.5H15.2zM15.2 9.1H32v1.5H15.2zM15.2 12.1H32v1.5H15.2zM15.2 15.2H32v1.5H15.2zM0 18.3h32v1.5H0zM0 21.4h32v1.5H0zM0 24.5h32V26H0z"></path><path fill="#3C3B6E" d="M0 6v10.8h15.2V6H0zm12.5 1.8l.1.5h.5l-.4.3.2.4-.4-.3-.3.3.1-.5-.4-.3h.5l.1-.4zm.4 3.5l-.4-.3-.4.3.1-.5-.4-.3h.5l.1-.5.1.5h.5l-.4.3.3.5zm0 2.4l-.4-.3-.4.3.1-.5-.4-.3h.5l.1-.5.1.5h.5l-.4.3.3.5zm-1.2-1.2l-.4-.3-.4.3.2-.5-.4-.3h.5l.1-.5.1.5h.5l-.4.3.2.5zm-1.3 1.2l-.4-.3-.3.3.1-.5-.4-.3h.5l.1-.4.1.5h.5l-.4.3.2.4zm-1.2-1.2l-.4-.3-.4.3.2-.5-.4-.3h.5l.1-.5.1.5h.5L9 12l.2.5zm-1.3 1.2l-.4-.3-.3.3.1-.5-.4-.3h.5l.1-.5.1.5h.5l-.3.3.1.5zm-1.2-1.2l-.4-.3-.4.3.2-.5-.4-.3h.5l.1-.5.1.5h.5l-.4.3.2.5zm-1.3 1.2l-.4-.3-.3.3.1-.5-.4-.3h.5l.1-.4.1.5h.5l-.3.2.1.5zm-1.2-1.2l-.4-.3-.4.3.2-.5-.4-.3h.5l.1-.5.1.5h.5L4 12l.2.5zm-1.3 1.2l-.4-.3-.3.3.1-.5-.4-.3h.5l.1-.5.1.5h.5l-.3.3.1.5zm-1-3.1h.5l.1-.5.1.5h.5l-.3.3.1.5-.4-.4-.3.3.1-.5-.4-.2zm9.8-.5l-.4-.3-.4.3.1-.5-.4-.3h.5l.1-.5.1.5h.5l-.4.3.3.5zm-1 .5l-.4.3.1.5-.4-.4-.3.3.1-.5-.4-.2h.5l.1-.5.1.5h.6zM9 9.7l.1.5-.3-.4-.4.3.1-.5-.3-.2h.5l.1-.5.1.5h.5l-.4.3zm-.8.9l-.4.3.1.5-.4-.4-.3.3.1-.5-.4-.2h.5l.1-.5.1.5h.6zm-1.7-.9l.1.5-.3-.4-.4.3.1-.5-.3-.2h.5l.1-.5.1.5h.5l-.4.3zm-.8.9l-.4.3.1.5L5 11l-.3.3.1-.5-.4-.2h.5l.1-.5.1.5h.6zM4 9.7l.1.5-.3-.4-.4.3.1-.5-.3-.2h.5l.1-.5.1.5h.5l-.4.3zM11.2 7l.1-.5.1.5h.5l-.4.3.1.5-.4-.3-.4.3.1-.5-.2-.3h.5zm-1.2.8l.1.5h.5l-.4.3.2.4-.4-.3-.3.3.1-.5-.4-.3h.5l.1-.4zM8.7 7l.1-.5.1.5h.5l-.4.3.1.5-.3-.3-.4.3.1-.5-.3-.3h.5zm-1.2.8l.1.5h.5l-.3.2.1.5-.4-.3-.3.3.1-.5-.4-.3h.5l.1-.4zM6.2 7l.1-.5.1.5h.5l-.4.3.1.5-.3-.3-.4.3.1-.5-.3-.3h.5zM5 7.8l.1.5h.5l-.3.2.1.5-.4-.3-.3.3.1-.5-.4-.3h.5l.1-.4zM3.7 7l.1-.5.1.5h.5l-.4.3.1.5-.3-.3-.4.3.1-.5-.3-.3h.5zm-1.2.8l.1.5h.5l-.3.2.1.5-.4-.3-.3.3.1-.5-.4-.3h.5l.1-.4zM1.2 7l.1-.5.1.5h.5l-.4.3.1.5-.3-.3-.4.3.1-.5L.7 7h.5zm0 2.4l.1-.5.1.5h.5l-.4.3.1.5-.3-.4-.4.3.1-.5-.3-.2h.5zm0 2.3l.1-.5.1.5h.5l-.4.3.1.5-.3-.3-.4.3.2-.5-.4-.3h.5zm.1 2.8l-.4.3.1-.5-.3-.2h.5l.1-.5.1.5h.5l-.4.3.1.5-.3-.4zM2.9 16l-.4-.3-.3.3.1-.5-.4-.2h.5l.1-.5.1.5h.5l-.3.3.1.4zm.9-1.5l-.4.3.1-.5-.3-.2h.5l.1-.5.1.5h.5l-.4.3.1.5-.3-.4zM5.4 16l-.4-.3-.3.3.1-.5-.4-.2h.5l.1-.5.1.5h.5l-.3.3.1.4zm.9-1.5l-.4.3.1-.5-.3-.2h.5l.1-.5.1.5h.5l-.4.3.1.5-.3-.4zM7.9 16l-.4-.3-.3.3.1-.5-.4-.2h.5l.1-.5.1.5h.5l-.3.3.1.4zm.9-1.5l-.4.3.1-.5-.3-.2h.5l.1-.5.1.5h.5l-.4.3.1.5-.3-.4zm1.6 1.5l-.4-.3-.3.3.1-.5-.4-.2h.5l.1-.5.1.5h.5l-.4.3.2.4zm.9-1.5l-.4.3.1-.5-.4-.3h.5l.1-.5.1.5h.5l-.4.3.1.5-.2-.3zm1.6 1.5l-.4-.3-.3.3.1-.5-.4-.3h.5l.1-.5.1.5h.5l-.4.3.2.5zm1.3-1.2l-.4-.3-.4.3.1-.5-.4-.3h.5l.1-.5.1.5h.5l-.3.4.2.4zM14 12l.1.5-.4-.3-.4.3.3-.5-.4-.3h.5l.1-.5.1.5h.5l-.4.3zm0-2.3l.1.5-.4-.3-.4.3.1-.5-.4-.3h.5l.1-.5.1.5h.5l-.2.3zm0-2.4l.1.5-.4-.3-.4.3.1-.5-.2-.3h.5l.1-.5.1.5h.5l-.4.3z"></path></svg>