<svg xmlns="http://www.w3.org/2000/svg" viewBox="0 0 32 32"><path fill="#D13038" d="M14.4 5.9h3.2v7.9c0 .2 0 .2.2.2h14.3v3.8c0 .2 0 .2-.2.2H17.7c-.2 0-.2 0-.2.2v8h-3.2v-8.1H-.3v-4h14.5c.1 0 .2 0 .2-.2v-8z"></path><path fill="#21468B" d="M29.2 5.8c-.2.1-10.5 6.6-10.5 6.6V5.7c3.5.1 7 .1 10.5.1z"></path><path fill="#21468B" d="M13.3 5.8v6.6C13.2 12.3 3.1 6 2.8 5.8h10.5z"></path><path fill="#21468B" d="M-.3 7.7c.3.2 7.7 4.8 7.8 4.9H-.3V7.7z"></path><path fill="#21468B" d="M-.3 19.4h7.8c-.1.1-7.5 4.8-7.7 5-.1-1.8-.1-3.4-.1-5z"></path><path fill="#D13038" d="M32.2 5.8c-.3.2-10.5 6.7-10.5 6.7-.1.1-.1.1-.3.1h-1.6c.2-.1 10.6-6.8 10.6-6.8h1.8z"></path><path fill="#D13038" d="M-2 4.7c.2.1 12.3 7.8 12.5 7.9H8.7S-1.6 6.1-2 5.9V4.7z"></path><path fill="#21468B" d="M29.1 26.1H18.7v-6.6c3.5 2.3 7 4.4 10.4 6.6z"></path><path fill="#21468B" d="M13.2 26.1H2.8c3.5-2.2 6.9-4.3 10.4-6.5v6.5z"></path><path fill="#21468B" d="M24.5 19.4H32c.2 0 .2 0 .2.2v4.7c-2.6-1.7-5.2-3.3-7.7-4.9z"></path><path fill="#21468B" d="M32.2 7.7v4.9h-7.7c2.5-1.6 5.1-3.2 7.7-4.9z"></path><path fill="#D13038" d="M12.2 19.4c-.2.1-10.4 6.6-10.7 6.7H-.3c.1 0 .1-.1.2-.1.4-.2 10.3-6.5 10.5-6.6h1.8z"></path><path fill="#D13038" d="M32.2 26.1c-3.6-2.3-7.2-4.5-10.8-6.7H23s8.9 5.5 9.1 5.6c.1.1.1.1.1.2v.9z"></path></svg>