<svg xmlns="http://www.w3.org/2000/svg" viewBox="0 0 32 32"><path fill="#FFF" d="M32 16v10H0V16h32z"></path><path fill="#D13038" d="M0 6v10h32V6H0zm3.7 7.5c-1.2-1.4-1.2-3.5 0-5l.6-.6c.7-.5 1.6-.7 2.4-.7h.5c.2 0 .4.1.5.1-.9.2-1.7.6-2.4 1.3s-1 1.6-.9 2.6c.1 1.7 1.4 3.3 3.4 3.4-1.1.4-2.9.3-4.1-1.1zM7 11l-.5-.3-.5.3.2-.6-.5-.3h.6l.2-.6.2.6h.6l-.5.4.2.5zm.6 1.8l.2.6-.5-.4-.5.4.2-.6-.5-.3h.6l.2-.6.2.6h.6l-.5.3zm.9-3.6l-.5.3.2-.6-.5-.3h.6l.2-.6.2.6h.6l-.5.3.2.6-.5-.3zm1.8 4.2l-.5-.4-.5.4.2-.6-.5-.3h.6l.2-.6.2.6h.6l-.5.4.2.5zm.8-2.4l-.5-.4-.5.4.2-.6-.5-.3h.6l.2-.6.2.6h.6l-.5.4.2.5z"></path></svg>