<svg xmlns="http://www.w3.org/2000/svg" viewBox="0 0 32 9.8"><polygon points="11.3 9.7 12.9 0.2 15.5 0.2 13.9 9.7 11.3 9.7" fill="#0058a0"></polygon><path d="M23.3.4A6.7,6.7,0,0,0,20.9,0c-2.6,0-4.4,1.3-4.4,3.1s1.3,2.1,2.3,2.6,1.3.8,1.3,1.2-.8.9-1.6.9a5.4,5.4,0,0,1-2.4-.5l-.3-.2-.4,2.1a8.2,8.2,0,0,0,2.9.5c2.7,0,4.5-1.3,4.5-3.2S22.2,4.7,20.7,4s-1.5-.7-1.5-1.2.5-.8,1.5-.8a4.8,4.8,0,0,1,1.9.4h.2L23.3.4" fill="#0058a0"></path><path d="M29.9.2h-2a1.3,1.3,0,0,0-1.4.8L22.7,9.7h2.7L26,8.2h3.3l.3,1.4H32L29.9.2M26.7,6.3l1-2.7.3-.9.2.8.6,2.7Z" fill="#0058a0"></path><path d="M9.1.2,6.6,6.7,6.3,5.3a7.4,7.4,0,0,0-3.6-4L5,9.7H7.8L11.8.2H9.1" fill="#0058a0"></path><path d="M4.2.2H0V.4a8.6,8.6,0,0,1,6.3,5L5.4,1A1.1,1.1,0,0,0,4.2.2" fill="#faa61a"></path></svg>