<svg xmlns="http://www.w3.org/2000/svg" viewBox="0 0 32 19.1"><circle cx="9.6" cy="9.6" r="9.6" fill="#ed1c2e"></circle><path d="M22.4,0A9.5,9.5,0,0,0,16,2.5l-1,1H17l.7,1H14.3l-.6,1h4.5l.4,1H13.3l-.3,1h5.9a9.6,9.6,0,0,1-.3,5.1H13.3l.4,1h4.5l-.6,1H14.3l.7,1H17l-1,1A9.6,9.6,0,1,0,22.4,0Z" fill="#fcb131"></path><path d="M30.7,14.9a.3.3,0,1,1,.3.3A.3.3,0,0,1,30.7,14.9Zm.3.2a.2.2,0,1,0-.2-.2A.2.2,0,0,0,31,15.1Zm0-.1h-.1v-.3H31Zm0-.2h0Z" fill="#fcb131"></path><path d="M7.3,10.6H7.1c-.6,0-.9.2-.9.6a.4.4,0,0,0,.4.4C7,11.6,7.3,11.2,7.3,10.6Zm.8,1.8H7.2V12a1.3,1.3,0,0,1-1.1.5,1,1,0,0,1-.9-1.1c0-1,.7-1.5,1.8-1.5h.4V9.6c0-.3-.2-.4-.7-.4l-1.1.2V8.6l1.2-.2c.9,0,1.4.4,1.4,1.2a5.1,5.1,0,0,1-.1.8C8.3,10.9,8.1,12.1,8.1,12.4Z" fill="#003473"></path><polygon points="4.8 12.4 3.7 12.4 4.3 8.6 3 12.4 2.3 12.4 2.2 8.7 1.6 12.4 0.6 12.4 1.4 7.5 2.9 7.5 3 10.2 3.9 7.5 5.6 7.5 4.8 12.4" fill="#003473"></polygon><path d="M23.7,10.6h-.2c-.6,0-.9.2-.9.6a.4.4,0,0,0,.4.4C23.4,11.6,23.7,11.2,23.7,10.6Zm.8,1.8h-.9V12a1.3,1.3,0,0,1-1.1.5,1,1,0,0,1-.9-1.1c0-1,.7-1.5,1.8-1.5h.4V9.6c0-.3-.2-.4-.7-.4l-1.1.2V8.6l1.2-.2c.9,0,1.4.4,1.4,1.2a5,5,0,0,1-.1.8C24.7,10.9,24.5,12.1,24.5,12.4Z" fill="#003473"></path><path d="M12.7,12.3H12a.8.8,0,0,1-.8-.9,9.1,9.1,0,0,1,.1-1.1l.5-2.7h1v.6h.6v.9h-.6c-.1.8-.3,1.7-.3,1.8s.1.3.4.3h.3Z" fill="#003473"></path><path d="M15.9,12.3l-1.1.2a1.6,1.6,0,0,1-1.8-1.8c0-1.3.8-2.3,1.8-2.3a1.3,1.3,0,0,1,1.4,1.4,4.2,4.2,0,0,1-.1,1H14.1c-.1.6.3.8.9.8l1.1-.2Zm-.6-2.3c0-.1.1-.7-.5-.7s-.6.3-.7.7Z" fill="#003473"></path><path d="M8.7,9.7a1.2,1.2,0,0,0,.8,1.1c.4.2.5.3.5.4s-.2.4-.6.4l-.9-.2v.9H9.4c1.1,0,1.6-.4,1.6-1.3a1.1,1.1,0,0,0-.7-1.1c-.4-.2-.5-.2-.5-.4s.2-.3.5-.3H11V8.4h-.9C9.1,8.3,8.7,9,8.7,9.7Z" fill="#003473"></path><path d="M20.9,8.4l.9.3L22,7.7a3.1,3.1,0,0,0-1.1-.4,2.1,2.1,0,0,0-1.7.9c-.6-.2-.9.2-1.2.6h-.3a2,2,0,0,0,0-.4h-1c-.1,1.2-.4,2.5-.5,3.7v.3h1c.2-1.1.3-1.8.3-2.3l.4-.2c.1-.2.2-.3.6-.3a4.4,4.4,0,0,0-.1.8c0,1.3.7,2.1,1.8,2.1h.9l.2-1.1-.9.2c-.6,0-1-.4-1-1.2S20.2,8.4,20.9,8.4Z" fill="#003473"></path><path d="M29.7,7.5l-.2,1.4a1.3,1.3,0,0,0-1-.6,1.6,1.6,0,0,0-1.3,1L26.3,9h0a5.8,5.8,0,0,0,0-.6h-1c-.1,1.2-.4,2.5-.5,3.7v.3h1l.3-2.3c.4-.3.5-.6.9-.6a3.4,3.4,0,0,0-.3,1.3c0,1,.5,1.6,1.3,1.6a1.2,1.2,0,0,0,1-.4v.4h1l.8-4.9h-1Zm-1.3,3.9c-.4,0-.5-.3-.5-.8s.3-1.3.8-1.3.6.3.6.8S28.9,11.5,28.4,11.5Z" fill="#003473"></path><polygon points="5.1 12.1 4 12.1 4.6 8.4 3.3 12.1 2.6 12.1 2.5 8.4 1.9 12.1 0.9 12.1 1.7 7.2 3.2 7.2 3.3 10.2 4.3 7.2 5.9 7.2 5.1 12.1" fill="#fff"></polygon><path d="M7.6,10.3H7.4c-.6,0-.9.2-.9.6a.4.4,0,0,0,.4.4C7.3,11.3,7.6,10.9,7.6,10.3Zm.8,1.8H7.5v-.4a1.3,1.3,0,0,1-1.1.5,1,1,0,0,1-.9-1.1c0-1,.7-1.5,1.8-1.5h.4V9.3c0-.3-.2-.4-.7-.4L6,9.2V8.3l1.2-.2c.9,0,1.4.4,1.4,1.2a5.1,5.1,0,0,1-.1.8C8.6,10.6,8.4,11.8,8.4,12.1Z" fill="#fff"></path><path d="M22.3,7.4l-.2,1.1-.9-.3c-.8,0-1.3.8-1.3,1.8s.4,1.2,1,1.2l.9-.2L21.6,12h-.9c-1.1,0-1.8-.8-1.8-2.1s1-2.9,2.3-2.9A3.6,3.6,0,0,1,22.3,7.4Z" fill="#fff"></path><path d="M24,10.3h-.2c-.6,0-.9.2-.9.6a.4.4,0,0,0,.4.4C23.7,11.3,24,10.9,24,10.3Zm.8,1.8h-.9v-.4a1.3,1.3,0,0,1-1.1.5,1,1,0,0,1-.9-1.1c0-1,.7-1.5,1.8-1.5h.4V9.3c0-.3-.2-.4-.7-.4l-1.1.2V8.3l1.2-.2c.9,0,1.4.4,1.4,1.2a5,5,0,0,1-.1.8C25,10.6,24.8,11.8,24.8,12.1Z" fill="#fff"></path><path d="M13,12h-.7a.8.8,0,0,1-.8-.9,9.1,9.1,0,0,1,.1-1.1L12,7.5h1v.6h.5v.9h-.5c-.1.8-.3,1.7-.3,1.8s.1.3.4.3h.3Z" fill="#fff"></path><path d="M16.2,12l-1.1.2a1.6,1.6,0,0,1-1.8-1.8c0-1.4.8-2.3,1.8-2.3a1.3,1.3,0,0,1,1.4,1.4,4.3,4.3,0,0,1-.1,1H14.4c-.1.6.3.8.9.8l1.1-.2Zm-.6-2.3c0-.1.1-.7-.5-.7s-.6.3-.7.7Z" fill="#fff"></path><path d="M9,9.4a1.2,1.2,0,0,0,.8,1.1c.4.2.5.3.5.4s-.2.4-.6.4l-.9-.2V12H9.7c1.1,0,1.6-.4,1.6-1.3a1.1,1.1,0,0,0-.7-1.1c-.4-.2-.5-.2-.5-.4s.2-.3.5-.3h.7V8.1h-.9C9.4,8.1,9,8.7,9,9.4Z" fill="#fff"></path><path d="M30.3,12.1h-1v-.4a1.2,1.2,0,0,1-1,.4c-.8,0-1.3-.7-1.3-1.6s.8-2.4,1.7-2.4a1.2,1.2,0,0,1,1,.5L30,7.2h1Zm-1.5-.9c.5,0,.8-.5.8-1.3s-.2-.8-.6-.8-.8.6-.8,1.3S28.4,11.2,28.7,11.2Z" fill="#fff"></path><path d="M25.7,8.1c-.1,1.2-.4,2.5-.5,3.7v.3h1c.4-2.4.5-2.9,1-2.8a3.9,3.9,0,0,1,.4-1.1c-.4-.1-.7.2-1,.6a3.6,3.6,0,0,0,.1-.6Z" fill="#fff"></path><path d="M17.1,8.1c-.1,1.2-.4,2.5-.5,3.7v.3h1c.4-2.4.5-2.9,1-2.8A3.9,3.9,0,0,1,19,8.1c-.4-.1-.7.2-1,.6a3.6,3.6,0,0,0,.1-.6Z" fill="#fff"></path><path d="M30.7,11.8a.3.3,0,1,1,.3.3A.3.3,0,0,1,30.7,11.8Zm.3.2a.2.2,0,1,0-.2-.2A.2.2,0,0,0,31,12Zm0-.1h-.1v-.3H31Zm0-.2h0Z" fill="#fff"></path></svg>