<svg xmlns="http://www.w3.org/2000/svg" viewBox="0 0 117.95 109.69"><path fill="#e4cdac" d="M18.33,15.14A6,6,0,1,1,10.45,12a6,6,0,0,1,7.88,3.13"></path><path fill="#e4cdac" d="M103.74,24a1.22,1.22,0,0,1-1.22-1.22A9.57,9.57,0,0,0,93,13.22a1.22,1.22,0,1,1,0-2.44,9.57,9.57,0,0,0,9.56-9.56,1.22,1.22,0,1,1,2.44,0,9.57,9.57,0,0,0,9.56,9.56,1.22,1.22,0,0,1,0,2.44A9.57,9.57,0,0,0,105,22.78,1.22,1.22,0,0,1,103.74,24ZM98.22,12a12.14,12.14,0,0,1,5.52,5.52A12.05,12.05,0,0,1,109.26,12a12,12,0,0,1-5.52-5.52A12.1,12.1,0,0,1,98.22,12Z"></path><path fill="#e4cdac" d="M34.42,105.69a4,4,0,1,1-4-4,4,4,0,0,1,4,4"></path><path fill="#e4cdac" d="M21.22,95.09a3,3,0,1,1-3-3,3,3,0,0,1,3,3"></path><path fill="#edddc5" d="M87.79,69.45a23.85,23.85,0,1,0,0,3Zm-47.69,3v-3m40-2.4-6.7,7.23L74.57,84a1.09,1.09,0,0,1,0,.18,1.25,1.25,0,0,1-1.29,1.21,1.36,1.36,0,0,1-.48-.12l-9-4.09-9,4.09a1.29,1.29,0,0,1-.67.11A1.25,1.25,0,0,1,53.08,84l1.15-9.76-6.7-7.23a1.26,1.26,0,0,1-.3-.6,1.23,1.23,0,0,1,1-1.46l9.69-1.94,4.85-8.57a1.25,1.25,0,0,1,2.18,0l4.84,8.57L79.45,65a1.22,1.22,0,0,1,.6.3A1.25,1.25,0,0,1,80.13,67.05ZM28.86,69.71A12.54,12.54,0,1,1,16.32,57.18,12.54,12.54,0,0,1,28.86,69.71Zm89.09,0a12.54,12.54,0,1,1-12.53-12.53A12.53,12.53,0,0,1,118,69.71Zm-44.28-47A12.54,12.54,0,1,1,61.14,10.19,12.53,12.53,0,0,1,73.67,22.72Z"></path><circle fill="none" stroke-linejoin="round" stroke-width="3px" stroke="#c1aa95" stroke-linecap="round" cx="57.13" cy="17.72" r="12.34"></circle><circle fill="none" stroke-linejoin="round" stroke-width="3px" stroke="#c1aa95" stroke-linecap="round" cx="12.32" cy="64.71" r="10.82"></circle><circle fill="none" stroke-linejoin="round" stroke-width="3px" stroke="#c1aa95" stroke-linecap="round" cx="101.42" cy="64.71" r="10.82"></circle><circle fill="none" stroke-linejoin="round" stroke-width="3px" stroke="#c1aa95" stroke-linecap="round" cx="56.87" cy="67.34" r="23.88"></circle><line fill="none" stroke-linejoin="round" stroke-width="3px" stroke="#c1aa95" x1="19.35" y1="57.55" x2="47.74" y2="25.72"></line><line fill="none" stroke-linejoin="round" stroke-width="3px" stroke="#c1aa95" stroke-linecap="round" x1="96.4" y1="54.88" x2="66.89" y2="25.72"></line><line fill="none" stroke-linejoin="round" stroke-width="3px" stroke="#c1aa95" stroke-linecap="round" x1="23.14" y1="67.44" x2="32.4" y2="67.44"></line><line fill="none" stroke-linejoin="round" stroke-width="3px" stroke="#c1aa95" stroke-linecap="round" x1="80.75" y1="67.44" x2="90.6" y2="67.44"></line><path fill="#c1aa95" stroke-miterlimit="10" stroke="#c1aa95" d="M66.18,81.93a1.25,1.25,0,0,0,1.29-1.21,1.09,1.09,0,0,0,0-.18l-1.14-9.76L73,63.55a1.24,1.24,0,0,0-.07-1.76,1.26,1.26,0,0,0-.6-.3l-9.69-1.94L57.81,51a1.27,1.27,0,0,0-1.71-.47,1.25,1.25,0,0,0-.47.47l-4.85,8.57-9.69,1.94a1.25,1.25,0,0,0-1,1.46,1.38,1.38,0,0,0,.31.6l6.7,7.23L46,80.54a1.25,1.25,0,0,0,1.1,1.38,1.23,1.23,0,0,0,.66-.11l9-4.09,9,4.09a1.36,1.36,0,0,0,.48.12Zm-1.46-3.3-7.48-3.41a1.28,1.28,0,0,0-1.05,0l-7.48,3.41,1-8.13a1.28,1.28,0,0,0-.32-1l-5.58-6,8.07-1.61a1.28,1.28,0,0,0,.84-.61l4-7.14,4,7.14a1.27,1.27,0,0,0,.85.61l8.07,1.61-5.58,6a1.21,1.21,0,0,0-.32,1Z"></path></svg>