<svg xmlns="http://www.w3.org/2000/svg" viewBox="0 0 64 64"><path fill="#B8D77C" d="M52.4 23.7c-.1-.2-.2-.4-.4-.6l-5.4-3.3v-9.2c0-1.2-1.1-2.2-2.3-2.2H6.5c-1.3 0-2.3 1-2.3 2.2v43.6c0 1.2 1.1 2.2 2.3 2.2H22l-.8 7.2v.3s.1 0 .3-.1l6.2-3.6c.6-.3 1.4-1.1 1.8-1.7l1.4-2.1h13.2c1.3 0 2.3-1 2.3-2.2V33l5.7-8.6c.3-.3.3-.5.3-.7z"></path><path fill="#474340" d="M47.8 19.7c-.1-.2-.2-.4-.4-.6L42 15.7V6.2c0-1.3-1-2.3-2.3-2.3h-7.2V.6c0-.3-.3-.6-.6-.6s-.6.3-.6.6v3.3H10.6V.6c0-.3-.3-.6-.6-.6s-.5.3-.5.6v3.3H2.3C1 3.9 0 4.9 0 6.2v45.1c0 1.3 1 2.3 2.3 2.3h15.4l-.8 7.5v.3s.1 0 .3-.1l6.2-3.7c.6-.4 1.4-1.2 1.8-1.8l1.4-2.2h13.1c1.3 0 2.3-1 2.3-2.3v-22l5.7-9c.1-.1.2-.4.1-.6zM1.1 6.2c0-.6.6-1.2 1.2-1.2h7.2v2.6c0 .3.3.6.6.6s.6-.3.6-.6V5h20.7v2.6c0 .3.3.6.6.6s.6-.3.6-.6V5h7.2c.6 0 1.2.5 1.2 1.2v5.1H1.1V6.2zM18 52.5H2.3c-.6 0-1.2-.5-1.2-1.2V12.4h39.8v3.8L39.1 19l-1.5-1c-.3-.2-.7-.3-1-.3-.7 0-1.3.3-1.7.9l-6.4 10.2c-.2.3-.1.6.2.8.3.2.6.1.8-.2l6.4-10.2c.1-.2.4-.4.7-.4.2 0 .3 0 .5.1l1.5.9-20 31.6-.3.6-.3.5zm5.8 3.4c-.2.2-.6.6-.9.8l-4.6 2.8.5-5.3c0-.3.1-.7.3-1.2l.2-.6 4.9 3.1-.4.4zm17.1-4.6c0 .6-.5 1.2-1.2 1.2H27.3l13.5-21.4v20.2zm-16.1 3.1l-4.8-3 17.1-27.1 4.8 3.1-17.1 27zm17.7-28l-4.8-3.1 4.1-6.5 4.8 3.1-4.1 6.5z"></path><path fill="#474340" d="M13.1 21l-2 2.5-1.2-1c-.1-.1-.3-.2-.5-.2h-.1c-.2 0-.4.1-.5.3-.1.1-.2.3-.2.5s.1.4.3.5l1.7 1.5c.1.1.3.2.5.2s.4-.1.5-.3l2.5-3c.2-.3.2-.7-.1-1-.3-.3-.7-.3-.9 0z"></path><path fill="#474340" d="M15 17.1H8c-1.4 0-2.5 1.1-2.5 2.5v7c0 1.4 1.1 2.5 2.5 2.5h7c1.4 0 2.5-1.1 2.5-2.5v-7c0-1.4-1.1-2.5-2.5-2.5zm1.1 9.5c0 .6-.5 1.1-1.1 1.1H8c-.6 0-1.1-.5-1.1-1.1v-7c0-.6.5-1.1 1.1-1.1h7c.6 0 1.1.5 1.1 1.1v7zM15 34H8c-1.4 0-2.5 1.1-2.5 2.5v7C5.5 44.9 6.6 46 8 46h7c1.4 0 2.5-1.1 2.5-2.5v-7c0-1.3-1.1-2.5-2.5-2.5zm1.1 9.6c0 .6-.5 1.1-1.1 1.1H8c-.6 0-1.1-.5-1.1-1.1v-7c0-.6.5-1.1 1.1-1.1h7c.6 0 1.1.5 1.1 1.1v7z"></path></svg>