<svg xmlns="http://www.w3.org/2000/svg" viewBox="0 0 114.29 103.45"><path d="M27.93,96a4,4,0,1,1-4-4,4,4,0,0,1,4,4" fill="#e4cdac"></path><path d="M26.71,66.26a3,3,0,1,1-3-3,3,3,0,0,1,3,3" fill="#e4cdac"></path><path d="M12,87.2a6,6,0,1,1-6-6,6,6,0,0,1,6,6" fill="#e4cdac"></path><path d="M13.49,22.78a9.57,9.57,0,0,0-9.56-9.56,1.22,1.22,0,0,1,0-2.44,9.57,9.57,0,0,0,9.56-9.56,1.22,1.22,0,1,1,2.44,0,9.57,9.57,0,0,0,9.56,9.56,1.22,1.22,0,1,1,0,2.44,9.57,9.57,0,0,0-9.56,9.56,1.22,1.22,0,1,1-2.44,0Zm1.22-16.3A12,12,0,0,1,9.19,12a12.1,12.1,0,0,1,5.52,5.52A12.1,12.1,0,0,1,20.23,12,12,12,0,0,1,14.71,6.48Z" fill="#e4cdac"></path><path d="M73,57.07a1.28,1.28,0,0,0-.39-1.17l-8.92-8.38L76,45.79a1.27,1.27,0,0,0,1-.7l5.6-10.87L88.18,45.1a1.3,1.3,0,0,0,1,.69l12.37,1.73-8.9,8.37a1.28,1.28,0,0,0-.39,1.17L94.34,69,83.21,63.32h0a1.3,1.3,0,0,0-.58-.14,1.39,1.39,0,0,0-.6.14L70.89,69Z" fill="#edddc5"></path><path d="M55.23,84.63a3.24,3.24,0,1,1,3.24-3.24A3.24,3.24,0,0,1,55.23,84.63Z" fill="#c1aa95"></path><path d="M55.23,15.5a3.24,3.24,0,1,1,3.24-3.24A3.24,3.24,0,0,1,55.23,15.5Z" fill="#c1aa95"></path><path d="M103.92,85.16a3.24,3.24,0,1,1,3.24-3.24A3.24,3.24,0,0,1,103.92,85.16Z" fill="#c1aa95"></path><path d="M103.92,16a3.24,3.24,0,1,1,3.24-3.24A3.24,3.24,0,0,1,103.92,16Z" fill="#c1aa95"></path><path d="M103.42,2.82H54.6A10.89,10.89,0,0,0,43.73,13.69V81.24a.34.34,0,0,0,0,.1.09.09,0,0,0,0,0V92.58A10.93,10.93,0,0,0,54.6,103.45h48.82a10.93,10.93,0,0,0,10.87-10.87V13.69A10.89,10.89,0,0,0,103.42,2.82ZM46.73,13.69A7.88,7.88,0,0,1,54.6,5.82h48.82a7.88,7.88,0,0,1,7.87,7.87V81.24a7.88,7.88,0,0,1-7.87,7.87H54.6a7.88,7.88,0,0,1-7.87-7.87ZM62.3,92.11H72v8.26s0,0,0,.08H62.29s0,0,0-.08ZM75,100.37V92.11h8.62v8.26s0,0,0,.08H75S75,100.4,75,100.37Zm11.62,0V92.11h8.62v8.26s0,0,0,.08H86.58S86.59,100.4,86.59,100.37ZM46.73,92.58V88.72a10.84,10.84,0,0,0,7.87,3.39h4.7v8.26s0,0,0,.08H54.6A7.92,7.92,0,0,1,46.73,92.58Zm64.56,0a7.92,7.92,0,0,1-7.87,7.87H98.2s0,0,0-.08V92.11h5.21a10.84,10.84,0,0,0,7.87-3.39Z" fill="#c1aa95"></path><path d="M67.89,52.41,65.81,64.19a1.48,1.48,0,0,0,.59,1.46,1.45,1.45,0,0,0,.89.3,1.51,1.51,0,0,0,.68-.16L79,60.2l11,5.59a1.51,1.51,0,0,0,1.57-.14,1.49,1.49,0,0,0,.59-1.46l-2.1-11.78,8.83-8.32a1.5,1.5,0,0,0-.82-2.58L85.87,39.82,80.33,29a1.49,1.49,0,0,0-2.66,0L72.14,39.8,59.88,41.51a1.5,1.5,0,0,0-.82,2.58Zm4.72-9.65a2.77,2.77,0,0,0,2.15-1.51L79,33l4.24,8.26a2.78,2.78,0,0,0,2.13,1.52l9.23,1.28L88,50.29a2.77,2.77,0,0,0-.85,2.53l1.6,8.93L80.32,57.5a2.75,2.75,0,0,0-1.3-.32,2.89,2.89,0,0,0-1.27.3l-8.46,4.28,1.58-8.92A2.78,2.78,0,0,0,70,50.3l-6.64-6.25Z" fill="#c1aa95"></path></svg>