<svg xmlns="http://www.w3.org/2000/svg" viewBox="0 0 64 64"><path fill="#ccaf83" d="M62.51 18H2a1 1 0 0 0-1 1v7.56a1 1 0 0 0 .77 1 1.34 1.34 0 0 1 1 1.43A1.71 1.71 0 0 1 1.7 30.6a1 1 0 0 0-.68.95v7.72a1 1 0 0 0 1 1h.52v4.42h43.57a8.77 8.77 0 0 0 17.08-2.77v-.82a1 1 0 0 0 .36-.75v-8.8a1 1 0 0 0-.57-.9 1.85 1.85 0 0 1-1-1.52 1.59 1.59 0 0 1 .94-1.62 1 1 0 0 0 .68-1V19a1 1 0 0 0-1.09-1zm-21 24.69v-1.08h-2v1.08h-2.59v-1.08h-2v1.08H32.3v-1.08h-2v1.08h-2.63v-1.08h-2v1.08h-2.62v-1.08h-2v1.08h-2.63v-1.08h-2v1.08H13.8v-1.08h-2v1.08H9.17v-1.08h-2v1.08H4.54v-2.42h41.27a8.88 8.88 0 0 0-.16 1.65v.77zm7.21-8.49V24.09h3.18v9.42a8.57 8.57 0 0 0-1.69.69zm5.66 14.48a6.77 6.77 0 1 1 6.77-6.76 6.77 6.77 0 0 1-6.73 6.76zm0-15.53h-.48V22.09h-7.14V36.2h1a8.77 8.77 0 0 0-1.32 2.07H3v-6.1A3.65 3.65 0 0 0 4.79 29 3.34 3.34 0 0 0 3 25.89V20h58.51v6a3.75 3.75 0 0 0 0 6.17v4.66a8.75 8.75 0 0 0-7.09-3.68z"></path><path fill="#ccaf83" d="M10.58 36.2h7.18V22.09h-7.18zm2-12.11h3.18V34.2h-3.18zm7.05 12.11h7.18V22.09h-7.18zm2-12.11h3.18V34.2h-3.18zm7.04 12.11h7.18V22.09h-7.18zm2-12.11h3.18V34.2h-3.18zm7.05 12.11h7.18V22.09h-7.18zm2-12.11h3.18V34.2h-3.18zm15.73 14.1h-2v2.73h-2.86v2h2.86v2.99h2v-2.99h2.86v-2h-2.86v-2.73z"></path></svg>