<svg xmlns="http://www.w3.org/2000/svg" viewBox="0 0 64 64"><path fill="#ccaf83" d="M62.32 23H14.08a1 1 0 0 0-1 1v6a1 1 0 0 0 .79 1 .86.86 0 0 1 .63.93 1.16 1.16 0 0 1-.74 1.12 1 1 0 0 0-.68.95v6.16a1 1 0 0 0 1 1h.22v3.52h31.62A8.77 8.77 0 0 0 63 41.92v-.17a1 1 0 0 0 .33-.73V34a1 1 0 0 0-.57-.9 1.31 1.31 0 0 1-.72-1 1.09 1.09 0 0 1 .61-1.1 1 1 0 0 0 .68-.95V24a1 1 0 0 0-1.01-1zm-46 18.17H45.5v.86h-1.69v.66h-1.69V42h-2v.66h-1.69V42h-2v.66h-1.69V42h-2v.66h-1.69V42h-2v.66h-1.68V42h-2v.66h-1.69V42h-2v.66H20V42h-2v.66h-1.7zm30.18-5.25h-2.15v-7.66h2.13zm7.75 12.76a6.77 6.77 0 0 1-6.77-6.76 7.14 7.14 0 0 1 .12-1.24.92.92 0 0 0 .17-.51v-.1a6.76 6.76 0 1 1 6.5 8.61zm-.54-15.5a8.44 8.44 0 0 0-2.13.39v-5.31h2.13zm2 .1v-7h-6.15v8.25a8.45 8.45 0 0 0-1.08.81v-9.08h-6.13v11.66h4.09a8.69 8.69 0 0 0-.53 1.25H15.08v-4.55a3.13 3.13 0 0 0 1.42-2.68 2.86 2.86 0 0 0-1.42-2.56V25h46.24v4.44a3.18 3.18 0 0 0 0 5.12v2.22a8.76 8.76 0 0 0-5.63-3.5z"></path><path fill="#ccaf83" d="M20.71 37.92h6.13V26.26h-6.13zm2-9.66h2.13v7.66h-2.13zm5.21 9.66h6.13V26.26h-6.13zm2-9.66h2.13v7.66h-2.13zm5.22 9.66h6.13V26.26h-6.13zm2-9.66h2.13v7.66h-2.13zm18.12 9.93h-2v2.73H50.4v2h2.86v2.99h2v-2.99h2.86v-2h-2.86v-2.73z"></path><path fill="#ccaf83" d="M3 25.74A3.15 3.15 0 0 0 4.42 23 2.87 2.87 0 0 0 3 20.45V16h46.81v4.79h2V14H1v7.91l.79.17a.89.89 0 0 1 .64 1 1.18 1.18 0 0 1-.74 1.14l-.69.19v8h1.22v3.57h7.49v-2H8v-.68H6v.68H4.22v-1.62h5.49v-2H3z"></path><path fill="#ccaf83" d="M14.89 20.79V17.3H8.71v10.58h2V19.3h2.18v1.49h2zm7.3 0V17.3h-6.18v3.49h2V19.3h2.18v1.49h2zm7.3 0V17.3h-6.18v3.49h2V19.3h2.18v1.49h2zm7.3 0V17.3h-6.18v3.49h2V19.3h2.18v1.49h2zm7.3 0V17.3h-6.18v3.49h2V19.3h2.18v1.49h2z"></path></svg>