<svg xmlns="http://www.w3.org/2000/svg" viewBox="0 0 128 128"><title>128x128</title><ellipse cx="69.232" cy="68.605" rx="14.743" ry="25.066" fill="#f5eac4"/><path d="M84.774,117.053h-41.8a1.5,1.5,0,0,1-1.061-.44L12.351,87.054a1.5,1.5,0,0,1-.44-1.061v-41.8a1.5,1.5,0,0,1,.44-1.061L41.91,13.57a1.5,1.5,0,0,1,1.061-.439h41.8a1.5,1.5,0,0,1,1.06.439l29.56,29.56a1.5,1.5,0,0,1,.439,1.061v41.8a1.5,1.5,0,0,1-.439,1.061l-29.56,29.559A1.5,1.5,0,0,1,84.774,117.053Zm-41.182-3H84.153l28.68-28.681V44.812L84.153,16.131H43.592L14.911,44.812v40.56Z" fill="#eca03e"/><path d="M63.576,89.451H62.167A14.353,14.353,0,0,1,47.83,75.114V63.387A14.354,14.354,0,0,1,62.167,49.05h1.409A14.353,14.353,0,0,1,77.913,63.387V75.114A14.353,14.353,0,0,1,63.576,89.451Zm-1.409-37.4A11.35,11.35,0,0,0,50.83,63.387V75.114A11.35,11.35,0,0,0,62.167,86.451h1.409A11.35,11.35,0,0,0,74.913,75.114V63.387A11.35,11.35,0,0,0,63.576,52.05Z" fill="#eca03e"/><path d="M68.822,52.941a1.5,1.5,0,0,1-1.065-2.556,6.883,6.883,0,1,0-9.77,0A1.5,1.5,0,1,1,55.858,52.5a9.883,9.883,0,1,1,14.028,0A1.5,1.5,0,0,1,68.822,52.941Z" fill="#eca03e"/><path d="M76.414,64.946a1.5,1.5,0,0,1-.745-2.8l8.273-4.726V47.971a1.5,1.5,0,1,1,3,0V58.288a1.5,1.5,0,0,1-.756,1.3l-9.028,5.158A1.5,1.5,0,0,1,76.414,64.946Z" fill="#eca03e"/><path d="M85.442,92.03a1.5,1.5,0,0,1-1.5-1.5V81.083l-8.273-4.726a1.5,1.5,0,0,1,1.489-2.606l9.028,5.159a1.5,1.5,0,0,1,.756,1.3V90.53A1.5,1.5,0,0,1,85.442,92.03Z" fill="#eca03e"/><path d="M93.181,76.554a1.5,1.5,0,0,1-1.172-.563L87.3,70.106H76.413a1.5,1.5,0,0,1,0-3H88.021a1.5,1.5,0,0,1,1.171.562l5.159,6.448a1.5,1.5,0,0,1-1.17,2.438Z" fill="#eca03e"/><path d="M49.329,64.946a1.493,1.493,0,0,1-.743-.2l-9.028-5.158a1.5,1.5,0,0,1-.756-1.3V47.971a1.5,1.5,0,0,1,3,0v9.447l8.273,4.726a1.5,1.5,0,0,1-.746,2.8Z" fill="#eca03e"/><path d="M40.3,92.03a1.5,1.5,0,0,1-1.5-1.5V80.213a1.5,1.5,0,0,1,.756-1.3l9.028-5.159a1.5,1.5,0,0,1,1.489,2.606L41.8,81.083V90.53A1.5,1.5,0,0,1,40.3,92.03Z" fill="#eca03e"/><path d="M32.563,76.554a1.5,1.5,0,0,1-1.17-2.438l5.159-6.448a1.5,1.5,0,0,1,1.171-.562H49.33a1.5,1.5,0,0,1,0,3H38.444l-4.709,5.885A1.5,1.5,0,0,1,32.563,76.554Z" fill="#eca03e"/><path d="M62.872,88.623a1.5,1.5,0,0,1-1.5-1.5V50.55a1.5,1.5,0,0,1,3,0V87.123A1.5,1.5,0,0,1,62.872,88.623Z" fill="#eca03e"/><path d="M30.279,104.36a1.5,1.5,0,0,1-1.061-2.56L99.832,31.185a1.5,1.5,0,0,1,2.121,2.121L31.339,103.921A1.5,1.5,0,0,1,30.279,104.36Z" fill="#eca03e"/></svg>