<svg xmlns="http://www.w3.org/2000/svg" viewBox="0 0 64 64"><path fill="#F19B78" d="M36.6 11.4c-2.1-3.1-4.9-3.1-6.8 0l-26 40.4C3 52.9 3 54.1 3.5 55c.6 1 1.7 1.2 2.9 1.2h54.2c.9 0 2-.2 2.6-1.2.5-1 .3-2.3-.3-3.3L36.6 11.4z"></path><path fill="#474340" d="M34 1.4C33.4.4 32.4 0 31.4 0s-2 .5-2.6 1.4L.4 45.4C-1 47.5.6 50.2 3 50.2h56.6c2.5 0 3.9-2.7 2.6-4.8L34 1.4zm27 46.5c-.2.2-.5.8-1.4.8H3.1c-.8 0-1.3-.6-1.4-.8-.2-.2-.4-.9.1-1.7L30 2.3c.3-.5.8-.8 1.4-.8.5 0 1.1.3 1.4.8L61 46.2c.5.8.2 1.4 0 1.7z"></path><path fill="#474340" d="M31.9 35l.3-16.1h-1.7L31 35zM31.3 38.1c-.8 0-1.2.5-1.2 1.4s.4 1.4 1.2 1.4c.8 0 1.2-.5 1.2-1.4s-.3-1.4-1.2-1.4z"></path></svg>