<svg xmlns="http://www.w3.org/2000/svg" viewBox="0 0 92.6 110.087"><title>presentational-ssl</title><path d="M110.3,86.7a15.4,15.4,0,1,0-30.8,0,15.11,15.11,0,0,0,6.1,12.2h-.1v18.6a1.58,1.58,0,0,0,1.6,1.6,1.689,1.689,0,0,0,1-.3l3.5-2.7a5.417,5.417,0,0,1,6.8,0l3.5,2.7a1.579,1.579,0,0,0,2.2-.3,1.689,1.689,0,0,0,.3-1V98.9h-.2A15.11,15.11,0,0,0,110.3,86.7Z" transform="translate(-17.7 -9.025)" fill="#eddcf1"/><path d="M34.6,58.2a2.1,2.1,0,0,1,.4-1.1,1.05,1.05,0,0,1,.9-.5,1.374,1.374,0,0,1,.8.5,9.428,9.428,0,0,1,1,1,4.248,4.248,0,0,0,1.7,1,7.512,7.512,0,0,0,2.6.5,5.572,5.572,0,0,0,3.7-1.1A4.1,4.1,0,0,0,47,55.2,4.542,4.542,0,0,0,45.8,52a7.714,7.714,0,0,0-3-1.9c-1.1-.4-2.3-.9-3.5-1.4a7.561,7.561,0,0,1-3-2.3,5.512,5.512,0,0,1-1.2-3.9,7.535,7.535,0,0,1,.7-3.3,4.837,4.837,0,0,1,1.9-2.1,7.714,7.714,0,0,1,2.5-1,12.65,12.65,0,0,1,2.8-.3,15.933,15.933,0,0,1,4.3.6c1.4.4,2,1,2,1.8a1.5,1.5,0,0,1-.4,1.1.961.961,0,0,1-.9.6,12.2,12.2,0,0,1-1.7-.7,7.843,7.843,0,0,0-3.3-.7,6.118,6.118,0,0,0-3.5.9,3.052,3.052,0,0,0-1.3,2.8,3.571,3.571,0,0,0,1.2,2.7,8.7,8.7,0,0,0,3,1.6c1.2.4,2.3.9,3.5,1.4a8.06,8.06,0,0,1,3,2.5,7,7,0,0,1,1.2,4.4,6.723,6.723,0,0,1-2.2,5.6,8.375,8.375,0,0,1-5.7,1.9A10.06,10.06,0,0,1,36.8,61C35.3,60,34.6,59.1,34.6,58.2Z" transform="translate(-17.7 -9.025)" fill="#834ba2"/><path d="M52.7,58.2a2.1,2.1,0,0,1,.4-1.1,1.05,1.05,0,0,1,.9-.5,1.374,1.374,0,0,1,.8.5,9.428,9.428,0,0,1,1,1,4.248,4.248,0,0,0,1.7,1,7.512,7.512,0,0,0,2.6.5,5.572,5.572,0,0,0,3.7-1.1,4.1,4.1,0,0,0,1.3-3.3A4.542,4.542,0,0,0,63.9,52,8.123,8.123,0,0,0,61,50.1c-1.2-.4-2.3-.9-3.5-1.4a7.561,7.561,0,0,1-3-2.3,5.512,5.512,0,0,1-1.2-3.9,7.535,7.535,0,0,1,.7-3.3,4.837,4.837,0,0,1,1.9-2.1,7.714,7.714,0,0,1,2.5-1,12.65,12.65,0,0,1,2.8-.3,15.933,15.933,0,0,1,4.3.6c1.4.4,2,1,2,1.8a1.5,1.5,0,0,1-.4,1.1.961.961,0,0,1-.9.6,12.2,12.2,0,0,1-1.7-.7,7.843,7.843,0,0,0-3.3-.7,6.118,6.118,0,0,0-3.5.9,3.052,3.052,0,0,0-1.3,2.8,3.571,3.571,0,0,0,1.2,2.7,8.7,8.7,0,0,0,3,1.6c1.2.4,2.3.9,3.5,1.4a8.06,8.06,0,0,1,3,2.5,7.124,7.124,0,0,1,1.2,4.5,6.723,6.723,0,0,1-2.2,5.6,8.375,8.375,0,0,1-5.7,1.9A10.06,10.06,0,0,1,55,61.1C53.4,60,52.7,59.1,52.7,58.2Z" transform="translate(-17.7 -9.025)" fill="#834ba2"/><path d="M72.1,60.9V36.7a1.234,1.234,0,0,1,.4-.8,1.986,1.986,0,0,1,2.1,0,.735.735,0,0,1,.4.8V59.2H85a.842.842,0,0,1,.7.4,2.118,2.118,0,0,1,0,1.9.67.67,0,0,1-.7.4H73.5a1.929,1.929,0,0,1-1-.3A.842.842,0,0,1,72.1,60.9Z" transform="translate(-17.7 -9.025)" fill="#834ba2"/><path d="M90,93a10,10,0,1,1,10-10h0A9.965,9.965,0,0,1,90,93Zm0-17a7,7,0,1,0,7,7h0A7.086,7.086,0,0,0,90,76Z" transform="translate(-17.7 -9.025)" fill="#834ba2"/><path d="M106.9,83a16.9,16.9,0,0,0-33.8,0,16.7,16.7,0,0,0,6,12.9v21.2a1.613,1.613,0,0,0,.3.9,1.461,1.461,0,0,0,2.1.3l8.5-6.7,8.5,6.7a1.4,1.4,0,0,0,.9.3.908.908,0,0,0,.7-.3,1.34,1.34,0,0,0,.8-1.3V95.9A16.55,16.55,0,0,0,106.9,83ZM76.1,83A13.87,13.87,0,0,1,90,69.1,14.133,14.133,0,0,1,103.9,83a13.9,13.9,0,0,1-27.8,0Zm21.8,31-7-5.5a1.5,1.5,0,0,0-1.8,0l-7,5.5V97.9a17.449,17.449,0,0,0,7.9,2h.2A16.554,16.554,0,0,0,97.9,98Z" transform="translate(-17.7 -9.025)" fill="#834ba2"/><path d="M59.9,103.4h-.3c-11-2.5-26.2-12.3-34.1-26.2-7.8-13.8-7.8-31.6-7.8-48.8a1.538,1.538,0,0,1,1.5-1.5C38.8,26.9,58.8,9.6,59,9.4a1.521,1.521,0,0,1,2,0c.2.2,20.1,17.5,39.8,17.5a1.538,1.538,0,0,1,1.5,1.5,203.127,203.127,0,0,1-.9,22.1,100.577,100.577,0,0,1-2.2,12.2,1.492,1.492,0,1,1-2.9-.7h0q1.35-5.85,2.1-11.7A172.36,172.36,0,0,0,99.3,30c-10.4-.4-20.5-5.1-27.3-9.1a88.5,88.5,0,0,1-12-8.3,98.558,98.558,0,0,1-12,8.3c-6.8,4-16.9,8.7-27.3,9.1,0,16.3.2,33.1,7.4,45.9,7.3,12.9,21.7,22.3,31.8,24.7a43.513,43.513,0,0,0,9.2-3.8,1.476,1.476,0,1,1,1.4,2.6h0a45.635,45.635,0,0,1-10.2,4.2A.4.4,0,0,0,59.9,103.4Z" transform="translate(-17.7 -9.025)" fill="#834ba2"/></svg>