<svg xmlns="http://www.w3.org/2000/svg" viewBox="0 0 53.02 44.02"><path d="M42,0H5A3.75,3.75,0,0,0,1,4V29a3.75,3.75,0,0,0,4,4H26a1,1,0,0,0,0-2H5a1.79,1.79,0,0,1-2-2V9H44v7a1,1,0,0,0,2,0V4A3.75,3.75,0,0,0,42,0ZM3,7V4A1.79,1.79,0,0,1,5,2H42a1.79,1.79,0,0,1,2,2V7Z" transform="translate(-1)" fill="#c1aa95"/><circle cx="5.5" cy="4.5" r="1.5" fill="#c1aa95"/><circle cx="9.5" cy="4.5" r="1.5" fill="#c1aa95"/><circle cx="13.5" cy="4.5" r="1.5" fill="#c1aa95"/><path d="M15.21,19.5a7.29,7.29,0,0,0,4.11,6.56l-3.48-9.53A7.35,7.35,0,0,0,15.21,19.5Zm12.21-.37a3.83,3.83,0,0,0-.6-2,3.4,3.4,0,0,1-.71-1.71,1.25,1.25,0,0,1,1.22-1.29h.09a7.29,7.29,0,0,0-11,1.37h.47c.76,0,1.94-.09,1.94-.09a.3.3,0,0,1,.05.6s-.4,0-.84.07L20.69,24l1.59-4.79-1.13-3.11c-.4,0-.77-.07-.77-.07a.3.3,0,0,1,.05-.6s1.2.09,1.92.09,1.94-.09,1.94-.09a.3.3,0,0,1,.05.6s-.4,0-.83.07l2.63,7.84.73-2.43A6.76,6.76,0,0,0,27.42,19.13Zm-4.79,1-2.19,6.35a7,7,0,0,0,2.06.3,7.19,7.19,0,0,0,2.42-.41.47.47,0,0,1-.05-.1ZM28.9,16a5.78,5.78,0,0,1,.05.75,6.82,6.82,0,0,1-.56,2.61L26.17,25.8A7.3,7.3,0,0,0,28.9,16Z" transform="translate(-1)" fill="#c1aa95"/><path d="M14,19.5A8.5,8.5,0,1,0,22.5,11,8.51,8.51,0,0,0,14,19.5Zm.39,0a8.11,8.11,0,1,1,8.11,8.11A8.12,8.12,0,0,1,14.39,19.5Z" transform="translate(-1)" fill="#c1aa95"/><circle cx="42" cy="33" r="10" fill="#edddc5"/><path d="M42,44A12,12,0,1,1,54,32,12,12,0,0,1,42,44Zm0-22A10,10,0,1,0,52,32,10,10,0,0,0,42,22Z" transform="translate(-1)" fill="#c1aa95"/><path d="M39.29,32.71a1,1,0,0,0,1.42,0,1,1,0,0,0,0-1.42L39.41,30H48a1,1,0,0,0,0-2H39.41l1.3-1.29a1,1,0,0,0-1.42-1.42l-3,3a1,1,0,0,0,0,1.42Z" transform="translate(-1)" fill="#c1aa95"/><path d="M45.71,31.29a1,1,0,0,0-1.42,1.42L45.59,34H37a1,1,0,0,0,0,2h8.59l-1.3,1.29a1,1,0,0,0,0,1.42,1,1,0,0,0,1.42,0l3-3a1,1,0,0,0,0-1.42Z" transform="translate(-1)" fill="#c1aa95"/></svg>
