<svg xmlns="http://www.w3.org/2000/svg" viewBox="0 0 121.26 113.12"><path fill="#e4cdac" d="M32.54 109.12a4 4 0 1 1-4-4 4 4 0 0 1 4 4m18.6.2a3 3 0 1 1-3-3 3 3 0 0 1 3 3m-34.53-9.01a6 6 0 1 1-6-6 6 6 0 0 1 6 6"></path><path fill="#edddc5" d="M120.65 64.53l.61-.62v-14a.61.61 0 0 0-.61-.62h-15.53a1.72 1.72 0 0 1 .75-.17l.62-.62H26l-.31 25v9.53a.63.63 0 0 0 .62.63h2.15v4.68c0 .62.31.62.62.62l88.77.31a.61.61 0 0 0 .61-.62v-5h2.16a.62.62 0 0 0 .61-.63V69.21c0-.62-.3-.62-.61-.62a2.18 2.18 0 0 1-1.85-2.19 1.86 1.86 0 0 1 1.88-1.87z"></path><path fill="#e4cdac" d="M105.23 24a1.22 1.22 0 0 1-1.23-1.22 9.57 9.57 0 0 0-9.56-9.56 1.22 1.22 0 1 1 0-2.44A9.57 9.57 0 0 0 104 1.22a1.22 1.22 0 1 1 2.44 0 9.57 9.57 0 0 0 9.56 9.56 1.22 1.22 0 0 1 0 2.44 9.57 9.57 0 0 0-9.56 9.56 1.22 1.22 0 0 1-1.21 1.22zm-5.52-12a12.05 12.05 0 0 1 5.52 5.52 12.14 12.14 0 0 1 5.52-5.52 12.1 12.1 0 0 1-5.52-5.52A12 12 0 0 1 99.71 12z"></path><path fill="none" stroke="#c1aa95" stroke-width="3px" stroke-miterlimit="10" d="M88.19 76.38h-66V64.17a4.34 4.34 0 0 0 2.81-4.1 3.75 3.75 0 0 0-2.81-3.79v-12h95.69v12a4.13 4.13 0 0 0-2.56 4.07 4.53 4.53 0 0 0 2.56 3.82v12.21H88.19zm26.34 1.38v5.62H24.55v-5.62"></path><path fill="none" stroke="#c1aa95" stroke-width="3px" stroke-linecap="round" stroke-linejoin="round" d="M31.87 82.15v-2.07m7.32 2.07v-2.07m7.32 2.07v-2.07m7.31 2.07v-2.07m7.32 2.07v-2.07m7.32 2.07v-2.07m7.31 2.07v-2.07m7.32 2.07v-2.07m7.31 2.07v-2.07m7.32 2.07v-2.07m7.32 2.07v-2.07"></path><path fill="none" stroke="#c1aa95" stroke-width="3px" stroke-linejoin="round" d="M37.27 50.78h8.19v19.16h-8.19zm14.31 0h8.19v19.16h-8.19zm14.31 0h8.19v19.16h-8.19zm14.31 0h8.19v19.16H80.2zm14.31 0h8.19v19.16h-8.19z"></path><path fill="none" stroke="#c1aa95" stroke-width="3px" stroke-miterlimit="10" d="M16.63 59.54H1.5V47.33a4.34 4.34 0 0 0 2.81-4.1 3.76 3.76 0 0 0-2.81-3.8v-12h95.69v11.39M3.91 60.91v5.62h12.72"></path><path fill="none" stroke="#c1aa95" stroke-width="3px" stroke-linecap="round" stroke-linejoin="round" d="M11.24 65.31v-2.08"></path><path fill="none" stroke="#c1aa95" stroke-width="3px" stroke-linejoin="round" d="M16.63 38.82v-4.88h8.19v4.88m6.12 0v-4.88h8.19v4.88m6.12 0v-4.88h8.19v4.88m6.12 0v-4.88h8.19v4.88m6.12 0v-4.88h8.19v4.88"></path></svg>