<svg xmlns="http://www.w3.org/2000/svg" viewBox="0 0 31.975 22.2"><path fill="#cdb184" d="M18.7 20.972a3.222 3.222 0 0 1-.677-1.9h-6.076a3.222 3.222 0 0 1-.677 1.9c-.652.665-1.673 1.228.1 1.228h7.23c1.774 0 .753-.563.1-1.228zM6.586 2.756h16v2h-16zm0 3.985h7v2h-7zm9 0h7v2h-7zm-9 3h7v1h-7zm9 0h7v1h-7zm-9 2h7v1h-7zm9 0h7v1h-7zm0 2h7v1h-7zM31.375 7.4h-5.25l.574-.649a.6.6 0 1 0-.9-.794L24.343 7.6a.586.586 0 0 0-.042.072.6.6 0 0 0-.054.081.321.321 0 0 0-.012.033.566.566 0 0 0-.022.1.655.655 0 0 0-.017.1v.035a.655.655 0 0 0 .017.095.546.546 0 0 0 .022.1.321.321 0 0 0 .012.033.6.6 0 0 0 .054.081.586.586 0 0 0 .042.072l1.457 1.637a.6.6 0 0 0 .449.2.591.591 0 0 0 .4-.151.6.6 0 0 0 .052-.846l-.575-.65h5.251a.6.6 0 1 0 0-1.2z"></path><path fill="#cdb184" d="M28.463 9.6v6.617H1.29V1.106h27.173V6.4h1.29V.838A.84.84 0 0 0 28.875 0H.949A.9.9 0 0 0 0 .838v16.94a.933.933 0 0 0 .947.829h27.928a.865.865 0 0 0 .876-.829V9.6z"></path></svg>