<svg xmlns="http://www.w3.org/2000/svg" viewBox="0 0 110 109.2"><title>presentational-cloudflare</title><path d="M95,61.9a1.34,1.34,0,0,1-1.3-.8,50.851,50.851,0,0,0-3.9-6.3A1.5,1.5,0,1,1,92.2,53a42.853,42.853,0,0,1,4.2,6.8,1.489,1.489,0,0,1-.6,2c-.3,0-.5.1-.8.1Z" transform="translate(-9 -9.4)" fill="#d45e2a"/><path d="M76.2,43.4a1.854,1.854,0,0,1-.7-.2,60,60,0,0,0-17-5.8,54.679,54.679,0,0,0-15.1-.6c-.3,0-2.9.4-3.3.5a1.483,1.483,0,0,1-1.8-1.2,1.441,1.441,0,0,1,1.2-1.8c.5-.1,3.2-.5,3.6-.5a61.343,61.343,0,0,1,16,.6A63.185,63.185,0,0,1,77,40.5a1.489,1.489,0,0,1,.6,2,1.508,1.508,0,0,1-1.4.9Z" transform="translate(-9 -9.4)" fill="#d45e2a"/><path d="M39.8,71.5a1.34,1.34,0,0,1-1.3-.8c-1.1-2.2-2.2-4.5-3.1-6.8a83.37,83.37,0,0,1-4.5-15.5,1.53,1.53,0,0,1,3-.6v.1a70.532,70.532,0,0,0,4.3,14.9c.9,2.2,1.9,4.5,3,6.6a1.489,1.489,0,0,1-.6,2c-.3,0-.5.1-.8.1Z" transform="translate(-9 -9.4)" fill="#d45e2a"/><path d="M62.4,95.5a1.268,1.268,0,0,1-.6-.1,40.832,40.832,0,0,1-12.5-9.3,1.487,1.487,0,0,1,2.2-2,39.706,39.706,0,0,0,11.6,8.7,1.4,1.4,0,0,1,.7,2A2.1,2.1,0,0,1,62.4,95.5Z" transform="translate(-9 -9.4)" fill="#d45e2a"/><path d="M53.9,76.7a1.538,1.538,0,0,1-1.5-1.5,1.568,1.568,0,0,1,.9-1.4,60,60,0,0,0,11.1-6.1A53.676,53.676,0,0,0,78,54a1.512,1.512,0,0,1,2.5,1.7A54.782,54.782,0,0,1,66.1,70.1a62.285,62.285,0,0,1-11.6,6.4A1.421,1.421,0,0,1,53.9,76.7Z" transform="translate(-9 -9.4)" fill="#d45e2a"/><path d="M82.5,18.2c-.1-.1-.2-.1-.3-.2A46.346,46.346,0,0,0,55.3,9.4a47.4,47.4,0,0,0-14.2,2.2c-.1,0-.1,0-.2.1A46.3,46.3,0,0,0,55.3,102a50.351,50.351,0,0,0,6.7-.5,1.513,1.513,0,0,0-.4-3,44.573,44.573,0,0,1-6.3.5h0A43.283,43.283,0,0,1,17.5,76.8c4.3,2.7,9.7,4.1,16.4,4.1h1.2a1.5,1.5,0,0,0,0-3c-8.7.2-15.1-1.9-19.5-6.5h0a2.506,2.506,0,0,0-.7-.4,43.461,43.461,0,0,1-2.6-12.1,1.012,1.012,0,0,0,.4-.7A27.059,27.059,0,0,1,23.2,44.3l.1-.1a1.5,1.5,0,0,0-1.8-2.4,28.757,28.757,0,0,0-9.1,9.9A42.624,42.624,0,0,1,35.2,17.4,31.252,31.252,0,0,0,31,28.2,1.483,1.483,0,0,0,32.2,30h.3A1.593,1.593,0,0,0,34,28.8c1.4-6.8,4.5-12,8.3-14.3a44.467,44.467,0,0,1,13.2-2.1,43.361,43.361,0,0,1,25.1,8,25.291,25.291,0,0,1,4,16.9,1.4,1.4,0,0,0,1.3,1.6h.2a1.514,1.514,0,0,0,1.5-1.3,26.9,26.9,0,0,0-1.3-12.3A43.1,43.1,0,0,1,98.8,55.7a38.663,38.663,0,0,1-.3,4.8v.1a1.5,1.5,0,1,0,3,.2,45.329,45.329,0,0,0,.3-5.2h0A47.173,47.173,0,0,0,82.5,18.2Z" transform="translate(-9 -9.4)" fill="#d45e2a"/><circle cx="35.5" cy="68.4" r="4.2" fill="#d45e2a"/><circle cx="75.8" cy="37.4" r="4.2" fill="#d45e2a"/><circle cx="21.8" cy="29.3" r="4.2" fill="#d45e2a"/><circle cx="86.8" cy="86" r="23.2" fill="#f9dac3"/><path d="M76.1,93.3V87.7a4.19,4.19,0,0,1,4.7-4.6,5.056,5.056,0,0,1,3.5,1.1A3.155,3.155,0,0,1,85.6,87a1.689,1.689,0,0,1-.3,1,1.929,1.929,0,0,1-1,.3c-.9,0-1.3-.3-1.3-.8a.9.9,0,0,0-.1-.5c0-.2-.1-.3-.2-.5a2.186,2.186,0,0,0-.3-.5,2.092,2.092,0,0,0-.6-.4,2.92,2.92,0,0,0-.9-.2c-1.4,0-2.1.8-2.1,2.3v5.6c0,1.5.7,2.3,2.2,2.3a4.253,4.253,0,0,0,1.1-.2.9.9,0,0,0,.6-.6,4.875,4.875,0,0,0,.3-.7,1.7,1.7,0,0,0,.1-.7c0-.6.5-.8,1.3-.8a1.689,1.689,0,0,1,1,.3,1.314,1.314,0,0,1,.3,1,3.935,3.935,0,0,1-1.3,2.9,5.419,5.419,0,0,1-3.5,1.1,4.808,4.808,0,0,1-3.4-1.1A3.747,3.747,0,0,1,76.1,93.3Z" transform="translate(-9 -9.4)" fill="#d45e2a"/><path d="M87.3,97V83.9a.864.864,0,0,1,.3-.6.778.778,0,0,1,.8-.2H92a5.056,5.056,0,0,1,3.5,1.1,4.517,4.517,0,0,1,1.3,3.5v5.5a4.517,4.517,0,0,1-1.3,3.5A4.908,4.908,0,0,1,92,97.8H88.4a1.884,1.884,0,0,1-.8-.2A.713.713,0,0,1,87.3,97Zm2.6-1.5H92c1.4,0,2.1-.8,2.1-2.3V87.7c0-1.5-.7-2.3-2.1-2.3H89.9Z" transform="translate(-9 -9.4)" fill="#d45e2a"/><path d="M99,97V83.9a.548.548,0,0,1,.4-.6,2.92,2.92,0,0,1,.9-.2,2.016,2.016,0,0,1,1.1.3,2.1,2.1,0,0,1,.8,1.1l3.9,7.5V83.9a.548.548,0,0,1,.4-.6,2.118,2.118,0,0,1,1.9,0,.675.675,0,0,1,.4.6V97a.675.675,0,0,1-.4.6,1.486,1.486,0,0,1-.9.2A1.562,1.562,0,0,1,106,97l-4.3-8.1V97a.675.675,0,0,1-.4.6,1.91,1.91,0,0,1-1.8,0A.634.634,0,0,1,99,97Z" transform="translate(-9 -9.4)" fill="#d45e2a"/><path d="M92.1,114.4a24,24,0,1,1,24-24h0A24.07,24.07,0,0,1,92.1,114.4Zm0-44.9a21,21,0,1,0,21,21h0A21.062,21.062,0,0,0,92.1,69.5Z" transform="translate(-9 -9.4)" fill="#d45e2a"/></svg>