<svg xmlns="http://www.w3.org/2000/svg" viewBox="0 0 64 64"><path fill="#A6E5EE" d="M46.7 63.9H24c-8.7 0-15.8-7.1-15.8-15.8V25.4c0-8.7 7.1-15.8 15.8-15.8h22.7c8.7 0 15.8 7.1 15.8 15.8v22.7c0 8.7-7.1 15.8-15.8 15.8z"></path><path fill="#474340" d="M19.3 4.1h18.9c.4 0 .7-.3.7-.7 0-.4-.3-.7-.7-.7H19.3c-.4.1-.6.3-.7.7 0 .3.3.7.7.7zM42.3 15.6c2.2 0 4.1-1.8 4.1-4.1 0-2-1.5-3.7-3.4-4V.7c0-.4-.3-.7-.7-.7s-.7.3-.7.7v6.8c-1.9.3-3.4 2-3.4 4 0 2.2 1.9 4.1 4.1 4.1zm0-6.8c1.5 0 2.7 1.2 2.7 2.7s-1.2 2.7-2.7 2.7-2.7-1.2-2.7-2.7 1.2-2.7 2.7-2.7z"></path><path fill="#474340" d="M50.4 2.7h-4c-.4 0-.7.3-.7.7 0 .4.3.7.7.7h4c2.6 0 4.8 2.1 4.8 4.8V19H2.4V8.8C2.4 6.2 4.5 4 7.2 4h4c.4 0 .7-.3.7-.7 0-.4-.3-.7-.7-.7h-4C3.8 2.7 1 5.4 1 8.8v43.3c0 3.4 2.7 6.1 6.1 6.1h43.3c3.4 0 6.1-2.7 6.1-6.1V8.8c0-3.4-2.7-6.1-6.1-6.1zm4.8 49.4c0 2.6-2.1 4.8-4.8 4.8H7.1c-2.6 0-4.8-2.1-4.8-4.8V20.3h52.8v31.8z"></path><path fill="#474340" d="M15.2 15.6c2.2 0 4.1-1.8 4.1-4.1 0-2-1.5-3.7-3.4-4V.7c0-.4-.3-.7-.7-.7-.4 0-.7.3-.7.7v6.8c-1.9.3-3.4 2-3.4 4 .1 2.2 1.9 4.1 4.1 4.1zm0-6.8c1.5 0 2.7 1.2 2.7 2.7s-1.2 2.7-2.7 2.7-2.7-1.2-2.7-2.7 1.2-2.7 2.7-2.7zM28.2 45.5c-.2.2-.3.5-.3.8 0 .3.1.6.3.9.2.2.5.4.8.4.3 0 .6-.1.8-.3.2-.2.3-.5.3-.9 0-.3-.1-.6-.4-.8-.3-.6-1-.6-1.5-.1zM26.2 34.2c.1-.9.4-1.5.9-2 .6-.5 1.3-.7 2.3-.7 1 0 1.8.2 2.4.7.6.4.8 1.1.8 2 0 .5-.1 1-.3 1.4-.2.4-.4.7-.6 1-.3.3-.6.6-1.1 1-.5.4-.9.8-1.2 1.1-.3.4-.6.8-.8 1.3-.2.5-.3 1.1-.3 1.9v.3h1.5v-.3c0-.8.2-1.4.5-1.9s.9-1 1.6-1.6c.5-.4.9-.8 1.2-1.2.3-.3.6-.8.8-1.3.2-.5.3-1.1.3-1.8 0-1.3-.4-2.4-1.3-3.1-.9-.7-2-1-3.4-1s-2.5.4-3.3 1.1c-.9.7-1.3 1.7-1.4 3.1v.3l1.5.1-.1-.4z"></path></svg>