<svg xmlns="http://www.w3.org/2000/svg" viewBox="0 0 64 64"><path d="M53.245 3.206a.981.981 0 0 0-1.469.073l-8.451 9.7A5.98 5.98 0 0 0 42 15.845a2.655 2.655 0 0 0 .074 1.323L31.2 28.484 18.929 15.771l.22-1.1A7.717 7.717 0 0 0 16.8 8.57l-.076-.07c-1.91-1.841-4.482-1.987-7.124-2.061-2.278-.073-4.629-.147-6.025-1.617A1.047 1.047 0 0 0 2.1 4.749a1.021 1.021 0 0 1-.22.294c-1.837 3.086-1.4 7.642.441 11.316a14.177 14.177 0 0 0 3.012 4.115 8.7 8.7 0 0 0 4.115 2.2 6.282 6.282 0 0 0 3.087-.074l12.64 12.2L5.261 55.526a1.065 1.065 0 0 0 0 1.543l3.6 3.6a1.065 1.065 0 0 0 1.543 0l20.869-20.06 19.253 18.517a1.116 1.116 0 0 0 1.47 0l3.674-3.674a1.116 1.116 0 0 0 0-1.47L37.3 34.8l11.39-10.949a2.953 2.953 0 0 0 1.4.074 5.464 5.464 0 0 0 2.793-1.323l9.846-8.524a1.115 1.115 0 0 0 0-1.469c-3.164-3.084-6.324-6.464-9.484-9.403zM9.89 20.621a6.835 6.835 0 0 1-3.159-1.763 12.278 12.278 0 0 1-2.5-3.454A11.169 11.169 0 0 1 3.2 7.247C5.041 8.423 7.318 8.5 9.523 8.57s4.409.221 5.732 1.47l.073.073a5.39 5.39 0 0 1 1.617 4.409 6.172 6.172 0 0 1-1.911 4.042v.073C13.2 20.4 11.507 20.915 9.89 20.621zm-.22 37.77L7.539 56.26l19.179-19.987 3.013 2.866zm43.722-3.674l-2.131 2.131L14.593 21.65a7.347 7.347 0 0 0 1.907-1.543h.073a11.266 11.266 0 0 0 1.543-2.131zM35.756 33.26l-3.086-3.233 10.582-11.022 3.6 3.6zm15.726-12.271a3.293 3.293 0 0 1-1.69.808 1.462 1.462 0 0 1-.809-.074 56.815 56.815 0 0 0-4.7-4.7 1.206 1.206 0 0 1-.147-.882 3.813 3.813 0 0 1 .809-1.764l7.642-8.818 1.469 1.47L52 9.378a1.049 1.049 0 0 0 .147 1.47 1.069 1.069 0 0 0 1.543-.073L55.6 8.5l1.763 1.837-4.776 4.115a1.068 1.068 0 0 0-.074 1.543.982.982 0 0 0 1.47.073l4.917-4.191 1.47 1.4z"></path></svg>