<svg xmlns="http://www.w3.org/2000/svg" viewBox="0 0 64 64"><path d="M60.3 28l-5.65-7.764a4.326 4.326 0 0 0-3.558-1.722 4.379 4.379 0 0 0-.552.066 4.193 4.193 0 0 0-1.666-4.109l-7.781-5.652a4.155 4.155 0 0 0-4.393-.328 4.127 4.127 0 0 0-2.822-3.4l-9.135-2.974A4.9 4.9 0 0 0 23.5 1.9a4.269 4.269 0 0 0-3.06 1.3A4.154 4.154 0 0 0 16.7.859H7.1a4.178 4.178 0 0 0-4.18 4.166v48.752a4.177 4.177 0 0 0 4.18 4.166h4.5l2.61 3.619a4.125 4.125 0 0 0 2.705 1.667 4.247 4.247 0 0 0 .682.055 4.149 4.149 0 0 0 2.437-.791l39.308-28.655A4.194 4.194 0 0 0 60.3 28zM5.252 14.522v-9.5A1.81 1.81 0 0 1 7.1 3.217h9.6a1.764 1.764 0 0 1 1.8 1.807v9.5zM18.5 53.777a1.764 1.764 0 0 1-1.8 1.807H7.1a1.789 1.789 0 0 1-1.85-1.807v-9.522H18.5zm6.414-3.108l-2.573 3.549 1.418-4.388zm-4.061-6.631V32.131l5.6 1.817-3.484 10.773zm3.658 3.456l3.689-11.35 4.728 3.45-6.639 9.172zm-2.28-.539l-1.378 4.236V46.5zm-1.378-17.3V17.743l9.8 3.194-3.487 10.772zm20.1-1.155l-6.639 9.171-5.367-3.86 3.685-11.351zM38.7 10.351a1.946 1.946 0 0 1 1.037.366l7.76 5.631a1.876 1.876 0 0 1 .4 2.585l-5.567 7.679-8.917-6.512 2.207-6.844 1.543-2.134a1.793 1.793 0 0 1 1.537-.771zm-17.843 4.911V8.148l.843-2.614a1.831 1.831 0 0 1 1.573-1.279 1.93 1.93 0 0 1 .723.1l9.145 2.977a1.814 1.814 0 0 1 1.177 2.308l-2.929 9.06zm4.624 38.6l.836 1.158-3.517 2.547zm11.881-6.892l-9.143 6.655-1.266-1.757 6.969-9.638zm5-16.394l6.047 8.365-9.144 6.659-3.893-5.362zm10.384-8.965l5.646 7.789a1.836 1.836 0 0 1-.4 2.558l-7.707 5.589-6.5-8.965 4.183-5.768L50.19 21.2a1.993 1.993 0 0 1 1.023-.35 1.838 1.838 0 0 1 1.535.761zm-47.5 20.31V30.568H18.5v11.353zm0-13.687V16.88H18.5v11.354z"></path></svg>