<svg xmlns="http://www.w3.org/2000/svg" viewBox="0 0 64 64"><path fill="#25b8d2" d="M63.77,17.75c-.59-1.41-2.65-1.59-4.39-1.59a52.68,52.68,0,0,0-8.13.88L38.46,22.38l-2.1-1,4.06-1.71-.9-2.15-6,2.5-2.08-1,4.11-1.72-.91-2.15-6,2.51-2-1L30,15.29a3,3,0,1,0-2.32-5.54l-11,4.61a3,3,0,0,0,1.16,5.77h0a2.7,2.7,0,0,0,.63-.07l3.8,9.1-5.42,2.26L9.22,25.8.7,29.37l6.23,7.54.93,4,2.37,3.83,1,9.76L19.68,51l.07,0,1.34-9.37,5.43-2.27,3.8,9.09A3,3,0,0,0,32,53.93a3.06,3.06,0,0,0,1.15-.23l11-4.62a3,3,0,0,0,1.61-3.92,3,3,0,0,0-3.93-1.61L38.5,44.94l.73-2.15,6-2.51-.9-2.15-4.08,1.71L41,37.66l5.94-2.49L46,33l-4,1.7.74-2.16,12.61-5.28.2-.11C63.31,21.71,64.31,19,63.77,17.75ZM31.71,50.31l5.74-2.4,0,0h0l5.22-2.19a.8.8,0,0,1,.26-.05.68.68,0,0,1,.62.41.67.67,0,0,1-.36.87l-11,4.61a.66.66,0,0,1-.5,0,.7.7,0,0,1-.37-.37A.67.67,0,0,1,31.71,50.31Zm.74-2.84-3.78-9,11.16-4.67L35.62,46.14ZM13.24,51.16l-.62-6,6-2.5-.95,6.67Zm4.81-33.41a.6.6,0,0,1-.24.05.65.65,0,0,1-.61-.41.68.68,0,0,1,.35-.88l11-4.61a.75.75,0,0,1,.26-.05.67.67,0,0,1,.25,1.28l-5.23,2.19Zm5.74.13,11.8,5.7L24.41,28.26l-3.79-9Zm37.72.83c-.55,1.15-3.78,4-7.21,6.46L11.82,43l-1.73-2.73-.73-3.14L51.81,19.3a52.66,52.66,0,0,1,7.57-.81A7.28,7.28,0,0,1,61.51,18.71ZM8.9,28.47l5.42,4-6,2.5L4.51,30.31Z"></path></svg>