<svg xmlns="http://www.w3.org/2000/svg" viewBox="0 0 64 64"><title>icons-64x64</title><path d="M52,10H12a3,3,0,0,0-3,3V51a3,3,0,0,0,3,3H31V52H12a1,1,0,0,1-1-1V21H53V34h2V13A3,3,0,0,0,52,10ZM11,19V13a1,1,0,0,1,1-1H52a1,1,0,0,1,1,1v6Z"/><circle cx="14.5" cy="15.5" r="1.5"/><circle cx="19.5" cy="15.5" r="1.5"/><circle cx="24.5" cy="15.5" r="1.5"/><path d="M24,49V24H14V49ZM16,26h6V47H16Z"/><path d="M37,24H27v7H37Zm-2,5H29V26h6Z"/><path d="M40,24v7H50V24Zm8,5H42V26h6Z"/><rect x="27" y="35" width="2" height="14"/><polygon points="50.59 37 43.52 44.07 36.44 37 35.03 38.41 42.1 45.48 35.03 52.56 36.44 53.97 43.52 46.9 50.59 53.97 52 52.56 44.93 45.48 52 38.41 50.59 37"/></svg>