<svg xmlns="http://www.w3.org/2000/svg" viewBox="0 0 64 64"><path d="M51,34.24a1.18,1.18,0,1,0-1.18,1.18A1.18,1.18,0,0,0,51,34.24Z"></path><path d="M44.24,33.06a1.18,1.18,0,1,0,1.18,1.18A1.18,1.18,0,0,0,44.24,33.06Z"></path><path d="M34.26,39.82a1.18,1.18,0,1,0,1.18-1.18A1.18,1.18,0,0,0,34.26,39.82Z"></path><path d="M41,41a1.18,1.18,0,1,0-1.18-1.18A1.18,1.18,0,0,0,41,41Z"></path><path d="M38.66,33.06a1.18,1.18,0,1,0,1.18,1.18A1.18,1.18,0,0,0,38.66,33.06Z"></path><path d="M53.93,36.23A8.77,8.77,0,1,0,62.7,45,8.79,8.79,0,0,0,53.93,36.23Zm0,15.54A6.77,6.77,0,1,1,60.7,45,6.78,6.78,0,0,1,53.93,51.77Z"></path><polygon points="54.96 41.27 52.96 41.27 52.96 44 50.1 44 50.1 46 52.96 46 52.96 48.99 54.96 48.99 54.96 46 57.82 46 57.82 44 54.96 44 54.96 41.27"></polygon><path d="M6.43,37A4.58,4.58,0,1,0,11,32.43,4.58,4.58,0,0,0,6.43,37Zm7.15,0A2.58,2.58,0,1,1,11,34.43,2.58,2.58,0,0,1,13.58,37Z"></path><path d="M49.82,17.06A1.18,1.18,0,1,0,51,18.24,1.18,1.18,0,0,0,49.82,17.06Z"></path><path d="M44.24,17.06a1.18,1.18,0,1,0,1.18,1.18A1.18,1.18,0,0,0,44.24,17.06Z"></path><path d="M35.44,22.64a1.18,1.18,0,1,0,1.18,1.18A1.18,1.18,0,0,0,35.44,22.64Z"></path><path d="M41,22.64a1.18,1.18,0,1,0,1.18,1.18A1.18,1.18,0,0,0,41,22.64Z"></path><path d="M46.6,22.64a1.18,1.18,0,1,0,1.18,1.18A1.18,1.18,0,0,0,46.6,22.64Z"></path><path d="M55.4,17.06a1.18,1.18,0,1,0,1.18,1.18A1.18,1.18,0,0,0,55.4,17.06Z"></path><path d="M52.18,22.64a1.18,1.18,0,1,0,1.18,1.18A1.18,1.18,0,0,0,52.18,22.64Z"></path><path d="M38.66,17.06a1.18,1.18,0,1,0,1.18,1.18A1.18,1.18,0,0,0,38.66,17.06Z"></path><path d="M60.46,11.91H3.54A2.57,2.57,0,0,0,1,14.48v13A2.53,2.53,0,0,0,1.5,29,2.53,2.53,0,0,0,1,30.48v13A2.57,2.57,0,0,0,3.54,46H42.62V44H3.54A.54.54,0,0,1,3,43.44v-13a.54.54,0,0,1,.3-.49l.23,0H60.46l.23,0a.54.54,0,0,1,.3.49V37h2V30.48A2.53,2.53,0,0,0,62.5,29,2.53,2.53,0,0,0,63,27.43V14.48A2.57,2.57,0,0,0,60.46,11.91ZM61,27.43a.55.55,0,0,1-.3.5l-.23,0H3.54l-.23,0a.55.55,0,0,1-.3-.5V14.48a.54.54,0,0,1,.53-.55H60.46a.54.54,0,0,1,.53.55Z"></path><path d="M11,16.43A4.58,4.58,0,1,0,15.58,21,4.58,4.58,0,0,0,11,16.43Zm0,7.15A2.58,2.58,0,1,1,13.58,21,2.57,2.57,0,0,1,11,23.58Z"></path></svg>