<svg xmlns="http://www.w3.org/2000/svg" viewBox="0 0 32 30.353"><path d="M25.238 1.65H6.762a.536.536 0 0 0-.528.445L4.4 12.749a.825.825 0 0 1-1.623-.272L4.6 1.805A2.182 2.182 0 0 1 6.762 0h18.476a2.182 2.182 0 0 1 2.155 1.815l1.831 10.662a.8252.8252 0 0 1-1.627.277L25.776 2.082a.535.535 0 0 0-.538-.432zm-3.355 19.152a.826.826 0 0 0-.934.7l-.277 1.923a.352.352 0 0 1-.346.3h-8.648a.353.353 0 0 1-.35-.3l-.277-1.923a.825.825 0 1 0-1.633.237l.281 1.93a2.009 2.009 0 0 0 1.979 1.716h8.644a2.01 2.01 0 0 0 1.978-1.708l.3-1.934a.824.824 0 0 0-.7-.934zm9.205-4.84a3.548 3.548 0 0 1 .894 2.732l-.894 8.75a3.244 3.244 0 0 1-3.237 2.91H4.149a3.244 3.244 0 0 1-3.236-2.923l-.894-8.737a3.539 3.539 0 0 1 3.162-3.881 3.289 3.289 0 0 1 .358-.019h24.923a3.552 3.552 0 0 1 2.626 1.168zm-1.231 1.105a1.865 1.865 0 0 0-1.4-.623H3.539a1.891 1.891 0 0 0-1.89 1.891c0 .063 0 .127.009.191l.894 8.751a1.6 1.6 0 0 0 1.6 1.429h23.7a1.6 1.6 0 0 0 1.6-1.442l.894-8.746a1.869 1.869 0 0 0-.489-1.451zM22.7 5.19a.825.825 0 0 0 0-1.65H9.29a.825.825 0 0 0 0 1.65zM7.927 7.863a.824.824 0 0 0 .825.824h14.507a.825.825 0 0 0 0-1.649H8.742a.824.824 0 0 0-.815.825zm-.716 3.49a.825.825 0 0 0 .825.824h15.929a.825.825 0 0 0 0-1.65H8.036a.825.825 0 0 0-.825.826z"></path></svg>