<svg xmlns="http://www.w3.org/2000/svg" viewBox="0 0 64 64"><title>icons-64x64</title><rect x="35" y="26" width="2" height="2"/><rect x="25" y="26" width="2" height="2"/><rect x="35" y="36" width="2" height="2"/><rect x="25" y="36" width="2" height="2"/><path d="M47.41,14.51l-.06-.07,0,0a23.94,23.94,0,0,0-32.61,0l0,0-.06.08a24,24,0,1,0,32.82,0ZM53,31H43a47,47,0,0,0-.93-8.58A4,4,0,0,0,44,19c0-.12,0-.23,0-.35a17.59,17.59,0,0,0,2.75-2A21.88,21.88,0,0,1,53,31ZM45.24,15.25a15,15,0,0,1-2,1.48A4,4,0,0,0,40,15c-.12,0-.23,0-.35,0a16.8,16.8,0,0,0-2.84-4.26A22,22,0,0,1,45.24,15.25ZM21.16,35.81A4,4,0,0,0,23.86,33H30v5.14a4,4,0,0,0-3,3.47,24.28,24.28,0,0,0-4.77,1.18A41.79,41.79,0,0,1,21.16,35.81ZM30,20a24.6,24.6,0,0,1-7-1.22c1.64-4.82,4.14-8,7-8.63Zm0,2v9H23.86a4,4,0,0,0-2.7-2.81,41.12,41.12,0,0,1,1.24-7.52A26.67,26.67,0,0,0,30,22Zm2,0a27.88,27.88,0,0,0,4.83-.56A4,4,0,0,0,40,23h.13A45.41,45.41,0,0,1,41,31H32Zm4-3a4.36,4.36,0,0,0,0,.52A26.4,26.4,0,0,1,32,20V10.11c2.15.46,4.15,2.41,5.74,5.59A4,4,0,0,0,36,19ZM21.13,18a17.88,17.88,0,0,1-4.37-2.75,21.89,21.89,0,0,1,8.46-4.47A19.76,19.76,0,0,0,21.13,18ZM22,32a2,2,0,1,1-2-2A2,2,0,0,1,22,32Zm9,8a2,2,0,1,1-2,2A2,2,0,0,1,31,40Zm-3.67,3.58A4,4,0,0,0,30,45.86v8c-3-.63-5.57-4-7.19-9.16A21.73,21.73,0,0,1,27.33,43.58Zm-2.09,9.65a22,22,0,0,1-8.69-4.66A17,17,0,0,1,21,45.51,20.26,20.26,0,0,0,25.24,53.23ZM32,53.9v-8a4,4,0,0,0,2.67-2.28,22.55,22.55,0,0,1,4.52,1.15C37.58,49.82,35,53.27,32,53.9Zm9-8.38a17.23,17.23,0,0,1,4.42,3,22,22,0,0,1-8.68,4.66A20.43,20.43,0,0,0,41,45.52ZM35,41.61a4,4,0,0,0-3-3.47V33h9a44.58,44.58,0,0,1-1.24,9.79A24.57,24.57,0,0,0,35,41.61ZM40,21a2,2,0,1,1,2-2A2,2,0,0,1,40,21ZM15.29,16.62A18.91,18.91,0,0,0,20.53,20a42.88,42.88,0,0,0-1.37,8.14,4,4,0,0,0-3,2.91H9A21.88,21.88,0,0,1,15.29,16.62ZM9,33h7.11a4,4,0,0,0,3,2.91,43.56,43.56,0,0,0,1.24,7.64,18.32,18.32,0,0,0-5.29,3.64A21.86,21.86,0,0,1,9,33ZM46.89,47.19a18.25,18.25,0,0,0-5.28-3.63A45.17,45.17,0,0,0,43,33H53A21.86,21.86,0,0,1,46.89,47.19Z"/></svg>