<svg xmlns="http://www.w3.org/2000/svg" viewBox="0 0 18 18"><path d="M12.4,17.2h-3v-1.3l-1,1l-2.1-2.2l0.9-0.9H5.9v-3h1.3l-0.9-1l2.1-2.2l1,1V7.2h3v1.3l1-1l2.1,2.1l-0.9,1h1.3v3h-1.3l0.9,0.9 l-2.1,2.2l-1-1V17.2z M10.4,16.2h1v-1l1.3-0.4l0.7,0.7l0.7-0.7l-0.7-0.7l0.3-1.3h1v-1h-1l-0.3-1.2l0.7-0.8L13.4,9l-0.7,0.8l-1.3-0.4 V8.2h-1v1.1L9.1,9.7L8.4,9L7.7,9.7l0.7,0.8l-0.3,1.2h-1v1h1L8.4,14l-0.7,0.7l0.7,0.7l0.7-0.7l1.3,0.4L10.4,16.2z"></path><path d="M4.7,12.7c-1.1,0-2.2-0.4-3-1.2c-0.8-0.8-1.2-1.9-1.2-3c0-0.8,0.2-1.6,0.7-2.3c0.4-0.6,0.8-1,1.4-1.4l0,0 c0-1.3,0.5-2.5,1.4-3.4C4.9,0.5,6.1,0,7.4,0c1,0,1.9,0.3,2.7,0.8c0.6,0.4,1.1,1,1.4,1.6l1.2-0.3c0.7,0,1.4,0.3,1.9,0.8 c0.5,0.5,0.8,1.2,0.8,1.9c0,0.3-0.1,0.5-0.2,0.8c0.6,0.2,1.1,0.6,1.5,1.1c0.5,0.7,0.8,1.5,0.8,2.3h-1c0-0.6-0.2-1.2-0.6-1.6 c-0.4-0.5-0.9-0.9-1.5-1l-0.7-0.2l0.4-0.6c0.2-0.2,0.3-0.5,0.3-0.8c0-0.5-0.2-0.9-0.5-1.2C13.3,3,12.4,3,11.7,3.5L11.2,4l-0.3-0.7 C10.6,2.6,10.1,2,9.5,1.6C8.9,1.2,8.1,1,7.4,1c-1,0-2,0.4-2.7,1.1C4,2.8,3.6,3.8,3.6,4.8v0.6L3.3,5.6C2.7,5.8,2.3,6.3,2,6.8 C1.7,7.3,1.5,7.9,1.5,8.5c0,0.9,0.3,1.7,0.9,2.3c0.6,0.6,1.4,0.9,2.3,0.9V12.7z"></path><path d="M10.9,14.2c-1.1,0-2-0.9-2-2s0.9-2,2-2s2,0.9,2,2S12,14.2,10.9,14.2z M10.9,11.2c-0.5,0-1,0.5-1,1c0,0.6,0.4,1,1,1 c0.5,0.1,0.9-0.3,1-0.8c0-0.1,0-0.1,0-0.2C11.9,11.6,11.5,11.2,10.9,11.2z"></path></svg>