<svg xmlns="http://www.w3.org/2000/svg" viewBox="0 0 64 64"><path d="M58.916,15.187l-5.5-5.5A1,1,0,1,0,52,11.1l1.92,1.92-3.851,3.852a24.709,24.709,0,0,0-16.152-6.455V4h5.534a1,1,0,0,0,0-2H26.381a1,1,0,0,0,0,2h5.533v6.447a24.6,24.6,0,0,0-16.16,7.308,1,1,0,0,0,1.422,1.407,22.8,22.8,0,1,1,.432,32.5,1,1,0,1,0-1.383,1.444,24.79,24.79,0,0,0,35.26-34.831l3.846-3.846L57.5,16.6a1,1,0,1,0,1.414-1.414Z"></path><path d="M33.914,21.044V17.855a1,1,0,0,0-2,0v3.189a1,1,0,0,0,2,0Z"></path><path d="M31.914,50.046v3.189a1,1,0,0,0,2,0V50.046a1,1,0,0,0-2,0Z"></path><path d="M42.5,45.119a1,1,0,0,0,0,1.414l2.255,2.255a1,1,0,1,0,1.414-1.414l-2.255-2.255A1,1,0,0,0,42.5,45.119Z"></path><path d="M50.979,36.529a1,1,0,0,0,0-2H47.791a1,1,0,0,0,0,2Z"></path><path d="M5.226,26.776H18.759a1,1,0,0,0,0-2H5.226a1,1,0,1,0,0,2Z"></path><path d="M19.759,45.192a1,1,0,0,0-1-1H5.226a1,1,0,1,0,0,2H18.759A1,1,0,0,0,19.759,45.192Z"></path><path d="M7.386,35.484a1,1,0,0,0,1,1H21.92a1,1,0,0,0,0-2H8.386A1,1,0,0,0,7.386,35.484Z"></path><path d="M28.59,35.619a4.685,4.685,0,1,0,9.37,0,4.639,4.639,0,0,0-1.024-2.888l8.1-8.1a1,1,0,0,0-1.414-1.414l-8.241,8.242a4.628,4.628,0,0,0-2.108-.524A4.69,4.69,0,0,0,28.59,35.619Zm4.684-2.686a2.686,2.686,0,1,1-2.684,2.686A2.689,2.689,0,0,1,33.274,32.933Z"></path></svg>