<svg xmlns="http://www.w3.org/2000/svg" viewBox="0 0 64 64"><path d="M57.236 5.176h-16.6V2.088a1.3 1.3 0 0 0-1.3-1.3H24.662a1.3 1.3 0 0 0-1.3 1.3v3.088H6.764a1.3 1.3 0 0 0-1.3 1.3V36.81a1.3 1.3 0 0 0 1.3 1.3h8.278v.673a1.3 1.3 0 0 0 1.3 1.3h10.551L17.77 60.809a1.3 1.3 0 0 0 1.185 1.819 1.3 1.3 0 0 0 1.189-.774l9.582-21.778h.949v21.836a1.3 1.3 0 0 0 2.594 0V40.076h1.005l9.583 21.778a1.326 1.326 0 0 0 1.709.665 1.3 1.3 0 0 0 .665-1.709l-9.124-20.734h10.554a1.3 1.3 0 0 0 1.3-1.3v-.673h8.278a1.3 1.3 0 0 0 1.3-1.3V6.473a1.3 1.3 0 0 0-1.303-1.297zM46.364 37.483H17.636v-1.525h28.727zM25.959 4.908V3.384h12.082v1.524zm21.7 28.457h-31.32a1.3 1.3 0 0 0-1.3 1.3v.851H8.061V7.77H55.94v27.743h-6.982v-.851a1.3 1.3 0 0 0-1.297-1.297z"></path><path d="M38.462 17.339a1.291 1.291 0 0 0-1.068-.624 1.333 1.333 0 0 0-1.1.555L31.6 24l-5.59-9.21a1.287 1.287 0 0 0-1.06-.622 1.229 1.229 0 0 0-1.113.554l-9.708 13.941a1.3 1.3 0 1 0 2.128 1.482l8.573-12.308 7.43 12.24a1.336 1.336 0 0 0 1.781.435 1.3 1.3 0 0 0 .436-1.782l-1.4-2.308 4.2-6.035 5.881 9.69a1.3 1.3 0 0 0 2.218-1.347zm5.01-6.905a3.815 3.815 0 1 0 3.814 3.815 3.819 3.819 0 0 0-3.814-3.815zm1.221 3.815a1.222 1.222 0 1 1-1.221-1.222 1.222 1.222 0 0 1 1.221 1.222z"></path></svg>