<svg xmlns="http://www.w3.org/2000/svg" viewBox="0 0 64 64"><path fill="#96cb4c" d="M62.89,44a1.3,1.3,0,0,0-1.71-.69L57.27,45h-5V42.81H54c4,0,9,0,9-6.65,0-5.92-11.9-13.78-17.34-13.78H40.43V19.05H59.62a1.31,1.31,0,0,0,0-2.61H19.23a1.31,1.31,0,0,0,0,2.61H37.82v3.33h-26L7.48,16.93a1.3,1.3,0,0,0-1-.49H2.31a1.3,1.3,0,0,0-1.17,1.89L4.5,25.06l-1.1,5.5a1.28,1.28,0,0,0,.27,1.08,1.32,1.32,0,0,0,1,.48H8.24a1.31,1.31,0,0,0,.93-.39l1.3-1.3L29,33.7A10.22,10.22,0,0,0,36,42.32V45H29a1.31,1.31,0,0,0,0,2.61H57.54a1.3,1.3,0,0,0,.51-.11l4.16-1.78A1.3,1.3,0,0,0,62.89,44ZM59,33.07H52.49c-3.92,0-7.5-3.77-7.86-8.08h1C49.06,25,56,29.29,59,33.07Zm-27.45-.48a1.3,1.3,0,0,0-1.07-1.28l-20.2-3.57H10a1.3,1.3,0,0,0-.93.38l-1.4,1.4H6.27l.88-4.38A1.28,1.28,0,0,0,7,24.29L4.42,19.05H5.84l4.35,5.45a1.32,1.32,0,0,0,1,.49H42v.18a1.33,1.33,0,0,0,.08.45c.65,5.5,5.25,10.06,10.43,10.06h7.85a2.61,2.61,0,0,1,0,.48c0,3.56-1.29,4-6.42,4H39.13A7.61,7.61,0,0,1,31.52,32.59Zm7.13,10.19.48,0H49.7V45H38.65Z"></path></svg>