<svg xmlns="http://www.w3.org/2000/svg" viewBox="0 0 59.4 64"><path d="M37.4,20.6A6.6,6.6,0,0,0,44,13.9a6.5,6.5,0,0,0-6.6-6.6,6.6,6.6,0,0,0-6.7,6.6,6.7,6.7,0,0,0,6.7,6.7Zm0-11.3a4.7,4.7,0,1,1-4.7,4.6,4.7,4.7,0,0,1,4.7-4.6Z" transform="translate(-2.3)"></path><path d="M30.6,22.1s-6.7.1-6.7,6.3V36H37.1Zm-4.7,6.3c0-2.9,2.1-3.8,3.5-4.2L33.9,34h-8Z" transform="translate(-2.3)"></path><path d="M50.9,36V28.4c0-6.2-6.8-6.3-6.8-6.3L37.7,36ZM45.3,24.2c1.5.4,3.5,1.3,3.5,4.2V34H40.8Z" transform="translate(-2.3)"></path><path d="M37.4,22.1H32.8l4.6,10.2L42,22.1Z" transform="translate(-2.3)"></path><path d="M10.1,64,27.3,46.9A25.1,25.1,0,0,0,37.2,49,24.5,24.5,0,1,0,12.7,24.5a23.9,23.9,0,0,0,5.7,15.6L2.3,56.2ZM37.2,2A22.5,22.5,0,1,1,14.7,24.5,22.5,22.5,0,0,1,37.2,2ZM25.4,45.9,10.1,61.2l-4.9-5L19.7,41.6a23.7,23.7,0,0,0,5.7,4.3Z" transform="translate(-2.3)"></path></svg>