<svg xmlns="http://www.w3.org/2000/svg" viewBox="0 0 64 64"><title>icons-64x64</title><path d="M15.5,32A10.5,10.5,0,1,0,5,21.5,10.5,10.5,0,0,0,15.5,32Zm0-19A8.5,8.5,0,1,1,7,21.5,8.51,8.51,0,0,1,15.5,13Z"/><path d="M48.5,32A10.5,10.5,0,1,0,38,21.5,10.5,10.5,0,0,0,48.5,32Zm0-19A8.5,8.5,0,1,1,40,21.5,8.51,8.51,0,0,1,48.5,13Z"/><rect x="24" y="48" width="16" height="2"/><path d="M18,49a5,5,0,0,1,5-5h7V42H23a7,7,0,0,0,0,14h7V54H23A5,5,0,0,1,18,49Z"/><path d="M41,42H34v2h7a5,5,0,0,1,0,10H34v2h7a7,7,0,0,0,0-14Z"/><path d="M15,34a13.07,13.07,0,0,1,10.9,6h2.33a15.25,15.25,0,0,0-6.39-6.31A12.83,12.83,0,0,0,15.43,32h-.86a12.83,12.83,0,0,0-6.41,1.69A15.1,15.1,0,0,0,0,47.07V53H14.7a7.6,7.6,0,0,1-.62-2H2V47.07A13.09,13.09,0,0,1,15,34Z"/><path d="M55.84,33.69A12.83,12.83,0,0,0,49.43,32h-.86a12.83,12.83,0,0,0-6.41,1.69A15.25,15.25,0,0,0,35.77,40H38.1A13,13,0,0,1,62,47.07V51H49.92a7.6,7.6,0,0,1-.62,2H64V47.07A15.1,15.1,0,0,0,55.84,33.69Z"/></svg>