<svg xmlns="http://www.w3.org/2000/svg" viewBox="0 0 64 64"><title>icons-64x64</title><path d="M38.51,55.8,32,52.47,25.49,55.8l-4-6.14-7.31-.37L13.84,42,7.7,38,11,31.5,7.7,25l6.14-4,.37-7.31,7.31-.37,4-6.14L32,10.53,38.51,7.2l4,6.14,7.31.37L50.16,21l6.14,4L53,31.5,56.3,38l-6.14,4-.37,7.31-7.31.37ZM32,50.22l5.81,3,3.55-5.49,6.52-.33.33-6.52,5.49-3.55-3-5.81,3-5.81-5.49-3.55-.33-6.52-6.52-.33L37.81,9.8l-5.81,3-5.81-3-3.55,5.49-6.52.33-.33,6.52L10.3,25.69l3,5.81-3,5.81,5.49,3.55.33,6.52,6.52.33,3.55,5.49Z"/><path d="M26.34,31.24a5,5,0,1,1,3.54-1.46h0A5,5,0,0,1,26.34,31.24Zm0-8a3,3,0,1,0,2.12.88A3,3,0,0,0,26.34,23.24Z"/><path d="M37.66,42.56a5,5,0,1,1,3.53-1.47A5,5,0,0,1,37.66,42.56Zm0-8a3,3,0,0,0-2.12,5.12,3.08,3.08,0,0,0,4.24,0,3,3,0,0,0-2.12-5.12Z"/><rect x="19" y="30.9" width="26" height="2" transform="translate(-13.18 31.97) rotate(-45)"/></svg>