<svg xmlns="http://www.w3.org/2000/svg" viewBox="0 0 22.44 32"><path d="M8.44,23.94a1,1,0,1,0,1,1A1,1,0,0,0,8.44,23.94Z" transform="translate(-4.78)"></path><path d="M8.44,2a1,1,0,1,0,1,1A1,1,0,0,0,8.44,2Z" transform="translate(-4.78)"></path><path d="M23.92,24.11a1,1,0,1,0,1,1A1,1,0,0,0,23.92,24.11Z" transform="translate(-4.78)"></path><path d="M23.92,2.14a1,1,0,1,0,1,1A1,1,0,0,0,23.92,2.14Z" transform="translate(-4.78)"></path><path d="M23.76,0H8.24A3.46,3.46,0,0,0,4.78,3.46V28.54A3.46,3.46,0,0,0,8.24,32H23.76a3.46,3.46,0,0,0,3.46-3.46V3.46A3.46,3.46,0,0,0,23.76,0Zm-18,28.54V27.32A3.44,3.44,0,0,0,8.24,28.4H9.73V31H8.24A2.5,2.5,0,0,1,5.75,28.54ZM21.14,31H18.42V28.4h2.72Zm-3.69,0H14.73V28.4h2.72Zm-3.69,0H10.7V28.4h3.06Zm12.49-2.49A2.5,2.5,0,0,1,23.76,31H22.11V28.4h1.65a3.44,3.44,0,0,0,2.49-1.08Zm0-3.61a2.5,2.5,0,0,1-2.49,2.5H8.24a2.5,2.5,0,0,1-2.49-2.5V3.8A2.5,2.5,0,0,1,8.24,1.3H23.76a2.5,2.5,0,0,1,2.49,2.5Z" transform="translate(-4.78)"></path><path d="M21.75,12.71a.52.52,0,0,0-.42-.35L18,11.89,16.46,9A.51.51,0,0,0,16,8.69a.49.49,0,0,0-.45.26L14,11.89l-3.37.47a.51.51,0,0,0-.28.88l2.43,2.29-.57,3.21a.5.5,0,0,0,.2.51.52.52,0,0,0,.54,0l3-1.53,3,1.53a.48.48,0,0,0,.24.06.53.53,0,0,0,.31-.11.53.53,0,0,0,.19-.49l-.57-3.22,2.44-2.3A.59.59,0,0,0,21.75,12.71ZM18.28,15a.5.5,0,0,0-.15.46l.44,2.49-2.34-1.18a.47.47,0,0,0-.46,0l-2.34,1.18.44-2.48a.51.51,0,0,0-.15-.46l-1.86-1.75,2.58-.36a.49.49,0,0,0,.38-.27L16,10.31l1.17,2.29a.5.5,0,0,0,.38.27l2.58.36Z" transform="translate(-4.78)"></path></svg>