<svg xmlns="http://www.w3.org/2000/svg" viewBox="0 0 64 64"><title>icons-64x64</title><rect x="26.64" y="18.84" width="4" height="2" transform="translate(-1.13 37.94) rotate(-66.03)"/><path d="M21.33,21l-1.75-.78A1,1,0,1,0,18.77,22l1.75.78a1,1,0,0,0,.4.09,1,1,0,0,0,.92-.59A1,1,0,0,0,21.33,21Z"/><path d="M25.7,22.91,24,22.13A1,1,0,0,0,23.14,24l1.74.78a1,1,0,0,0,.41.08,1,1,0,0,0,.41-1.91Z"/><path d="M31.88,27.85l1.74.78a1,1,0,0,0,.82-1.83L32.69,26a1,1,0,0,0-1.32.51A1,1,0,0,0,31.88,27.85Z"/><path d="M29.66,26.77a1,1,0,0,0,.41-1.91l-1.75-.78a1,1,0,1,0-.81,1.82l1.74.78A1,1,0,0,0,29.66,26.77Z"/><path d="M60.89,42,58.2,35l-.48-.14a3.69,3.69,0,0,1-2.64-2.41,3.59,3.59,0,0,1,.34-3.54l.28-.43-2.69-7a2.15,2.15,0,0,0-2.58-1.15l-9.36,3.59,2.29-5.14a2.16,2.16,0,0,0-1-2.65L35.49,13l-.44.25a3.71,3.71,0,0,1-3.57.16,3.63,3.63,0,0,1-2.26-2.74l-.11-.51-6.85-3a1.92,1.92,0,0,0-1.49,0,2,2,0,0,0-1.16,1l-4.88,11h0L5.78,39.21a2.16,2.16,0,0,0,1,2.65l6.91,3.07.46-.32a3.8,3.8,0,0,1,3.49-.11,3.77,3.77,0,0,1,2.26,2.65l.06.57,3,1.33h0l2.48,6.32a2.19,2.19,0,0,0,2,1.26,1.7,1.7,0,0,0,.59-.1l20.2-7.62h0a1.13,1.13,0,0,0,.36-.06,1.17,1.17,0,0,0,.3-.19l10.89-4.11A2.16,2.16,0,0,0,60.89,42Zm-42.41.71a5.86,5.86,0,0,0-5,0l-5.84-2.6A.43.43,0,0,1,7.64,40l8.51-19.1a1,1,0,0,0,.4.08A1,1,0,0,0,17,19h0l4.44-10a.25.25,0,0,1,.11,0l5.87,2.61a5.59,5.59,0,0,0,3.29,3.65,5.67,5.67,0,0,0,4.91,0l5.87,2.61a.61.61,0,0,1,0,.12L37.06,28h0a1,1,0,0,0-.82,1.83l-8.5,19.1-.12.05-5.83-2.6A6.07,6.07,0,0,0,18.48,42.68Zm40.47,0L48.72,46.58a1,1,0,0,0-1.84.69L27.34,54.64l-.11,0-1.73-4.4,1.38.61a1.69,1.69,0,0,0,.7.15,2.21,2.21,0,0,0,2-1.16l10-22.44a1,1,0,0,0,.42.1,1.13,1.13,0,0,0,.36-.06,1,1,0,0,0,.57-1.3h0l10.19-3.91.11.05,2.3,6a5.58,5.58,0,0,0-.25,4.91,5.62,5.62,0,0,0,3.47,3.46l2.3,6A.25.25,0,0,1,59,42.72Z"/><rect x="46.55" y="33.93" width="4" height="2" transform="translate(-9.29 19.72) rotate(-21)"/><path d="M47,42.17a1,1,0,1,0-1.86.71l.68,1.79a1,1,0,0,0,.93.64,1.09,1.09,0,0,0,.36-.06,1,1,0,0,0,.58-1.3Z"/><path d="M44.3,35l-.69-1.78a1,1,0,1,0-1.86.72l.68,1.78a1,1,0,0,0,.94.64,1.13,1.13,0,0,0,.36-.06A1,1,0,0,0,44.3,35Z"/><path d="M46,39.49l-.68-1.79a1,1,0,0,0-1.87.72l.69,1.79a1,1,0,0,0,.93.64.92.92,0,0,0,.36-.07A1,1,0,0,0,46,39.49Z"/><path d="M42.59,30.56l-.69-1.79a1,1,0,0,0-1.87.72l.69,1.79a1,1,0,0,0,.93.64.92.92,0,0,0,.36-.07A1,1,0,0,0,42.59,30.56Z"/></svg>