<svg xmlns="http://www.w3.org/2000/svg" viewBox="0 0 32 25.7"><path d="M20.7,24a4.7,4.7,0,1,0-9.4,0v3.1H6.1V15.2L4.3,16.6V28a.9.9,0,0,0,1,.9H12a1,1,0,0,0,1-.9V24a2.9,2.9,0,1,1,5.9,0v4c0,.5.6.9,1.1.9h6.8a.9.9,0,0,0,.9-.9V16.6L26,15.2V27.1H20.7Z" transform="translate(0 -3.1)"></path><path d="M31.6,15.4,26,10.9V4.1c0-.5-.3-1-.8-1H22c-.5,0-.7.5-.7,1V7L16.7,3.4l-.6-.2-.6.2L.4,15.4a1.1,1.1,0,0,0-.2,1.3.9.9,0,0,0,.6.3.9.9,0,0,0,.7-.2L16,5.3,30.6,16.8a1,1,0,0,0,.7.2.8.8,0,0,0,.6-.3A1.1,1.1,0,0,0,31.6,15.4ZM24.2,9.5,23,8.4V4.9h1.2Z" transform="translate(0 -3.1)"></path></svg>