<svg xmlns="http://www.w3.org/2000/svg" viewBox="0 0 64 64"><path d="M55.11,5h0a1.27,1.27,0,0,0-.5.1c-5.06,2-8.53,2.7-11.59,2.29C39.65,7,36.56,5.18,33,1.59a1.24,1.24,0,0,0-1-.4,1.33,1.33,0,0,0-.94.39C27.45,5.18,24.35,7,21,7.43c-3.06.41-6.52-.27-11.6-2.27a1.36,1.36,0,0,0-1.76.78,1.23,1.23,0,0,0-.1.49c0,16.52.61,27.09,3.74,35.62C14.54,51,20.55,57.28,31.35,63.17a1.26,1.26,0,0,0,.65.17,1.34,1.34,0,0,0,.65-.17C43.45,57.28,49.46,51,52.73,42c3.13-8.54,3.73-19.12,3.74-35.65A1.36,1.36,0,0,0,55.11,5ZM50.18,41.11c-3,8-8.39,13.81-18.18,19.28-.47-.26-.92-.53-1.37-.79a1.84,1.84,0,0,0,.09-.53A1.44,1.44,0,0,0,30.3,58a1.49,1.49,0,0,0-1-.46H29.2a1.49,1.49,0,0,0-1.08.5l-.72-.48a1.52,1.52,0,0,0,.6-1.22,1.46,1.46,0,0,0-.42-1.06,1.5,1.5,0,0,0-1-.46h-.05a1.49,1.49,0,0,0-1.4,1.09c-.34-.26-.69-.52-1-.79a1.5,1.5,0,0,0,1.22-1.5,1.46,1.46,0,0,0-.42-1.06,1.5,1.5,0,0,0-1.05-.46h0a1.52,1.52,0,0,0-1.06.46,1.47,1.47,0,0,0-.41,1q-.64-.57-1.23-1.17h0a1.52,1.52,0,0,0,1.5-1.53,1.5,1.5,0,0,0-1.48-1.51h0a1.43,1.43,0,0,0-1.05.45,1.52,1.52,0,0,0-.42,1c-.33-.38-.66-.77-1-1.16a1.52,1.52,0,0,0,1.24-1.5,1.5,1.5,0,0,0-1.47-1.52h-.06a1.48,1.48,0,0,0-1,.45,1.55,1.55,0,0,0-.26.37l-.51-.79a1.52,1.52,0,0,0,.62-1.23A1.5,1.5,0,0,0,15.65,44h0a1.41,1.41,0,0,0-.54.11c-.45-1-.87-1.94-1.25-3-.27-.73-.51-1.5-.74-2.28a1.5,1.5,0,0,0,1.33-1.51A1.44,1.44,0,0,0,14,36.26a1.49,1.49,0,0,0-1-.46h-.06a1.58,1.58,0,0,0-.57.13c-.22-1-.43-2-.61-3.13a1.22,1.22,0,0,0,.15.17,1.44,1.44,0,0,0,1.05.44h0a1.5,1.5,0,0,0,1.5-1.53,1.49,1.49,0,0,0-1.48-1.51h0a1.48,1.48,0,0,0-1.39,1.05c-.06-.41-.12-.84-.17-1.26a1.56,1.56,0,0,0,.36-1,1.47,1.47,0,0,0-.62-1.23c-.09-.92-.18-1.86-.25-2.83a1.52,1.52,0,0,0,.87-1.38,1.48,1.48,0,0,0-.42-1.07,1.64,1.64,0,0,0-.63-.38c-.05-.81-.09-1.65-.12-2.5a1.51,1.51,0,0,0,1.17-1.49,1.49,1.49,0,0,0-1.27-1.49c0-.8,0-1.61-.06-2.44a1.49,1.49,0,0,0,1.33-1.51,1.47,1.47,0,0,0-1.37-1.5c0-1,0-2,0-3,.6.22,1.18.41,1.74.59a1.53,1.53,0,0,0-.62,1.27,1.5,1.5,0,1,0,3,0,1.53,1.53,0,0,0-.12-.6,23.28,23.28,0,0,0,2.57.51s0,.08,0,.12a1.5,1.5,0,0,0,3,.07,14.88,14.88,0,0,0,1.51-.12c.32,0,.64-.11,1-.17a1.49,1.49,0,1,0,3,.19,1.47,1.47,0,0,0-.36-1c.29-.12.57-.25.86-.39a1.5,1.5,0,0,0,.73.19h0A1.49,1.49,0,0,0,28,7.5a28.62,28.62,0,0,0,4-3.2c3.74,3.5,7.13,5.35,10.65,5.82,3,.4,6.36-.15,11.05-1.84C53.65,23.15,53,33.32,50.18,41.11Z"></path><path d="M29.24,14.05h0a1.52,1.52,0,0,0-1.47,1.55,1.5,1.5,0,1,0,1.51-1.55Z"></path><path d="M29.24,19.49h0a1.53,1.53,0,0,0,0,3.05h0a1.53,1.53,0,0,0,0-3.05Z"></path><path d="M29.26,24.93H29.2a1.49,1.49,0,1,0,.06,0Z"></path><path d="M30.3,30.82a1.45,1.45,0,0,0-1.06-.45h0a1.52,1.52,0,0,0,0,3h0a1.5,1.5,0,0,0,1.49-1.53A1.46,1.46,0,0,0,30.3,30.82Z"></path><path d="M30.3,36.26a1.49,1.49,0,0,0-1-.46H29.2a1.52,1.52,0,0,0-1.47,1.55,1.5,1.5,0,0,0,1.5,1.5h0a1.5,1.5,0,0,0,1.49-1.53A1.44,1.44,0,0,0,30.3,36.26Z"></path><path d="M30.3,41.69a1.53,1.53,0,0,0-1.06-.45h0a1.53,1.53,0,0,0,0,3h0a1.51,1.51,0,0,0,1.49-1.53A1.48,1.48,0,0,0,30.3,41.69Z"></path><path d="M29.23,49.72a1.5,1.5,0,0,0,1.49-1.52,1.49,1.49,0,0,0-1.46-1.52H29.2a1.52,1.52,0,0,0,0,3Z"></path><path d="M27.58,17.23a1.5,1.5,0,0,0-1-.46h-.05a1.53,1.53,0,0,0,0,3.05h0A1.5,1.5,0,0,0,28,18.29,1.44,1.44,0,0,0,27.58,17.23Z"></path><path d="M27.58,22.67a1.49,1.49,0,0,0-1-.46h-.06A1.53,1.53,0,1,0,28,23.73,1.44,1.44,0,0,0,27.58,22.67Z"></path><path d="M27.58,28.1a1.44,1.44,0,0,0-1-.45h-.05a1.52,1.52,0,0,0,0,3h0A1.5,1.5,0,0,0,28,29.17,1.48,1.48,0,0,0,27.58,28.1Z"></path><path d="M27.58,33.54a1.49,1.49,0,0,0-1-.46h-.06A1.52,1.52,0,0,0,25,34.63a1.5,1.5,0,1,0,3,0A1.46,1.46,0,0,0,27.58,33.54Z"></path><path d="M26.51,41.57h0A1.5,1.5,0,0,0,28,40,1.44,1.44,0,0,0,27.58,39a1.5,1.5,0,0,0-1-.46h-.05a1.53,1.53,0,0,0,0,3Z"></path><path d="M26.51,47h0A1.5,1.5,0,0,0,28,45.48a1.48,1.48,0,0,0-.42-1.07,1.53,1.53,0,0,0-1-.45h-.05a1.52,1.52,0,0,0,0,3Z"></path><path d="M23.79,17.1a1.5,1.5,0,0,0,1.49-1.53,1.46,1.46,0,0,0-.42-1.06,1.5,1.5,0,0,0-1.05-.46h0a1.52,1.52,0,0,0-1.06.46,1.54,1.54,0,0,0-.42,1.09A1.5,1.5,0,0,0,23.79,17.1Z"></path><path d="M23.81,19.49h0a1.51,1.51,0,0,0-1.05.45,1.55,1.55,0,0,0-.43,1.1,1.5,1.5,0,0,0,1.5,1.5h0A1.5,1.5,0,0,0,25.28,21,1.44,1.44,0,0,0,24.86,20,1.48,1.48,0,0,0,23.81,19.49Z"></path><path d="M24.86,25.38a1.5,1.5,0,0,0-1-.45h-.06a1.49,1.49,0,0,0-1,.45,1.55,1.55,0,0,0-.43,1.1,1.5,1.5,0,1,0,3,0A1.48,1.48,0,0,0,24.86,25.38Z"></path><path d="M23.77,30.37a1.47,1.47,0,0,0-1.06.45,1.57,1.57,0,0,0-.42,1.1,1.48,1.48,0,0,0,.44,1,1.46,1.46,0,0,0,1.06.44h0a1.5,1.5,0,0,0,1.49-1.53,1.47,1.47,0,0,0-.42-1.06,1.43,1.43,0,0,0-1.05-.45Z"></path><path d="M23.79,38.85h0a1.5,1.5,0,0,0,1.49-1.53,1.44,1.44,0,0,0-.42-1.06,1.47,1.47,0,0,0-1-.46h-.06a1.45,1.45,0,0,0-1,.46,1.52,1.52,0,0,0,1.07,2.59Z"></path><path d="M23.79,44.29h0a1.51,1.51,0,0,0,1.49-1.53,1.44,1.44,0,0,0-.42-1.06,1.48,1.48,0,0,0-1.05-.46h0a1.55,1.55,0,0,0-1.06.45,1.59,1.59,0,0,0-.42,1.1,1.5,1.5,0,0,0,1.5,1.5Z"></path><path d="M21.09,16.77h0a1.48,1.48,0,0,0-1.05.46,1.52,1.52,0,0,0,1.07,2.59h0a1.53,1.53,0,0,0,0-3.05Z"></path><path d="M21.1,22.21H21a1.5,1.5,0,0,0-1,.45,1.55,1.55,0,0,0-.43,1.1,1.5,1.5,0,0,0,1.5,1.5,1.53,1.53,0,0,0,1.5-1.53A1.5,1.5,0,0,0,21.1,22.21Z"></path><path d="M20,30.25a1.46,1.46,0,0,0,1.06.44h0a1.52,1.52,0,0,0,1.5-1.52,1.5,1.5,0,0,0-1.48-1.52h0A1.43,1.43,0,0,0,20,28.1a1.55,1.55,0,0,0-.43,1.1A1.48,1.48,0,0,0,20,30.25Z"></path><path d="M21.07,36.13a1.53,1.53,0,0,0,0-3.05H21a1.47,1.47,0,0,0-1,.46,1.53,1.53,0,0,0,1.07,2.59Z"></path><path d="M21.07,41.57h0a1.53,1.53,0,0,0,0-3h0A1.48,1.48,0,0,0,20,39a1.52,1.52,0,0,0,1.07,2.59Z"></path><path d="M18.35,17.1a1.53,1.53,0,0,0,0-3.05h0a1.53,1.53,0,0,0,0,3.05Z"></path><path d="M18.37,19.49h0a1.53,1.53,0,0,0-1,.45,1.55,1.55,0,0,0-.43,1.1,1.5,1.5,0,0,0,.44,1.06,1.52,1.52,0,0,0,1.06.44h0a1.53,1.53,0,0,0,0-3.05Z"></path><path d="M18.35,28a1.52,1.52,0,0,0,0-3h-.06a1.52,1.52,0,0,0-1,.45,1.55,1.55,0,0,0-.43,1.1A1.5,1.5,0,0,0,18.35,28Z"></path><path d="M17.29,33a1.47,1.47,0,0,0,1.06.44h0a1.51,1.51,0,0,0,1.5-1.53,1.5,1.5,0,0,0-1.48-1.51h0a1.44,1.44,0,0,0-1,.45,1.53,1.53,0,0,0-.43,1.1A1.48,1.48,0,0,0,17.29,33Z"></path><path d="M17.29,38.41a1.52,1.52,0,0,0,1.06.44h0a1.53,1.53,0,0,0,0-3.05h-.06a1.49,1.49,0,0,0-1,.46,1.55,1.55,0,0,0,0,2.15Z"></path><path d="M21.09,44h0a1.47,1.47,0,0,0-1.05.45,1.55,1.55,0,0,0-.43,1.1A1.52,1.52,0,0,0,20,46.57a1.49,1.49,0,0,0,1.06.43h0a1.52,1.52,0,0,0,1.5-1.52A1.5,1.5,0,0,0,21.09,44Z"></path><path d="M15.65,16.77h0a1.51,1.51,0,0,0-1.47,1.55,1.49,1.49,0,0,0,.43,1.06,1.52,1.52,0,0,0,1.06.44h0a1.53,1.53,0,0,0,0-3.05Z"></path><path d="M15.63,25.26a1.52,1.52,0,0,0,1.5-1.53,1.57,1.57,0,0,0-.42-1.07,1.53,1.53,0,0,0-1.05-.45H15.6a1.53,1.53,0,0,0,0,3.05Z"></path><path d="M15.63,30.69h0a1.52,1.52,0,0,0,0-3h0a1.5,1.5,0,0,0-1.47,1.55,1.49,1.49,0,0,0,1.49,1.49Z"></path><path d="M29.23,11.66a1.52,1.52,0,0,0,0-3H29.2a1.52,1.52,0,0,0,0,3Z"></path><path d="M29.24,52.11h0a1.52,1.52,0,0,0-1.47,1.56,1.5,1.5,0,0,0,1.5,1.49h0a1.53,1.53,0,0,0,0-3Z"></path><path d="M27.58,49.85a1.44,1.44,0,0,0-1-.45h-.05a1.52,1.52,0,0,0,0,3h0A1.5,1.5,0,0,0,28,50.92,1.48,1.48,0,0,0,27.58,49.85Z"></path><path d="M24.86,47.13a1.46,1.46,0,0,0-1-.45h-.06a1.44,1.44,0,0,0-1,.45,1.55,1.55,0,0,0-.43,1.1,1.5,1.5,0,1,0,3,0A1.48,1.48,0,0,0,24.86,47.13Z"></path><path d="M18.37,41.24h0a1.53,1.53,0,0,0-1,.45,1.55,1.55,0,0,0-.43,1.1,1.5,1.5,0,0,0,.44,1.06,1.52,1.52,0,0,0,1.06.44h0a1.52,1.52,0,0,0,1.5-1.53A1.5,1.5,0,0,0,18.37,41.24Z"></path><path d="M15.65,38.52h0a1.54,1.54,0,0,0-1,2.61,1.52,1.52,0,0,0,1.06.44h0a1.53,1.53,0,0,0,0-3Z"></path><path d="M15.63,36.13a1.53,1.53,0,0,0,0-3.05H15.6a1.53,1.53,0,0,0,0,3.05Z"></path><path d="M14,25.38a1.52,1.52,0,0,0-1-.45h-.06a1.52,1.52,0,1,0,1.52,1.52A1.48,1.48,0,0,0,14,25.38Z"></path><path d="M12.91,22.54h0A1.5,1.5,0,0,0,14.41,21,1.44,1.44,0,0,0,14,20a1.5,1.5,0,0,0-1.06-.46h0A1.5,1.5,0,0,0,11.42,21a1.46,1.46,0,0,0,.44,1.06A1.48,1.48,0,0,0,12.91,22.54Z"></path><path d="M12.91,17.1a1.53,1.53,0,0,0,0-3.05h0a1.52,1.52,0,0,0-1.47,1.55A1.5,1.5,0,0,0,12.91,17.1Z"></path><path d="M15.63,14.38a1.5,1.5,0,0,0,1.5-1.53,1.54,1.54,0,0,0-.42-1.06,1.44,1.44,0,0,0-1.05-.45H15.6a1.44,1.44,0,0,0-1,.45,1.47,1.47,0,0,0-.42,1.1A1.49,1.49,0,0,0,15.63,14.38Z"></path><path d="M21.07,14.38a1.52,1.52,0,0,0,1.5-1.53,1.49,1.49,0,0,0-1.47-1.51H21a1.42,1.42,0,0,0-1,.45,1.53,1.53,0,0,0-.43,1.1A1.5,1.5,0,0,0,21.07,14.38Z"></path><path d="M26.51,14.38A1.5,1.5,0,0,0,28,12.85a1.47,1.47,0,0,0-.42-1.06,1.44,1.44,0,0,0-1-.45h-.06a1.44,1.44,0,0,0-1.05.45,1.47,1.47,0,0,0-.42,1.1A1.5,1.5,0,0,0,26.51,14.38Z"></path><path d="M32,5.9h0a1.52,1.52,0,0,0,0,3h0a1.5,1.5,0,0,0,1.5-1.52A1.49,1.49,0,0,0,32,5.9Z"></path><path d="M32,11.34h-.06a1.44,1.44,0,0,0-1.05.45,1.47,1.47,0,0,0-.42,1.1,1.5,1.5,0,1,0,3,0A1.46,1.46,0,0,0,33,11.79,1.44,1.44,0,0,0,32,11.34Z"></path><path d="M32,16.77h0a1.53,1.53,0,0,0,0,3.05h0a1.53,1.53,0,0,0,0-3.05Z"></path><path d="M32,22.21h-.06a1.53,1.53,0,1,0,1.52,1.52A1.48,1.48,0,0,0,33,22.66,1.52,1.52,0,0,0,32,22.21Z"></path><path d="M32,27.65h0a1.52,1.52,0,0,0,0,3h0a1.52,1.52,0,0,0,0-3Z"></path><path d="M32,33.08h-.06a1.52,1.52,0,0,0-1.47,1.55,1.5,1.5,0,1,0,3,0A1.46,1.46,0,0,0,33,33.54,1.49,1.49,0,0,0,32,33.08Z"></path><path d="M32,38.52h0a1.53,1.53,0,0,0,0,3h0a1.53,1.53,0,0,0,0-3Z"></path><path d="M32,44h0a1.52,1.52,0,0,0,0,3h0a1.5,1.5,0,0,0,1.5-1.52A1.48,1.48,0,0,0,33,44.41,1.53,1.53,0,0,0,32,44Z"></path><path d="M32,49.4h0a1.52,1.52,0,0,0,0,3h0a1.52,1.52,0,0,0,0-3Z"></path><path d="M32,54.83h0a1.52,1.52,0,0,0-1.47,1.55,1.5,1.5,0,0,0,1.49,1.5h0a1.5,1.5,0,0,0,1.5-1.53A1.44,1.44,0,0,0,33,55.29,1.5,1.5,0,0,0,32,54.83Z"></path></svg>