<svg xmlns="http://www.w3.org/2000/svg" viewBox="0 0 64 64"><title>icons-64x64</title><path d="M55,40A17,17,0,0,0,38,23c-7.12,0-12.93,3.59-15.54,9.6h0c-.14.32-.27.65-.39,1a1,1,0,1,0,1.88.69c.11-.3.22-.59.34-.87h0C26.58,28.14,31.7,25,38,25A15,15,0,0,1,48,51.15V46H46v8h8V52H50A16.91,16.91,0,0,0,55,40Z"/><path d="M22,41.21a1,1,0,0,0,1-1V40a18,18,0,0,1,.09-1.82,1,1,0,0,0-.9-1.09A1,1,0,0,0,21.1,38a19.24,19.24,0,0,0-.1,2v.23a1,1,0,0,0,1,1Z"/><path d="M23.63,44.13a1,1,0,0,0-1.24-.68,1,1,0,0,0-.68,1.25,21.53,21.53,0,0,0,.76,2.11,1,1,0,0,0,.92.61.91.91,0,0,0,.39-.08,1,1,0,0,0,.53-1.3C24.05,45.4,23.82,44.76,23.63,44.13Z"/><path d="M26.25,49.63a1,1,0,1,0-1.66,1.12c.38.56.63.87.63.87A1,1,0,0,0,26,52a1,1,0,0,0,.62-.22,1,1,0,0,0,.16-1.4S26.56,50.1,26.25,49.63Z"/><path d="M11,51V24h8.38A3.62,3.62,0,0,0,23,20.39V12H42a1,1,0,0,1,1,1v7h2V13a3,3,0,0,0-3-3H22.38a3.66,3.66,0,0,0-2.56,1.06l-9.77,9.8A3.61,3.61,0,0,0,9,23.42V51a3,3,0,0,0,3,3h9V52H12A1,1,0,0,1,11,51ZM21,12.72v7.67A1.62,1.62,0,0,1,19.38,22H11.74Z"/><polygon points="39 35 37 35 37 39 33 39 33 41 37 41 37 45 39 45 39 41 43 41 43 39 39 39 39 35"/></svg>