<svg xmlns="http://www.w3.org/2000/svg" viewBox="0 0 32 25"><path d="M16,8.75v1a4,4,0,0,0-4,4H11A5.006,5.006,0,0,1,16,8.75ZM4.5,25.25h8.039v-1H4.5a3.5,3.5,0,1,1,.038-7h0l.071,0a.486.486,0,0,0,.409-.186.5.5,0,0,0,.094-.439A3.488,3.488,0,0,1,8.5,12.25a3.5,3.5,0,0,1,1.1.179.5.5,0,0,0,.637-.336,5.995,5.995,0,0,1,11.525,0,.5.5,0,0,0,.638.337,3.489,3.489,0,0,1,4.483,4.2.5.5,0,0,0,.095.439.508.508,0,0,0,.408.186l.114-.007a3.5,3.5,0,0,1,0,7H19.461v1H27.5a4.5,4.5,0,0,0,.468-8.976A4.248,4.248,0,0,0,28,15.75a4.5,4.5,0,0,0-5.429-4.4,6.994,6.994,0,0,0-13.142,0,4.428,4.428,0,0,0-.929-.1A4.505,4.505,0,0,0,4,15.75a4.323,4.323,0,0,0,.032.524A4.5,4.5,0,0,0,4.5,25.25Zm10,0v-1h-1v1Zm1,0h1v-1h-1Zm2-1v1h1v-1Z" transform="translate(0 -6.75)"></path></svg>