<svg xmlns="http://www.w3.org/2000/svg" viewBox="0 0 64 64"><path d="M51,27.24a1.18,1.18,0,1,0-1.18,1.18A1.18,1.18,0,0,0,51,27.24Z"></path><path d="M44.24,26.06a1.18,1.18,0,1,0,1.18,1.18A1.18,1.18,0,0,0,44.24,26.06Z"></path><path d="M34.26,32.82a1.18,1.18,0,1,0,1.18-1.18A1.18,1.18,0,0,0,34.26,32.82Z"></path><path d="M41,34a1.18,1.18,0,1,0-1.18-1.18A1.18,1.18,0,0,0,41,34Z"></path><path d="M38.66,26.06a1.18,1.18,0,1,0,1.18,1.18A1.18,1.18,0,0,0,38.66,26.06Z"></path><path d="M53.93,29.23A8.77,8.77,0,1,0,62.7,38,8.78,8.78,0,0,0,53.93,29.23Zm0,15.53A6.77,6.77,0,1,1,60.7,38,6.77,6.77,0,0,1,53.93,44.76Z"></path><polygon points="54.96 34.27 52.96 34.27 52.96 37 50.1 37 50.1 39 52.96 39 52.96 41.98 54.96 41.98 54.96 39 57.82 39 57.82 37 54.96 37 54.96 34.27"></polygon><path d="M60.46,20.9H3.54A2.57,2.57,0,0,0,1,23.48v13A2.57,2.57,0,0,0,3.54,39H42.62V37H3.54A.55.55,0,0,1,3,36.43V23.48a.55.55,0,0,1,.53-.56H60.46a.55.55,0,0,1,.53.56V30h2V23.48A2.57,2.57,0,0,0,60.46,20.9Z"></path><path d="M6.43,30A4.58,4.58,0,1,0,11,25.43,4.58,4.58,0,0,0,6.43,30Zm7.15,0A2.58,2.58,0,1,1,11,27.43,2.59,2.59,0,0,1,13.58,30Z"></path></svg>