<svg xmlns="http://www.w3.org/2000/svg" viewBox="0 0 47 47"><title>token</title><path d="M52,10H12a3,3,0,0,0-3,3V51a3,3,0,0,0,3,3H26V52H12a1,1,0,0,1-1-1V21H53v9h2V13A3,3,0,0,0,52,10ZM11,19V13a1,1,0,0,1,1-1H52a1,1,0,0,1,1,1v6Z" transform="translate(-9 -10)"/><circle cx="5.5" cy="5.5" r="1.5"/><circle cx="10.5" cy="5.5" r="1.5"/><circle cx="15.5" cy="5.5" r="1.5"/><path d="M52,40H51V37.67a6,6,0,0,0-12,0V40H38a4,4,0,0,0-4,4v9a4,4,0,0,0,4,4H52a4,4,0,0,0,4-4V44A4,4,0,0,0,52,40ZM41,37.67a4,4,0,0,1,8,0V40H41ZM54,53a2,2,0,0,1-2,2H38a2,2,0,0,1-2-2V44a2,2,0,0,1,2-2H52a2,2,0,0,1,2,2Z" transform="translate(-9 -10)"/><path d="M47.5,46.5a2.5,2.5,0,0,0-5,0,2.47,2.47,0,0,0,1,2h0v3.36A1.06,1.06,0,0,0,44.45,53h1.12a1,1,0,0,0,.93-1.12V48.5h0A2.47,2.47,0,0,0,47.5,46.5Z" transform="translate(-9 -10)"/><polygon points="28 26 5 26 5 14 41 14 41 20 39 20 39 16 7 16 7 24 28 24 28 26"/><path d="M23.41,28.39l-1.08,1.43v0l1.72-.23v.78l-1.72-.21v0l1.09,1.37L22.7,32,22,30.39h0L21.26,32l-.66-.41,1.09-1.4v0L20,30.39v-.78l1.68.22v0l-1.08-1.4.7-.4L22,29.6h0l.7-1.6Z" transform="translate(-9 -10)"/><path d="M28.15,28.39l-1.09,1.43v0l1.73-.23v.78l-1.73-.21v0l1.1,1.37-.72.41-.68-1.6h0L26,32l-.65-.41,1.09-1.4v0l-1.69.22v-.78l1.67.22v0l-1.07-1.4L26,28l.71,1.59h0l.69-1.6Z" transform="translate(-9 -10)"/><path d="M32.89,28.39,31.8,29.82v0l1.73-.23v.78l-1.73-.21v0l1.1,1.37-.72.41-.69-1.6h0L30.73,32l-.65-.41,1.08-1.4v0l-1.69.22v-.78l1.68.22v0l-1.07-1.4.7-.4.7,1.59h0L32.2,28Z" transform="translate(-9 -10)"/><path d="M37.62,28.39l-1.08,1.43v0l1.72-.23v.78l-1.72-.21v0l1.1,1.37-.72.41-.69-1.6h0L35.47,32l-.65-.41,1.08-1.4v0l-1.69.22v-.78l1.68.22v0l-1.07-1.4.69-.4.71,1.59h0l.7-1.6Z" transform="translate(-9 -10)"/></svg>