<svg xmlns="http://www.w3.org/2000/svg" viewBox="0 0 32 29.68"><path d="M29.5,6.53H24V3.66a2.5,2.5,0,0,0-2.5-2.5H10.46A2.5,2.5,0,0,0,8,3.66V6.53H2.5A2.5,2.5,0,0,0,0,9V28.34a2.5,2.5,0,0,0,2.5,2.5h27a2.5,2.5,0,0,0,2.5-2.5V9A2.5,2.5,0,0,0,29.5,6.53ZM9.69,3.66a.77.77,0,0,1,.77-.77H21.54a.77.77,0,0,1,.77.77V6.53H9.69ZM2.5,8.26h27a.77.77,0,0,1,.77.77V15L16.09,18.4,1.73,15V9A.77.77,0,0,1,2.5,8.26Zm27,20.85H2.5a.77.77,0,0,1-.77-.77V16.75l14.16,3.38.2,0,.2,0,14-3.38V28.34A.77.77,0,0,1,29.5,29.11Z" transform="translate(0 -1.16)"></path></svg>