<svg xmlns="http://www.w3.org/2000/svg" viewBox="0 0 29.7 32"><path d="M21.2 18.8a.4.4 0 0 0 .4.5h.1a.4.4 0 0 0 .4-.4c0-.3 1-7-1.4-9.4a.4243.4243 0 0 0-.6.6c2 2.1 1.1 8.7 1.1 8.7z"></path><path d="M27.1 22.7h-1.3v-8.9a11.1 11.1 0 0 0-8-10.7 3.0004 3.0004 0 1 0-6-.1 11.1 11.1 0 0 0-8 10.8v8.9H2.5a2.55 2.55 0 1 0 0 5.1h7.6a4.7 4.7 0 0 0 9.3 0H27a2.55 2.55 0 0 0 0-5.1zM14.8.8a2.1 2.1 0 0 1 2.1 2 10.8 10.8 0 0 0-4.2 0 2.1 2.1 0 0 1 2.1-2zm0 30.3a3.8 3.8 0 0 1-3.8-3.4h7.6a3.8 3.8 0 0 1-3.8 3.5zm12.3-4.2H2.5a1.7 1.7 0 1 1 0-3.4h4.7a.4.4 0 0 0 0-.8H4.6v-8.9a10.2 10.2 0 1 1 20.3 0v8.9H11.8a.4.4 0 1 0 0 .8h15.3a1.7 1.7 0 0 1 0 3.4z"></path></svg>