<svg xmlns="http://www.w3.org/2000/svg" viewBox="0 0 32 21.333"><path d="M16,26.667c-5.964,0-12-1.373-12-4s6.036-4,12-4,12,1.373,12,4S21.964,26.667,16,26.667ZM16,20C9,20,5.333,21.736,5.333,22.667S9,25.333,16,25.333,26.667,23.6,26.667,22.667,23,20,16,20Z" transform="translate(0 -5.333)"></path><path d="M27.333,23.333a.631.631,0,0,1-.111-.009.666.666,0,0,1-.548-.767l1.672-10.033a.668.668,0,0,1,.271-.433.692.692,0,0,1,.5-.115,1.354,1.354,0,0,0,1.551-1.309,1.333,1.333,0,1,0-2.455.713.666.666,0,0,1-.205.92l-2.655,1.689a4.671,4.671,0,0,1-6.117-.981L16.743,9.963a.665.665,0,0,1,.093-.937A1.32,1.32,0,0,0,17.333,8a1.333,1.333,0,1,0-2.171,1.025.666.666,0,0,1,.093.937l-2.492,3.045a4.669,4.669,0,0,1-6.117.981L3.992,12.3a.665.665,0,0,1-.2-.921,1.332,1.332,0,1,0-2.455-.713,1.355,1.355,0,0,0,1.551,1.309.667.667,0,0,1,.768.548L5.324,22.557a.666.666,0,0,1-1.315.219L2.433,13.324A2.674,2.674,0,1,1,5.2,11.489l2.161,1.375a3.333,3.333,0,0,0,4.369-.7l2.121-2.592A2.637,2.637,0,0,1,13.333,8a2.667,2.667,0,0,1,5.333,0,2.64,2.64,0,0,1-.52,1.571l2.121,2.593a3.332,3.332,0,0,0,4.369.7L26.8,11.489a2.665,2.665,0,1,1,2.768,1.835l-1.576,9.452A.665.665,0,0,1,27.333,23.333Z" transform="translate(0 -5.333)"></path></svg>