<svg xmlns="http://www.w3.org/2000/svg" viewBox="0 0 64 64"><title>icons-64x64</title><path d="M11,41V39.74l0,0,9.84-9.13,3.37,5.05a1,1,0,0,0,.76.44,1,1,0,0,0,.81-.32L38,22.45l3.26,3.26a1,1,0,0,0,1.42-1.42l-4-4A1.09,1.09,0,0,0,38,20a1,1,0,0,0-.72.32l-12,13.15-3.31-5a1,1,0,0,0-1.52-.18L11,37V13a1,1,0,0,1,1-1H48a1,1,0,0,1,1,1V23h2V13a3,3,0,0,0-3-3H38V9a1,1,0,0,0-2,0v1H24V9a1,1,0,0,0-2,0v1H12a3,3,0,0,0-3,3V41a3,3,0,0,0,3,3H22V55h2V44H36V55h2V42H12A1,1,0,0,1,11,41Z"/><path d="M16,20a6,6,0,1,0,6-6A6,6,0,0,0,16,20Zm10,0a4,4,0,1,1-4-4A4,4,0,0,1,26,20Z"/><circle cx="48" cy="32" r="2"/><path d="M53,25h-6.8a2.06,2.06,0,0,0-1.44.6L35.6,34.83a2,2,0,0,0,0,2.88l6.69,6.69a2,2,0,0,0,2.87,0l9.24-9.15a2,2,0,0,0,.6-1.43V27A2,2,0,0,0,53,25Zm0,8.85L43.75,43h0L37,36.24,46.17,27,53,27Z"/></svg>