<svg xmlns="http://www.w3.org/2000/svg" viewBox="0 0 32 32"><path d="M29.6,0H2.4A2.4,2.4,0,0,0,0,2.4V29.6A2.4,2.4,0,0,0,2.4,32H29.6A2.4,2.4,0,0,0,32,29.6V2.4A2.4,2.4,0,0,0,29.6,0ZM2.4,30.3a.7.7,0,0,1-.7-.7V9.3H30.3V29.6h0a.7.7,0,0,1-.7.7m.7-22.7H1.7V2.4a.7.7,0,0,1,.7-.7H29.6a.7.7,0,0,1,.7.7Z"></path><path d="M5.6,28.5h9.7a1.7,1.7,0,0,0,1.8-1.7v-14A1.8,1.8,0,0,0,15.3,11H5.6a1.8,1.8,0,0,0-1.7,1.8v14A1.7,1.7,0,0,0,5.6,28.5ZM5.4,12.8c0-.2.1-.3.2-.3h9.7a.3.3,0,0,1,.3.3v14a.3.3,0,0,1-.3.3H5.6c-.1,0-.2-.2-.2-.3Z"></path><path d="M20.6,17.1h6.3a1.8,1.8,0,0,0,1.7-1.7V12.8A1.8,1.8,0,0,0,26.9,11H20.6a1.8,1.8,0,0,0-1.7,1.8v2.6A1.8,1.8,0,0,0,20.6,17.1Zm-.2-4.3c0-.1.1-.3.2-.3h6.3c.1,0,.2.2.2.3v2.6l-.2.2H20.6l-.2-.2Z"></path><path d="M20.6,28.5h6.3a1.7,1.7,0,0,0,1.7-1.7V20.2a1.8,1.8,0,0,0-1.7-1.8H20.6a1.8,1.8,0,0,0-1.7,1.8v6.6A1.7,1.7,0,0,0,20.6,28.5Zm-.2-8.3c0-.2.1-.3.2-.3h6.3c.1,0,.2.1.2.3v6.6c0,.1-.1.3-.2.3H20.6c-.1,0-.2-.2-.2-.3Z"></path></svg>