<svg xmlns="http://www.w3.org/2000/svg" viewBox="0 0 64 64"><path d="M52,10H12a3,3,0,0,0-3,3V51a3,3,0,0,0,3,3H35V52H12a1,1,0,0,1-1-1V21H53V34h2V13A3,3,0,0,0,52,10ZM11,19V13a1,1,0,0,1,1-1H52a1,1,0,0,1,1,1v6Z"/><path d="M45,54a9.93,9.93,0,0,1-7.07-2.93h0A10,10,0,1,1,45,54Zm0-18a8,8,0,0,0-5.66,13.66h0A8,8,0,1,0,45,36Z"/><polygon points="50 43 46 43 46 39 44 39 44 43 40 43 40 45 44 45 44 49 46 49 46 45 50 45 50 43"/><circle cx="14.5" cy="15.5" r="1.5"/><circle cx="19.5" cy="15.5" r="1.5"/><circle cx="24.5" cy="15.5" r="1.5"/><polygon points="21.49 37.77 15.93 33.17 21.41 27.5 22.84 28.89 18.87 33.01 22.76 36.23 21.49 37.77"/><polygon points="30.98 37.71 29.57 36.29 33.53 32.33 29.62 28.96 30.93 27.44 36.47 32.22 30.98 37.71"/><rect x="21.56" y="31.6" width="9.28" height="2" transform="translate(-13.01 47.14) rotate(-71.56)"/></svg>
