<svg xmlns="http://www.w3.org/2000/svg" viewBox="0 0 64 64"><title>icons-64x64</title><rect x="20" y="16" width="18" height="2"/><path d="M31,49a2,2,0,1,0-4,0A2,2,0,1,0,31,49Z"/><path d="M48.81,30a3.25,3.25,0,0,0-2.26-1.21,2,2,0,0,0-1.39.59A4.23,4.23,0,0,0,43.39,29,2.85,2.85,0,0,0,41,30.06a2.37,2.37,0,0,0-.85-.14A4.42,4.42,0,0,0,37,31.38h0s-2.91-6.52-2.91-6.52A3.07,3.07,0,0,0,31.24,23a3,3,0,0,0-1.21.25h0a3,3,0,0,0-1.59,4l4.44,10a6.79,6.79,0,0,0-3.17-1,2.54,2.54,0,0,0-2.06.93c-1.76,2.16.79,4.51.79,4.51s1.18,1,2.8,2.35H20v2H33.7A51.38,51.38,0,0,0,38,49.06a6.44,6.44,0,0,0,2,.8V50c0,1.38-.62,2-2,2H20c-1.38,0-2-.62-2-2V14c0-1.38.62-2,2-2H38c1.38,0,2,.62,2,2V27h2V14a3.68,3.68,0,0,0-4-4H20a3.68,3.68,0,0,0-4,4V50a3.68,3.68,0,0,0,4,4H38a3.68,3.68,0,0,0,4-4v0a6.17,6.17,0,0,0,1.78-.47l4-1.79C50.18,46.68,52,45.08,52,42S51.29,33.38,48.81,30ZM47,45.87l-4,1.77a4.29,4.29,0,0,1-4-.29,102.63,102.63,0,0,1-9.25-7.19c-.12-.12-1.09-1.13-.58-1.75.06-.08.16-.2.51-.2a4.73,4.73,0,0,1,2.09.72l5.65,3.65-2.74-6.15-4.45-10a1,1,0,0,1,0-.76,1.14,1.14,0,0,1,.61-.59,1,1,0,0,1,.42-.09,1.08,1.08,0,0,1,1,.67l1.45,3.26c.36.82.73,1.64,1,2.25.62,1.37,1,2.2,2.29,2.2h1l.6-.82a2.63,2.63,0,0,1,1.55-.65h.14l1.44.55.9-1.25a.93.93,0,0,1,.78-.28,2.14,2.14,0,0,1,.87.17l1.25.62,1-.95a.23.23,0,0,1,0-.05,1.51,1.51,0,0,1,.61.39C49.41,34.19,50,39.41,50,42,50,43.83,49.13,45,47,45.87Z"/></svg>