<svg xmlns="http://www.w3.org/2000/svg" viewBox="0 0 64 64"><path d="M15.245 59h1.013l46.6-46.759L50.548-.072 4.023 46.531l-.312.156a.779.779 0 0 0 0 1.091L1.139 61.65zM5.5 47.31L44 8.734l4.366 4.366L9.79 51.674zm8.183 10.365L3.087 59.7l1.949-10.52zm1.793-.389l-4.6-4.6 38.576-38.5 4.6 4.6zM60.6 12.241L55.146 17.7 45.17 7.643l5.456-5.455z"></path><path d="M.918 61.872l2.6-14.042a.963.963 0 0 1 .063-1.267l.048-.034.285-.144L50.548-.323l.125.126 12.438 12.438-.125.125-46.655 46.811h-1.07zm2.9-15.041a.607.607 0 0 0 .019.823l.065.066-.017.09L1.36 61.428l13.885-2.6h.94l46.426-46.587L50.548.178 4.1 46.689zm-.952 13.093l2.056-11.1 9.129 8.965zM5.149 49.54l-1.84 9.939 10.012-1.914zm10.33 8l-4.849-4.852.125-.126 38.7-38.623 4.848 4.849-.125.125zm-4.348-4.848l4.348 4.348 38.326-38.252-4.348-4.349zm-1.342-.762l-4.535-4.621.124-.124L44 8.484l4.615 4.616zm-4.037-4.619l4.039 4.112L48.115 13.1 44 8.985zm49.394-29.364l-.126-.126L44.921 7.643l5.706-5.706.125.126 10.1 10.179zm-9.725-10.3l9.725 9.8 5.2-5.2-9.726-9.8z"></path></svg>