<svg xmlns="http://www.w3.org/2000/svg" viewBox="0 0 32 12.7"><path d="M31.8 4.9l.2-.2V.2a.2.2 0 0 0-.2-.2H.2a.2.2 0 0 0-.2.2v4.5l.2.2a.6.6 0 1 1 0 1.2.2.2 0 0 0-.2.2v4.5a.2.2 0 0 0 .2.2h.7v1.5c0 .2.1.2.2.2H13c.1 0 .2 0 .2-.2v-.6h1.2v.7a.2.2 0 0 0 .2.2h16.3a.2.2 0 0 0 .2-.2V11h.7a.2.2 0 0 0 .2-.2V6.4c0-.2-.1-.2-.2-.2a.7.7 0 0 1-.6-.7.6.6 0 0 1 .6-.6zm-1.1 7.5h-.8v-.8c0-.2 0-.2-.2-.2s-.2 0-.2.2v.8h-.7v-.8c0-.2-.1-.2-.2-.2s-.2 0-.2.2v.8h-.8v-.8c0-.2-.1-.2-.2-.2s-.2 0-.2.2v.8h-.8v-.8c0-.2-.1-.2-.2-.2s-.2 0-.2.2v.8h-.8v-.8c0-.2 0-.2-.2-.2s-.2 0-.2.2v.8h-.7v-.8c0-.2-.1-.2-.2-.2s-.2 0-.2.2v.8h-.8v-.8c0-.2-.1-.2-.2-.2s-.2 0-.2.2v.8h-.8v-.8c0-.2-.1-.2-.2-.2s-.2 0-.2.2v.8h-.7v-.8c0-.2-.1-.2-.2-.2s-.2 0-.2.2v.8h-.8v-.8c0-.2-.1-.2-.2-.2s-.2 0-.2.2v.8h-.8v-.8c0-.2-.1-.2-.2-.2s-.2 0-.2.2v.8H17v-.8c0-.2 0-.2-.2-.2s-.2 0-.2.2v.8h-.7v-.8c0-.2-.1-.2-.2-.2s-.2 0-.2.2v.8h-.7v-.7a.2.2 0 0 0-.2-.2H13a.2.2 0 0 0-.2.2v.7h-1.3v-.8c0-.2-.1-.2-.2-.2s-.2 0-.2.2v.8h-.7v-.8c0-.2-.1-.2-.2-.2s-.2 0-.2.2v.8h-.8v-.8c0-.2-.1-.2-.2-.2s-.2 0-.2.2v.8H8v-.8c0-.2-.1-.2-.2-.2s-.2 0-.2.2v.8h-.8v-.8c0-.2 0-.2-.2-.2s-.2 0-.2.2v.8h-.7v-.8c0-.2-.1-.2-.2-.2s-.2 0-.2.2v.8h-.8v-.8c0-.2-.1-.2-.2-.2s-.2 0-.2.2v.8h-.8v-.8c0-.2-.1-.2-.2-.2s-.2 0-.2.2v.8h-.8v-.8c0-.2 0-.2-.1-.2s-.2 0-.2.2v.8h-.5V11h29.4v1.4zm.9-5.9v4.1H.4V6.5a1 1 0 0 0 0-2V.4h31.2v4.1a1 1 0 0 0 0 2z"></path><path d="M5.9 2.1H2.8l-.2.2v6.4c0 .2.1.2.2.2h3.1c.1 0 .2 0 .2-.2V2.3a.2.2 0 0 0-.2-.2zm-.2 6.4H3v-6h2.7zm4.5-6.4H7.1a.2.2 0 0 0-.2.2v6.4c0 .2.1.2.2.2h3.1c.1 0 .2 0 .2-.2V2.3a.2.2 0 0 0-.2-.2zM10 8.5H7.3v-6H10zm4.5-6.4h-3.1l-.2.2v6.4c0 .2.1.2.2.2h3.1c.1 0 .2 0 .2-.2V2.3a.2.2 0 0 0-.2-.2zm-.2 6.4h-2.7v-6h2.7zm4.5-6.4h-3.1a.2.2 0 0 0-.2.2v6.4c0 .2.1.2.2.2h3.1c.1 0 .2 0 .2-.2V2.3zm-.2 6.4h-2.7v-6h2.7zm4.5-6.4H20c-.2 0-.2.1-.2.2v6.4c0 .2 0 .2.2.2h3.1c.1 0 .2 0 .2-.2V2.3zm-.2 6.4h-2.7v-6h2.7zm4.5-6.4h-3.1c-.2 0-.2.1-.2.2v6.4c0 .2 0 .2.2.2h3.1c.1 0 .2 0 .2-.2V2.3a.2.2 0 0 0-.2-.2zm-.2 6.4h-2.7v-6h2.7z"></path></svg>