<svg xmlns="http://www.w3.org/2000/svg" viewBox="0 0 32 25"><path d="M16,7.43v1a4,4,0,0,0-4,4H11A5,5,0,0,1,16,7.43ZM4.5,23.93h3v-1h-3a3.5,3.5,0,1,1,0-7h.08A.49.49,0,0,0,5,15.75a.5.5,0,0,0,.09-.44A3.49,3.49,0,0,1,8.5,10.93a3.49,3.49,0,0,1,1.1.18.5.5,0,0,0,.64-.34,6,6,0,0,1,11.53,0,.5.5,0,0,0,.64.34,3.49,3.49,0,0,1,4.48,4.2.5.5,0,0,0,.09.44.51.51,0,0,0,.41.19h.11a3.5,3.5,0,1,1,0,7h-3v1h3A4.5,4.5,0,0,0,28,15a4.25,4.25,0,0,0,0-.52A4.5,4.5,0,0,0,22.57,10,7,7,0,0,0,9.43,10a4.43,4.43,0,0,0-.93-.1A4.51,4.51,0,0,0,4,14.43,4.32,4.32,0,0,0,4,15a4.5,4.5,0,0,0,.47,9Z" transform="translate(0 -5.43)"></path><path d="M21.7,16.31h-2.3V15.1A1.06,1.06,0,0,0,18.34,14H13.66a1.06,1.06,0,0,0-1.06,1.06v1.21h-2.3a1.06,1.06,0,0,0-1.06,1.06v8.15a1.06,1.06,0,0,0,1.06,1.06H21.69a1.06,1.06,0,0,0,1.06-1.06V17.36A1.06,1.06,0,0,0,21.7,16.31ZM13.34,15.1a.33.33,0,0,1,.33-.33h4.68a.33.33,0,0,1,.33.33v1.21H13.34Zm-3,1.94H21.69a.33.33,0,0,1,.33.33v2.51l-6,1.45L10,19.87V17.36A.33.33,0,0,1,10.31,17Zm11.39,8.8H10.31a.33.33,0,0,1-.33-.33V20.62L16,22h.17L22,20.62v4.89A.33.33,0,0,1,21.7,25.84Z" transform="translate(0 -5.43)"></path></svg>