<svg xmlns="http://www.w3.org/2000/svg" viewBox="0 0 123 96.81"><path d="M124,29.7" transform="translate(-2.5 -15.6)" stroke="#c1aa95" stroke-miterlimit="10" stroke-width="3"/><circle cx="12.93" cy="8.87" r="2.86"/><circle cx="21.5" cy="8.87" r="2.86"/><circle cx="30.07" cy="8.87" r="2.86"/><path d="M22.5,87a1.55,1.55,0,0,0,.66-.15l80.47-39.62-1.6,8A1.49,1.49,0,0,0,103.21,57a1.43,1.43,0,0,0,.29,0A1.5,1.5,0,0,0,105,55.79l2.24-11.21a1.49,1.49,0,0,0-1-1.71L95,39.08a1.5,1.5,0,1,0-1,2.84l8.07,2.72L21.84,84.15A1.5,1.5,0,0,0,22.5,87Z" transform="translate(-2.5 -15.6)"/><path d="M114,101.25H99.76V65.75a4.51,4.51,0,0,0-4.5-4.5h-6.2a4.3,4.3,0,0,0-4.3,4.3v35.7h-3V73.75a4.51,4.51,0,0,0-4.5-4.5h-6.2a4.3,4.3,0,0,0-4.3,4.3v27.7h-3V82.75a4.51,4.51,0,0,0-4.5-4.5h-6.2a4.3,4.3,0,0,0-4.3,4.3v18.7h-3v-8.5a4.51,4.51,0,0,0-4.5-4.5h-6.2a4.3,4.3,0,0,0-4.3,4.3v8.7H14a1.5,1.5,0,0,0,0,3H114a1.5,1.5,0,0,0,0-3Zm-80.24,0v-8.7a1.3,1.3,0,0,1,1.3-1.3h6.2a1.5,1.5,0,0,1,1.5,1.5v8.5Zm18,0V82.55a1.3,1.3,0,0,1,1.3-1.3h6.2a1.5,1.5,0,0,1,1.5,1.5v18.5Zm18,0V73.55a1.3,1.3,0,0,1,1.3-1.3h6.2a1.5,1.5,0,0,1,1.5,1.5v27.5Zm18,0V65.55a1.3,1.3,0,0,1,1.3-1.3h6.2a1.5,1.5,0,0,1,1.5,1.5v35.5Z" transform="translate(-2.5 -15.6)"/><circle cx="12.93" cy="8.87" r="2.86"/><circle cx="21.5" cy="8.87" r="2.86"/><circle cx="30.07" cy="8.87" r="2.86"/><path d="M116,15.6H12a9.51,9.51,0,0,0-9.5,9.5v77.8a9.51,9.51,0,0,0,9.5,9.5H116a9.51,9.51,0,0,0,9.5-9.5V25.1A9.51,9.51,0,0,0,116,15.6Zm-104,3H116a6.51,6.51,0,0,1,6.5,6.5v7.15H5.5V25.1A6.51,6.51,0,0,1,12,18.6Zm104,90.8H12a6.51,6.51,0,0,1-6.5-6.5V35.25h117V102.9A6.51,6.51,0,0,1,116,109.4Z" transform="translate(-2.5 -15.6)"/></svg>
