<svg xmlns="http://www.w3.org/2000/svg" viewBox="0 0 32 25"><path d="M16,5.42v1a4,4,0,0,0-4,4H11A5,5,0,0,1,16,5.42ZM4.5,21.92h2v-1h-2a3.5,3.5,0,1,1,0-7h.08A.49.49,0,0,0,5,13.74a.5.5,0,0,0,.09-.44A3.49,3.49,0,0,1,8.5,8.92a3.49,3.49,0,0,1,1.1.18.5.5,0,0,0,.64-.34,6,6,0,0,1,11.53,0,.5.5,0,0,0,.64.34,3.49,3.49,0,0,1,4.48,4.2.5.5,0,0,0,.09.44.51.51,0,0,0,.41.19h.11a3.5,3.5,0,1,1,0,7h-2v1h2a4.5,4.5,0,0,0,.47-9,4.25,4.25,0,0,0,0-.52A4.5,4.5,0,0,0,22.57,8,7,7,0,0,0,9.43,8a4.43,4.43,0,0,0-.93-.1A4.51,4.51,0,0,0,4,12.42a4.32,4.32,0,0,0,0,.52,4.5,4.5,0,0,0,.47,9Z" transform="translate(0 -3.42)"></path><path d="M25.36,18.63a4.34,4.34,0,0,0-4.15-4.33H18.78V13.09A1.06,1.06,0,0,0,17.73,12H13A1.06,1.06,0,0,0,12,13.09V14.3H9.69a1.06,1.06,0,0,0-1.06,1.05V23.5a1.06,1.06,0,0,0,1.06,1.06H21.08a1.06,1.06,0,0,0,1.06-1.06v-.68A4.34,4.34,0,0,0,25.36,18.63ZM12.72,13.09a.33.33,0,0,1,.33-.33h4.68a.33.33,0,0,1,.33.33V14.3H12.72ZM9.37,15.35A.33.33,0,0,1,9.69,15h8.94a4.33,4.33,0,0,0-1.94,3.61c0,.12,0,.24,0,.36h0l-1.29.31L9.37,17.86Zm12,8.15a.33.33,0,0,1-.33.33H9.69a.33.33,0,0,1-.33-.33V18.61l6,1.43h.17l1.33-.32h0A4.34,4.34,0,0,0,21,23l.38,0h0Zm-4.65-4.16v0ZM21,22.5a3.87,3.87,0,1,1,3.87-3.87A3.87,3.87,0,0,1,21,22.5Z" transform="translate(0 -3.42)"></path><path d="M20.62,19.06H19.19v-.81h1.44V16.8h.81v1.45h1.44v.81H21.44v1.43h-.81Z" transform="translate(0 -3.42)"></path></svg>