<svg xmlns="http://www.w3.org/2000/svg" viewBox="0 0 32 32"><path d="M7.4 0h-.1a.4.4 0 0 0-.3.4V3H5.2a2.1 2.1 0 0 0-2.1 2.2V7H.4a.4.4 0 0 0-.4.4c0 .2.2.3.4.3h2.7v1.8H.4a.4.4 0 0 0-.4.4c0 .2.2.3.4.3h2.7V12H.3a.3.3 0 0 0-.3.3.4.4 0 0 0 .4.4h2.7v1.7H.4a.4.4 0 0 0-.4.4c0 .2.2.3.4.3h2.7v1.8H.3c-.2 0-.3.2-.3.4s.2.3.4.3h2.7v1.7H.3c-.2.1-.3.2-.3.4a.4.4 0 0 0 .4.4h2.7v1.7H.4a.4.4 0 0 0-.4.4c0 .2.2.3.4.3h2.7v1.8H.3c-.2 0-.3.2-.3.4a.4.4 0 0 0 .4.3h2.7v1.8a2.1 2.1 0 0 0 2.1 2.1H7v2.6a.4.4 0 0 0 .8 0V29h1.7v2.6a.4.4 0 0 0 .4.4c.2 0 .3-.2.3-.4V29H12v2.6c0 .2.1.4.3.4a.4.4 0 0 0 .4-.4V29h1.7v2.6a.4.4 0 0 0 .4.4c.2 0 .3-.2.3-.4V29h1.8v2.6a.4.4 0 0 0 .4.4.4.4 0 0 0 .3-.4V29h1.8v2.6c0 .2.1.4.3.4a.4.4 0 0 0 .4-.4V29h1.7v2.6a.4.4 0 0 0 .4.4.4.4 0 0 0 .3-.4V29h1.8v2.6c0 .2.1.4.3.4a.4.4 0 0 0 .4-.4V29h1.8a2.1 2.1 0 0 0 2.1-2.1V25h2.7a.4.4 0 0 0 .4-.4c0-.2-.2-.3-.4-.3h-2.7v-1.8h2.7a.4.4 0 0 0 .4-.3.4.4 0 0 0-.4-.4h-2.7v-1.7h2.7a.4.4 0 0 0 0-.8h-2.7v-1.7h2.7a.4.4 0 0 0 .4-.4.4.4 0 0 0-.4-.3h-2.7v-1.8h2.7c.2 0 .4-.1.4-.3a.4.4 0 0 0-.4-.4h-2.7v-1.7h2.7a.4.4 0 0 0 .4-.4c0-.2-.2-.3-.4-.3h-2.7v-1.8h2.7a.4.4 0 0 0 .4-.3.4.4 0 0 0-.4-.4h-2.7V7.7h2.7c.2 0 .4-.1.4-.3a.4.4 0 0 0-.4-.4h-2.7V5.2a2.1 2.1 0 0 0-2.1-2.1H25V.4a.4.4 0 0 0-.4-.4c-.2 0-.3.2-.3.4V3h-1.8V.4a.4.4 0 0 0-.4-.4c-.2 0-.3.2-.3.4V3h-1.7V.4c0-.2-.3-.4-.5-.4s-.2.2-.2.4V3h-1.8V.4a.4.4 0 0 0-.4-.4c-.2 0-.3.2-.3.4V3h-1.8V.4c.1-.2-.2-.4-.4-.4s-.3.2-.3.4V3h-1.7V.4a.4.4 0 0 0-.4-.4c-.2 0-.3.2-.3.4V3h-1.8V.4a.4.4 0 0 0-.4-.4c-.2 0-.3.2-.3.4V3H7.8V.4a.4.4 0 0 0-.4-.4zM5.2 3.8h21.6a1.4 1.4 0 0 1 1.4 1.4v21.6a1.4 1.4 0 0 1-1.4 1.4H5.2a1.4 1.4 0 0 1-1.4-1.4V5.2a1.4 1.4 0 0 1 1.4-1.4zM7.3 7c-.1.1-.3.2-.3.4v17.2a.4.4 0 0 0 .4.4h17.2a.4.4 0 0 0 .4-.4V7.4a.4.4 0 0 0-.4-.4H7.3zm.5.7h16.5v16.6H7.8V7.7z"></path></svg>