<svg xmlns="http://www.w3.org/2000/svg" viewBox="0 0 64 64"><path d="M52.49,25.92H50.76V19.07a18.76,18.76,0,0,0-37.52,0v6.85H11.51a6.73,6.73,0,0,0-6.8,6.81v23.9a6.73,6.73,0,0,0,6.8,6.8h41a6.73,6.73,0,0,0,6.8-6.8V32.73A6.73,6.73,0,0,0,52.49,25.92ZM16.61,19.07a15.39,15.39,0,0,1,30.78,0v6.85H42.22V19.07a10.22,10.22,0,0,0-20.44,0v6.85H16.61Zm22.24,6.85H25.15V19.07a6.85,6.85,0,0,1,13.7,0ZM52.49,60.07h-41a3.36,3.36,0,0,1-3.43-3.44V54.9h3.43V51.53H8.08V46.36h6.85V43H8.08V37.83h3.43V34.46H8.08V32.73a3.36,3.36,0,0,1,3.43-3.44h41a3.36,3.36,0,0,1,3.43,3.44v1.73H52.49v3.37h3.43V43H49.07v3.36h6.85v5.17H52.49V54.9h3.43v1.73A3.36,3.36,0,0,1,52.49,60.07Z"></path><polygon points="28.59 49.13 24.66 45.2 22.27 47.58 28.59 53.89 41.73 40.75 39.34 38.37 28.59 49.13"></polygon></svg>