<svg xmlns="http://www.w3.org/2000/svg" viewBox="0 0 64 64"><path d="M52,10H12a3,3,0,0,0-3,3V51a3,3,0,0,0,3,3H31V52H12a1,1,0,0,1-1-1V21H53V39h2V13A3,3,0,0,0,52,10ZM11,19V13a1,1,0,0,1,1-1H52a1,1,0,0,1,1,1v6Z"/><circle cx="14.5" cy="15.5" r="1.5"/><circle cx="19.5" cy="15.5" r="1.5"/><circle cx="24.5" cy="15.5" r="1.5"/><polygon points="53.28 46.71 45.48 38.93 37.69 46.71 36.28 45.29 45.48 36.1 54.69 45.29 53.28 46.71"/><polygon points="53.29 53.71 45.5 45.93 37.71 53.71 36.29 52.29 45.5 43.1 54.71 52.29 53.29 53.71"/><polygon points="23.09 37.77 17.53 33.17 23.01 27.5 24.45 28.89 20.47 33.01 24.36 36.23 23.09 37.77"/><polygon points="32.58 37.71 31.17 36.29 35.13 32.33 31.22 28.96 32.53 27.44 38.07 32.22 32.58 37.71"/><rect x="23.16" y="31.6" width="9.28" height="2" transform="translate(-11.92 48.66) rotate(-71.56)"/></svg>
