<svg xmlns="http://www.w3.org/2000/svg" viewBox="0 0 64 64"><path d="M59,36.64a5.23,5.23,0,0,0-1.91-4,5.14,5.14,0,0,0,1.91-4,5.22,5.22,0,0,0-5.19-5.19H46C53.69,16,51.59,7.75,51.35,6.76a4.56,4.56,0,0,0-4.08-3.15,4.3,4.3,0,0,0-4.2,2.72c-2.84,6.48-13.89,11.73-14,11.79s-.18.13-.25.19L15.48,29.42H6.22c-.06,0-.19-.06-.25-.06H5.66a.84.84,0,0,0-.86.86V55.28a.88.88,0,0,0,.86.87H16.28L23,57.94c.12,0,.19.06.31.06h27a5.22,5.22,0,0,0,5.18-5.19,4.88,4.88,0,0,0-1-3.08A5.18,5.18,0,0,0,56.78,41,5.48,5.48,0,0,0,59,36.64ZM47.15,33.8h6.66a2.84,2.84,0,0,1,0,5.68H47.15a1.18,1.18,0,1,0,0,2.35H53.2a2.84,2.84,0,0,1,0,5.68H47.15A1.17,1.17,0,0,0,46,48.68v.12A1.17,1.17,0,0,0,47.15,50H50.3a2.84,2.84,0,0,1,0,5.68H23.5l-6.72-1.79c-.13,0-.19-.06-.31-.06l-9.63.06V31.76h9.07a1.51,1.51,0,0,0,.74-.24L30.23,20.28c1.36-.68,11.92-6,15-12.9A2,2,0,0,1,47.15,6a2.14,2.14,0,0,1,2,1.48c.25.93,2.35,9-6.66,16H40.79a1.18,1.18,0,0,0,0,2.35H53.88a2.84,2.84,0,0,1,0,5.68H47.21A1.16,1.16,0,0,0,46,32.69,1.06,1.06,0,0,0,47.15,33.8Z"></path></svg>