<svg xmlns="http://www.w3.org/2000/svg" viewBox="0 0 18 12"><path d="M3,9a2,2,0,0,0-2,2v1H4.1a6.7,6.7,0,0,1,.7-1.8A2,2,0,0,0,3,9Z" transform="translate(0 -3)" fill="none"></path><path d="M17,12V11a2,2,0,0,0-2-2,2,2,0,0,0-1.8,1.2,3.6,3.6,0,0,1,.7,1.8Z" transform="translate(0 -3)" fill="none"></path><path d="M16.4,8.4A2,2,0,0,0,17,7a2,2,0,0,0-4,0,2,2,0,0,0,.6,1.4,3.5,3.5,0,0,0-1.1,1,3.9,3.9,0,0,0-1.6-1A3.4,3.4,0,0,0,12,6,2.9,2.9,0,0,0,9,3,2.9,2.9,0,0,0,6,6,2.8,2.8,0,0,0,7.2,8.3,6.2,6.2,0,0,0,5.5,9.4a3.5,3.5,0,0,0-1.1-1A2,2,0,0,0,5,7,2,2,0,0,0,1,7a2,2,0,0,0,.6,1.4H1.4A2.9,2.9,0,0,0,0,11v2H4v2H14V13h4V11A2.9,2.9,0,0,0,16.4,8.4ZM14,7a1,1,0,0,1,2,0,1,1,0,0,1-2,0ZM7,6A2,2,0,1,1,9,8,2,2,0,0,1,7,6ZM3,6A.9.9,0,0,1,4,7,.9.9,0,0,1,3,8,.9.9,0,0,1,2,7,.9.9,0,0,1,3,6Zm1.1,6H1V11A2,2,0,0,1,3,9H3a2,2,0,0,1,1.8,1.2A6.7,6.7,0,0,0,4.1,12ZM13,14H5V13a4,4,0,0,1,8,0Zm4-2H13.9a6.7,6.7,0,0,0-.7-1.8A2,2,0,0,1,15,9h0l.7.2A2,2,0,0,1,16.9,11v1Z" transform="translate(0 -3)"></path></svg>