<svg class="ldi-al4sgp" width="100%" height="100%" xmlns="http://www.w3.org/2000/svg" xmlns:xlink="http://www.w3.org/1999/xlink" viewBox="0 0 100 100" preserveAspectRatio="xMidYMid"><!--?xml version="1.0" encoding="utf-8"?--><!--Generator: Adobe Illustrator 21.0.0, SVG Export Plug-In . SVG Version: 6.00 Build 0)--><svg version="1.1" id="Layer_1" xmlns="http://www.w3.org/2000/svg" xmlns:xlink="http://www.w3.org/1999/xlink" x="0px" y="0px" viewBox="0 0 100 100" style="transform-origin: 50px 50px 0px;" xml:space="preserve"><g style="transform-origin: 50px 50px 0px;"><g style="transform-origin: 50px 50px 0px; transform: scale(0.6);"><g style="transform-origin: 50px 50px 0px;"><g><style type="text/css" class="ld ld-breath" style="transform-origin: 50px 50px 0px; animation-duration: 1s; animation-delay: -1s; animation-direction: normal;">.st0{fill:#F4E6C8;} .st1{opacity:0.8;fill:#849B87;} .st2{fill:#D65A62;} .st3{fill:#E15C64;} .st4{fill:#F47E5F;} .st5{fill:#F7B26A;} .st6{fill:#FEE8A2;} .st7{fill:#ACBD81;} .st8{fill:#F5E169;} .st9{fill:#F0AF6B;} .st10{fill:#EA7C60;} .st11{fill:#A8B980;} .st12{fill:#829985;} .st13{fill:#798AAE;} .st14{fill:#8672A7;} .st15{fill:#CC5960;} .st16{fill:#E17A5F;} .st17{fill:#849B87;} .st18{opacity:0.8;fill:#E15C64;} .st19{opacity:0.8;fill:#F7B26A;} .st20{fill:#79A5B5;} .st21{opacity:0.8;fill:#79A5B4;} .st22{fill:#666766;}</style><g class="ld ld-breath" style="transform-origin: 50px 50px 0px; animation-duration: 1s; animation-delay: -0.961538s; animation-direction: normal;"><path class="st4" d="M54.1,29.4h-8.1L65.6,9.7c9,3.8,16.4,10.9,20.7,19.6L54.1,29.4L54.1,29.4z" fill="rgb(244, 126, 95)" style="fill: rgb(244, 126, 95);"></path></g><g class="ld ld-breath" style="transform-origin: 50px 50px 0px; animation-duration: 1s; animation-delay: -0.923077s; animation-direction: normal;"><path class="st5" d="M38.2,32.5L61,9.7c-9.2-3.2-19.4-2.9-28.5,0.7v27.8L38.2,32.5L38.2,32.5z" fill="rgb(247, 178, 106)" style="fill: rgb(247, 178, 106);"></path></g><g class="ld ld-breath" style="transform-origin: 50px 50px 0px; animation-duration: 1s; animation-delay: -0.884615s; animation-direction: normal;"><path class="st5" d="M38.3,32.5L61.1,9.7c0,0,0,0,0,0L38.3,32.5L38.3,32.5z" fill="rgb(247, 178, 106)" style="fill: rgb(247, 178, 106);"></path></g><g class="ld ld-breath" style="transform-origin: 50px 50px 0px; animation-duration: 1s; animation-delay: -0.846154s; animation-direction: normal;"><path class="st4" d="M29.3,46V13.7C20.5,18,13.5,25.4,9.7,34.4l19.7,19.7L29.3,46L29.3,46z" fill="rgb(244, 126, 95)" style="fill: rgb(244, 126, 95);"></path></g><g class="ld ld-breath" style="transform-origin: 50px 50px 0px; animation-duration: 1s; animation-delay: -0.807692s; animation-direction: normal;"><path class="st5" d="M29.4,45.9V13.7c0,0,0,0,0,0L29.4,45.9L29.4,45.9z" fill="rgb(247, 178, 106)" style="fill: rgb(247, 178, 106);"></path></g><g class="ld ld-breath" style="transform-origin: 50px 50px 0px; animation-duration: 1s; animation-delay: -0.769231s; animation-direction: normal;"><path class="st5" d="M32.5,61.8L9.7,39c-3.2,9.2-2.9,19.4,0.7,28.5h27.8L32.5,61.8L32.5,61.8z" fill="rgb(247, 178, 106)" style="fill: rgb(247, 178, 106);"></path></g><g class="ld ld-breath" style="transform-origin: 50px 50px 0px; animation-duration: 1s; animation-delay: -0.730769s; animation-direction: normal;"><path class="st5" d="M32.5,61.7L9.7,38.9c0,0,0,0,0,0L32.5,61.7L32.5,61.7z" fill="rgb(247, 178, 106)" style="fill: rgb(247, 178, 106);"></path></g><g class="ld ld-breath" style="transform-origin: 50px 50px 0px; animation-duration: 1s; animation-delay: -0.692308s; animation-direction: normal;"><path class="st4" d="M46,70.7H13.7c4.3,8.8,11.7,15.8,20.7,19.6l19.7-19.7L46,70.7L46,70.7z" fill="rgb(244, 126, 95)" style="fill: rgb(244, 126, 95);"></path></g><g class="ld ld-breath" style="transform-origin: 50px 50px 0px; animation-duration: 1s; animation-delay: -0.653846s; animation-direction: normal;"><path class="st5" d="M45.9,70.6H13.7c0,0,0,0,0,0L45.9,70.6L45.9,70.6z" fill="rgb(247, 178, 106)" style="fill: rgb(247, 178, 106);"></path></g><g class="ld ld-breath" style="transform-origin: 50px 50px 0px; animation-duration: 1s; animation-delay: -0.615385s; animation-direction: normal;"><path class="st5" d="M61.8,67.5L39,90.3c9.2,3.2,19.4,2.9,28.5-0.7V61.7L61.8,67.5L61.8,67.5z" fill="rgb(247, 178, 106)" style="fill: rgb(247, 178, 106);"></path></g><g class="ld ld-breath" style="transform-origin: 50px 50px 0px; animation-duration: 1s; animation-delay: -0.576923s; animation-direction: normal;"><path class="st5" d="M61.7,67.5L38.9,90.3c0,0,0,0,0,0L61.7,67.5L61.7,67.5z" fill="rgb(247, 178, 106)" style="fill: rgb(247, 178, 106);"></path></g><g class="ld ld-breath" style="transform-origin: 50px 50px 0px; animation-duration: 1s; animation-delay: -0.538462s; animation-direction: normal;"><path class="st4" d="M70.7,54v32.3c8.8-4.3,15.8-11.7,19.6-20.7L70.6,45.9L70.7,54L70.7,54z" fill="rgb(244, 126, 95)" style="fill: rgb(244, 126, 95);"></path></g><g class="ld ld-breath" style="transform-origin: 50px 50px 0px; animation-duration: 1s; animation-delay: -0.5s; animation-direction: normal;"><path class="st5" d="M70.6,54.1v32.3c0,0,0,0,0,0L70.6,54.1L70.6,54.1z" fill="rgb(247, 178, 106)" style="fill: rgb(247, 178, 106);"></path></g><g class="ld ld-breath" style="transform-origin: 50px 50px 0px; animation-duration: 1s; animation-delay: -0.461538s; animation-direction: normal;"><path class="st5" d="M67.5,38.2L90.3,61c3.2-9.2,2.9-19.4-0.7-28.5H61.7L67.5,38.2L67.5,38.2z" fill="rgb(247, 178, 106)" style="fill: rgb(247, 178, 106);"></path></g><g class="ld ld-breath" style="transform-origin: 50px 50px 0px; animation-duration: 1s; animation-delay: -0.423077s; animation-direction: normal;"><path class="st5" d="M89.6,32.5H61.7l0,0L89.6,32.5C89.6,32.5,89.6,32.5,89.6,32.5z" fill="rgb(247, 178, 106)" style="fill: rgb(247, 178, 106);"></path></g><g class="ld ld-breath" style="transform-origin: 50px 50px 0px; animation-duration: 1s; animation-delay: -0.384615s; animation-direction: normal;"><path class="st5" d="M67.5,38.3l22.8,22.8c0,0,0,0,0,0L67.5,38.3L67.5,38.3z" fill="rgb(247, 178, 106)" style="fill: rgb(247, 178, 106);"></path></g><metadata xmlns:d="https://loading.io/stock/" class="ld ld-breath" style="transform-origin: 50px 50px 0px; animation-duration: 1s; animation-delay: -0.346154s; animation-direction: normal;">
<d:name class="ld ld-breath" style="transform-origin: 50px 50px 0px; animation-duration: 1s; animation-delay: -0.307692s; animation-direction: normal;">aperture</d:name>
<d:tags class="ld ld-breath" style="transform-origin: 50px 50px 0px; animation-duration: 1s; animation-delay: -0.269231s; animation-direction: normal;">shutter,camera,fan,photograph,photo,exposure,dslr,aperture,spinner</d:tags>
<d:license class="ld ld-breath" style="transform-origin: 50px 50px 0px; animation-duration: 1s; animation-delay: -0.230769s; animation-direction: normal;">rf</d:license>
<d:slug class="ld ld-breath" style="transform-origin: 50px 50px 0px; animation-duration: 1s; animation-delay: -0.192308s; animation-direction: normal;">al4sgp</d:slug>
</metadata></g></g></g></g><style type="text/css" class="ld ld-breath" style="transform-origin: 50px 50px 0px; animation-duration: 1s; animation-delay: -0.153846s; animation-direction: normal;">path,ellipse,circle,rect,polygon,polyline,line { stroke-width: 0; }@keyframes ld-breath {
  0% {
    -webkit-transform: scale(0.86);
    transform: scale(0.86);
  }
  50% {
    -webkit-transform: scale(1.06);
    transform: scale(1.06);
  }
  100% {
    -webkit-transform: scale(0.86);
    transform: scale(0.86);
  }
}
@-webkit-keyframes ld-breath {
  0% {
    -webkit-transform: scale(0.86);
    transform: scale(0.86);
  }
  50% {
    -webkit-transform: scale(1.06);
    transform: scale(1.06);
  }
  100% {
    -webkit-transform: scale(0.86);
    transform: scale(0.86);
  }
}
.ld.ld-breath {
  -webkit-animation: ld-breath 1s infinite;
  animation: ld-breath 1s infinite;
}
</style></svg></svg>