<svg class="ldi-gizw4l" width="100%" height="100%" xmlns="http://www.w3.org/2000/svg" xmlns:xlink="http://www.w3.org/1999/xlink" viewBox="0 0 100 100" preserveAspectRatio="xMidYMid"><!--?xml version="1.0" encoding="utf-8"?--><!--Generator: Adobe Illustrator 21.0.0, SVG Export Plug-In . SVG Version: 6.00 Build 0)--><svg version="1.1" id="圖層_1" xmlns="http://www.w3.org/2000/svg" xmlns:xlink="http://www.w3.org/1999/xlink" x="0px" y="0px" viewBox="0 0 100 100" style="transform-origin: 50px 50px 0px;" xml:space="preserve"><g style="transform-origin: 50px 50px 0px;"><g style="transform-origin: 50px 50px 0px; transform: scale(0.6);"><g style="transform-origin: 50px 50px 0px;"><g><style type="text/css" class="ld ld-skew" style="transform-origin: 50px 50px 0px; animation-duration: 1s; animation-delay: -1s; animation-direction: normal;">.st0{fill:#849B87;stroke:#333333;stroke-width:3;stroke-miterlimit:10;} .st1{fill:#A0C8D7;stroke:#333333;stroke-width:3;stroke-miterlimit:10;} .st2{fill:#F5E6C8;} .st3{fill:#ABBD81;} .st4{fill:#F5E6C8;stroke:#000000;stroke-width:2.5;stroke-miterlimit:10;} .st5{fill:#333333;} .st6{fill:#F5E6C8;stroke:#000000;stroke-width:3.5;stroke-miterlimit:10;} .st7{fill:#849B87;} .st8{fill:#F5E6C8;stroke:#333333;stroke-width:4;stroke-miterlimit:10;} .st9{fill:#C33737;} .st10{fill:#A0C8D7;} .st11{fill:#F5E6C8;stroke:#333333;stroke-width:3;stroke-miterlimit:10;} .st12{fill:#A3A3A3;} .st13{fill:#F5E6C8;stroke:#000000;stroke-width:3.8621;stroke-miterlimit:10;} .st14{fill:#FFDC6C;} .st15{fill:#ABBD81;stroke:#333333;stroke-width:3;stroke-miterlimit:10;} .st16{fill:#E15B64;} .st17{fill:#F5E6C8;stroke:#333333;stroke-width:3.6781;stroke-miterlimit:10;} .st18{fill:#F5E6C8;stroke:#333333;stroke-width:2.7586;stroke-miterlimit:10;} .st19{fill:#F5E6C8;stroke:#333333;stroke-width:3.9518;stroke-miterlimit:10;} .st20{fill:#FFFFFF;stroke:#333333;stroke-width:3.9092;stroke-miterlimit:10;} .st21{fill:#FFFFFF;stroke:#333333;stroke-width:3.6699;stroke-miterlimit:10;} .st22{fill:#F5E6C8;stroke:#000000;stroke-width:3;stroke-miterlimit:10;} .st23{fill:#F47E60;} .st24{fill:#F8B26A;} .st25{fill:#FFFFFF;} .st26{fill:#F5E6C8;stroke:#000000;stroke-width:3.9059;stroke-miterlimit:10;} .st27{fill:#F5E6C8;stroke:#000000;stroke-width:4;stroke-miterlimit:10;} .st28{fill:#C33636;} .st29{fill:#F5E6C8;stroke:#000000;stroke-width:3.8153;stroke-miterlimit:10;} .st30{fill:#E0E0E0;} .st31{fill:#F5E6C8;stroke:#000000;stroke-width:2.9643;stroke-miterlimit:10;} .st32{fill:#E15B64;stroke:#000000;stroke-width:2.9419;stroke-miterlimit:10;} .st33{fill:#666666;} .st34{fill:none;} .st35{fill:#FCEDCE;} .st36{fill:#FFF2D9;} .st37{fill:#7A8F7C;} .st38{fill:#96B099;}</style><g class="ld ld-skew" style="transform-origin: 50px 50px 0px; animation-duration: 1s; animation-delay: -0.916667s; animation-direction: normal;"><path class="st3" d="M49,14.3c-24.1,0-40,11.1-40,34.5c0,9.7,2.8,17.3,7.7,22.8C15.5,77,14,82.1,12.3,85c-0.7,1.3,0.5,2.9,1.9,2.5 c0,0,0,0,0,0c4-1.1,9-4.2,13.9-8c5.9,2.5,12.9,3.7,20.9,3.7c24.1,0,40-11.1,40-34.5C89,25.4,73.1,14.3,49,14.3z" fill="#93dbe9" stroke="#689cc5" style="fill: rgb(147, 219, 233); stroke: rgb(104, 156, 197);"></path></g><g class="ld ld-skew" style="transform-origin: 50px 50px 0px; animation-duration: 1s; animation-delay: -0.833333s; animation-direction: normal;"><path class="st2" d="M65.6,52.7L65.6,52.7c-1.9-0.7-2.3-0.8-2.5-0.8c-0.2,0-0.5,0-1.7,0.2c-1.3,0.3-3.1,0.5-5.3,0.7 c0-0.1,0.1-0.1,0.2-0.2c0.5-0.6,1.2-1.8,2-3.6c1.1-0.1,2.3-0.2,3.3-0.2c1,0,1.7-0.1,2-0.2c1-0.2,1.2-0.8,1.2-1.1 c0-0.5-0.4-0.8-1.5-1.3l0,0c-0.9-0.4-1.4-0.6-1.8-0.6c-0.1,0-0.3,0-0.7,0.1c-0.3,0.1-0.7,0.2-1.3,0.3c0.3-0.5,0.5-0.8,0.5-1.1 c0-0.6-0.4-1.1-1.4-1.7l0,0c-0.3-0.2-0.6-0.4-0.9-0.5c0.6-0.1,1.1-0.2,1.4-0.3c0.6-0.1,1.7-0.3,1.7-1.1c0-0.4-0.2-0.9-1.1-1.3 c-0.9-0.4-1.6-0.6-2.1-0.6c-0.1,0-0.4,0-1.2,0.2c-0.8,0.2-1.7,0.3-2.7,0.5c0.1-0.1,0.2-0.3,0.4-0.5c0.5-0.6,1.2-1.5,1.9-2.9 c0.1,0,0.1,0,0.2,0c1.4-0.2,2.8-0.3,4.1-0.3c1,0,1.7-0.1,2-0.2c1-0.2,1.2-0.8,1.2-1.1c0-0.5-0.4-0.8-1.5-1.3l0,0 c-0.9-0.4-1.4-0.6-1.8-0.6c-0.1,0-0.3,0-0.7,0.1c-0.4,0.1-1.1,0.2-2,0.4c0.2-0.4,0.3-0.7,0.5-1.1c0.5-0.7,0.6-1,0.6-1.2 c0-0.6-0.5-1.2-1.5-1.8l0,0c-0.8-0.5-1.5-0.7-2.1-0.7c-0.3,0-1.1,0.1-1.2,1.2l0,0.1l0,0.1c0.2,0.7,0.2,1,0.2,1.1 c0,0.7-0.1,1.6-0.3,2.8c0,0.1-0.1,0.2-0.1,0.3c-1.2,0.2-2.3,0.4-3.3,0.5c-0.7,0.1-1.1,0.4-1.1,0.8c0,0.5,0.5,0.8,1.1,1.1 c1,0.5,1.4,0.5,1.6,0.5c0.2,0,0.3,0,0.6-0.1c0.1,0,0.3-0.1,0.5-0.1c-0.2,0.8-0.5,1.6-0.7,2.5l0,0.1c0,0.2,0,0.3,0.2,0.5 c-0.5,0.1-1,0.1-1.5,0.2c-1.9,0.2-3.7,0.5-5.4,0.6c0.2-0.3,0.4-0.7,0.4-1.2c0-0.2,0-0.6-0.3-2.6c0.7-0.2,1.4-0.4,2.3-0.7 c0.3-0.1,1.1-0.3,1.1-1c0-0.4-0.2-1-1.5-1c-0.2,0-0.4,0-0.8,0.1c-0.4,0.1-0.9,0.2-1.5,0.3c0-0.3-0.1-0.5-0.1-0.8 c-0.1-0.4-0.1-1-0.1-1.9c0-0.4-0.3-0.8-0.8-1.2l-0.1,0c-0.9-0.4-1.7-0.5-2.4-0.5c-0.7,0-1.2,0.4-1.2,1.1c0,0.3,0.2,0.7,0.6,1.4 c0.2,0.3,0.5,0.9,0.9,2.4c-0.5,0.1-1.1,0.2-1.7,0.2c-0.7,0.1-1.1,0.1-1.4,0.1c-0.1,0-0.4,0-0.8-0.1c-0.4-0.1-0.7-0.1-0.9-0.1 c-0.8,0-1,0.5-1,0.9c0,0.3,0.2,0.8,1.3,1.8c0.8,0.7,1.4,1,1.9,1c0.3,0,0.6-0.1,1-0.3c0.6-0.2,1.3-0.5,2-0.7l0.4-0.1v0c0,0,0,0,0,0 c0.1,0.4,0.2,0.9,0.4,1.4c0.1,0.6,0.4,1.4,0.9,1.8c-1,0.1-1.9,0.2-2.8,0.2c-1.6,0-2.4,0.2-2.4,0.8c0,0.5,0.5,1,0.9,1.3 c0.5,0.3,1.4,0.5,2.7,0.5c1,0,2.7-0.1,5.2-0.3c0.2,0.7,0.3,1.6,0.3,2.7v6.9c-1.5,0.1-2.9,0.2-4.2,0.4c0.2-0.3,0.3-0.6,0.4-1.1 c0-0.1,0-0.6-0.3-2.5c1-0.2,1.9-0.3,2.8-0.3c0.8,0,1-0.4,1-0.7c0-0.5-0.3-0.9-0.9-1.3c-0.6-0.3-1.1-0.4-1.6-0.4 c-0.1,0-0.4,0-1.6,0.2c0,0,0,0,0,0c0,0,0,0,0-0.1C43.1,47.4,43,46.8,43,46c0-0.4-0.3-0.8-0.8-1.2l-0.1,0c-0.9-0.4-1.7-0.5-2.4-0.5 c-0.7,0-1.2,0.4-1.2,1.1c0,0.3,0.2,0.7,0.5,1.3c0.1,0.2,0.3,0.6,0.7,1.5c-1.9,0.3-3.4,0.5-4.5,0.6c-0.2,0-0.9,0.1-0.9,0.7 c0,0.6,0.6,1.1,1.2,1.4c0.9,0.4,1.5,0.6,1.9,0.6c0.1,0,0.4,0,1.3-0.3c0.6-0.1,1.2-0.3,1.8-0.4c0.1,0.5,0.3,1,0.5,1.6 c0.1,0.6,0.4,1.4,0.9,1.8c-1.7,0.3-4.4,0.5-8,0.5c-1.2,0.1-1.5,0.7-1.5,1.1c0,0.5,0.5,1,1.8,1.6c1,0.5,1.8,0.7,2.4,0.7 c0.2,0,0.6,0,1.9-0.4c3.2-0.7,6.2-1.1,9-1.3v2.9c-2.3,0.3-4.9,0.5-7.6,0.8c-0.5,0.1-1.3,0.3-1.3,0.9c0,0.7,0.8,1.1,1.4,1.3 c0.7,0.4,1.5,0.6,2.2,0.6c0.1,0,0.3,0,1.1-0.1c1.5-0.2,2.9-0.4,4.2-0.5v0.1c0,2.4,0,4.3,0.1,5.8c0.2,0.9,0.4,2,1.2,2 c0.6,0,0.9-0.6,1.4-2.6c0.3-1.6,0.5-3.5,0.6-5.6c3.1-0.2,5.9-0.4,8.3-0.4c0.5,0,1.9-0.1,1.9-1.1c0-0.6-0.5-1.1-1.8-1.9l-0.1,0 C58,58,57.7,58,57.6,58c-0.2,0-0.8,0-2.6,0.3c-1.2,0.2-2.5,0.3-4,0.5l0-2.7c2.7-0.2,5.1-0.3,6.9-0.3c2.4,0,4.7,0,6.8,0.1 c0.8,0,2.8,0,2.8-1.1C67.5,54.1,66.9,53.4,65.6,52.7z M54.3,53.1c-0.4,0-0.9,0.1-1.4,0.1c-0.7,0-1.3,0.1-2,0.1l0.1-4.5 c0.2,0.2,0.5,0.4,0.9,0.6c1,0.5,1.4,0.5,1.6,0.5c0.1,0,0.3,0,0.6-0.1c0.2-0.1,0.5-0.1,1-0.2c-0.2,1-0.4,2-0.7,3.2l0,0.1 C54.3,53,54.3,53,54.3,53.1z M55.5,43.9c0.1,0.6,0.2,0.9,0.2,1c0,0.5-0.1,1.2-0.2,2c-1.3,0.2-2.5,0.4-3.5,0.6 c-0.4,0-0.7,0.1-0.9,0.3c0-0.9,0.2-1.8,0.4-2.6c0.3-0.8,0.3-0.9,0.3-1c0-0.2-0.1-0.5-0.2-0.7c0.3,0,0.6-0.1,0.8-0.1 c1.3-0.1,2.4-0.3,3.3-0.4c-0.1,0.2-0.2,0.4-0.2,0.7L55.5,43.9L55.5,43.9z" stroke="#689cc5" fill="#5e6fa3" style="stroke: rgb(104, 156, 197); fill: rgb(94, 111, 163);"></path></g><metadata xmlns:d="https://loading.io/stock/" class="ld ld-skew" style="transform-origin: 50px 50px 0px; animation-duration: 1s; animation-delay: -0.75s; animation-direction: normal;">
<d:name class="ld ld-skew" style="transform-origin: 50px 50px 0px; animation-duration: 1s; animation-delay: -0.666667s; animation-direction: normal;">language,chinese,diallect,translation</d:name>
<d:tags class="ld ld-skew" style="transform-origin: 50px 50px 0px; animation-duration: 1s; animation-delay: -0.583333s; animation-direction: normal;">rf,language,chinese,diallect,translation</d:tags>
<d:license class="ld ld-skew" style="transform-origin: 50px 50px 0px; animation-duration: 1s; animation-delay: -0.5s; animation-direction: normal;">conversation</d:license>
<d:slug class="ld ld-skew" style="transform-origin: 50px 50px 0px; animation-duration: 1s; animation-delay: -0.416667s; animation-direction: normal;">gizw4l</d:slug>
</metadata></g></g></g></g><style type="text/css" class="ld ld-skew" style="transform-origin: 50px 50px 0px; animation-duration: 1s; animation-delay: -0.333333s; animation-direction: normal;">path,ellipse,circle,rect,polygon,polyline,line { stroke-width: 0; }@keyframes ld-skew {
  0%, 50%, 100% {
    animation-timing-function: cubic-bezier(0.4, 0, 1, 0.6);
  }
  25%, 75% {
    animation-timing-function: cubic-bezier(0, 0.4, 0.6, 1);
  }
  0% {
    -webkit-transform: skewX(20deg) scale(1);
    transform: skewX(20deg) scale(1);
  }
  25% {
    -webkit-transform: skewX(0deg) scale(0.9);
    transform: skewX(0deg) scale(0.9);
  }
  50% {
    -webkit-transform: skewX(-20deg) scale(1);
    transform: skewX(-20deg) scale(1);
  }
  75% {
    -webkit-transform: skewX(0deg) scale(0.9);
    transform: skewX(0deg) scale(0.9);
  }
  100% {
    -webkit-transform: skewX(20deg) scale(1);
    transform: skewX(20deg) scale(1);
  }
}
@-webkit-keyframes ld-skew {
  0%, 50%, 100% {
    animation-timing-function: cubic-bezier(0.4, 0, 1, 0.6);
  }
  25%, 75% {
    animation-timing-function: cubic-bezier(0, 0.4, 0.6, 1);
  }
  0% {
    -webkit-transform: skewX(20deg) scale(1);
    transform: skewX(20deg) scale(1);
  }
  25% {
    -webkit-transform: skewX(0deg) scale(0.9);
    transform: skewX(0deg) scale(0.9);
  }
  50% {
    -webkit-transform: skewX(-20deg) scale(1);
    transform: skewX(-20deg) scale(1);
  }
  75% {
    -webkit-transform: skewX(0deg) scale(0.9);
    transform: skewX(0deg) scale(0.9);
  }
  100% {
    -webkit-transform: skewX(20deg) scale(1);
    transform: skewX(20deg) scale(1);
  }
}
.ld.ld-skew {
  -webkit-animation: ld-skew 1s infinite;
  animation: ld-skew 1s infinite;
}
</style></svg></svg>