<svg class="ldi-yfl4lz" width="100%" height="100%" xmlns="http://www.w3.org/2000/svg" xmlns:xlink="http://www.w3.org/1999/xlink" viewBox="0 0 100 100" preserveAspectRatio="xMidYMid"><!--?xml version="1.0" encoding="utf-8"?--><!--Generator: Adobe Illustrator 21.0.0, SVG Export Plug-In . SVG Version: 6.00 Build 0)--><svg version="1.1" id="Layer_1" xmlns="http://www.w3.org/2000/svg" xmlns:xlink="http://www.w3.org/1999/xlink" x="0px" y="0px" viewBox="0 0 100 100" style="transform-origin: 50px 50px 0px;" xml:space="preserve"><g style="transform-origin: 50px 50px 0px;"><g style="transform-origin: 50px 50px 0px; transform: scale(0.6);"><g style="transform-origin: 50px 50px 0px;"><g><style type="text/css" class="ld ld-fade" style="transform-origin: 50px 50px 0px; animation-duration: 1s; animation-delay: -1s; animation-direction: normal;">.st0{fill:#333}.st1,.st2{stroke-width:3.5;stroke-miterlimit:10}.st1{fill:url(#SVGID_1_);stroke:#333}.st2{opacity:.5;stroke:#000}.st3{fill:#666766;stroke:#333}.st3,.st4,.st5{stroke-width:3.5;stroke-miterlimit:10}.st4{opacity:.5;stroke-linejoin:round;stroke:#000}.st5{fill:none;stroke:#333;stroke-linecap:round}.st6{opacity:.5}.st7,.st8{stroke:#333;stroke-width:3.5}.st7{stroke-miterlimit:10;fill:none}.st8{fill:#849b87}.st10,.st11,.st8,.st9{stroke-miterlimit:10}.st9{opacity:.2;stroke-width:3.5;stroke-linejoin:round;stroke:#000}.st10,.st11{stroke:#333}.st10{stroke-width:3.5;fill:#e15c64}.st11{fill:#fff}.st11,.st12,.st13{stroke-width:3.5}.st12{opacity:.2;stroke-linecap:round;stroke-linejoin:round;stroke-miterlimit:10;stroke:#000}.st13{fill:#acbd81;stroke:#333}.st13,.st14,.st15,.st16{stroke-miterlimit:10}.st14{fill:#e0e0e0;stroke:#333;stroke-width:5.6375}.st15,.st16{stroke-width:5.638;stroke-linejoin:round}.st15{fill:#f0d848;stroke:#333}.st16{opacity:.2;stroke:#000;stroke-linecap:round}.st17,.st18,.st19{fill:#f4e6c8;stroke:#333;stroke-width:3.5;stroke-miterlimit:10}.st18,.st19{stroke:#fff;stroke-linecap:round}.st19{stroke:#f47e5f}.st20{fill:#acbd81}.st21{fill:#e0e0e0;stroke:#333;stroke-width:3.5;stroke-miterlimit:10}.st22{fill:#b92025}.st23,.st24{fill:none;stroke:#333;stroke-width:9;stroke-linecap:round;stroke-miterlimit:10}.st24{stroke-width:6}.st25{fill:#a0c8d7}.st26{opacity:.2}.st27,.st28{stroke-width:3.5}.st27{opacity:.2;stroke:#000;stroke-miterlimit:10}.st28{fill-rule:evenodd;clip-rule:evenodd;fill:#ffdc6e}.st28,.st29,.st30{stroke:#333;stroke-miterlimit:10}.st29{stroke-linecap:round;fill:none;stroke-width:2.8104}.st30{fill:#fff;stroke-width:3.7002}.st31,.st32{fill-rule:evenodd;clip-rule:evenodd;stroke-width:3.5}.st31{fill:none;stroke-linecap:round;stroke-miterlimit:10;stroke:#fff}.st32{opacity:.2;stroke:#000;stroke-linejoin:round}.st32,.st33,.st34,.st35{stroke-miterlimit:10}.st33{fill:#849b87;stroke:#333;stroke-width:3.7002}.st34,.st35{stroke-width:3.7}.st34{fill:#849b87;stroke-linecap:round;stroke:#fff}.st35{opacity:.2;stroke:#000}.st36{fill:#e0e0e0}.st37{fill:#fff}.st38,.st39{fill:#acbd81;stroke:#333;stroke-width:3.5;stroke-linecap:round;stroke-linejoin:round;stroke-miterlimit:10}.st39{fill:none}.st40{fill:#f4e6c8}.st41{fill:#acbd81;stroke:#fff;stroke-width:3.5;stroke-linecap:round;stroke-linejoin:round;stroke-miterlimit:10}.st42{fill:#67503b}.st43{fill:#a0c8d7;stroke:#333}.st43,.st44,.st45,.st46,.st47,.st48,.st49{stroke-width:3.5;stroke-miterlimit:10}.st44{stroke-linecap:round;fill:#a0c8d7;stroke:#fff}.st45,.st46,.st47,.st48,.st49{fill:#f47e5f;stroke:#333}.st46,.st47,.st48,.st49{fill:none;stroke:#fff;stroke-linecap:round}.st47,.st48,.st49{fill:#e0e0e0;stroke:#333}.st48,.st49{fill:#fff}.st49{fill:#e0e0e0;stroke:#fff}.st50{fill:#fcdc4f}.st51{fill:#407cae}.st52{fill:none}.st53{fill:#fefefe}.st54{fill:none;stroke:#a0c8d7;stroke-width:3.5;stroke-miterlimit:10}.st55,.st56{stroke-linecap:round}.st55{stroke:#fff;stroke-width:2.5;stroke-miterlimit:10;fill:none}.st56{fill:#f4e6c8}.st56,.st57,.st58{stroke:#333;stroke-width:3.5;stroke-miterlimit:10}.st57{stroke-linecap:round;fill:#f47e5f}.st58{fill:#f7b26a}.st59{fill:#849b87}.st60{fill:#e15c64}.st61,.st62,.st63,.st64{fill:none;stroke:#fff;stroke-width:2.1185;stroke-miterlimit:10}.st62,.st63,.st64{stroke-width:2.3545}.st63,.st64{fill:#fff}.st64{fill:#f4e6c8;stroke:#333;stroke-width:5.6375}.st65{fill:#c33837;stroke:#333;stroke-width:5.638;stroke-linecap:round;stroke-linejoin:round}.st65,.st66,.st67,.st68{stroke-miterlimit:10}.st66{opacity:.2;stroke:#000;stroke-linejoin:round;stroke-width:5.638}.st67,.st68{stroke-width:3.5}.st67{fill:#f47e5f;stroke-linecap:round;stroke:#fff}.st68{stroke:#333}.st69{fill:#070404}.st70{fill:#c42026}.st71{fill:#010101}.st72{opacity:.4}.st73{fill:#666766}.st74,.st75,.st76,.st77{fill:none;stroke-miterlimit:10}.st74{stroke:#fff;stroke-linecap:round;stroke-width:3}.st75,.st76,.st77{stroke-width:3.5}.st75{stroke-linejoin:round;stroke:#333}.st76,.st77{stroke:#e0e0e0}.st77{stroke:#e15c64}.st78{fill:none;stroke:#77a4bd}.st78,.st79,.st80{stroke-width:3.5;stroke-miterlimit:10}.st79{stroke-linejoin:round;fill:none;stroke:#f4e6c8}.st80{fill:#acbd81;stroke:#fff;stroke-linecap:round}.st81{stroke:#333434;stroke-linejoin:round}.st81,.st82,.st83{fill:#77a4bd;stroke-width:3.5;stroke-miterlimit:10}.st82{stroke-linejoin:round;stroke:#fff}.st83{stroke:#e0e0e0}.st83,.st84,.st85,.st86{stroke-linejoin:round}.st84{fill:none;stroke-width:3.5;stroke-linecap:round;stroke-miterlimit:10;stroke:#e0e0e0}.st85,.st86{stroke:#333}.st85{stroke-width:3.5;stroke-miterlimit:10;fill:#e0e0e0}.st86{fill:#e15c64}.st86,.st87,.st88,.st89,.st90,.st91{stroke-width:3.5;stroke-miterlimit:10}.st87{fill:#f7b26a;stroke-linecap:round;stroke:#fff}.st88,.st89,.st90,.st91{stroke:#000}.st89,.st90,.st91{fill-rule:evenodd;clip-rule:evenodd;fill:#fff;stroke:#333}.st90,.st91{fill:#e0e0e0}.st91{fill:none;stroke:#fff;stroke-linejoin:round}.st91,.st92,.st93{stroke-linecap:round}.st92{stroke-width:3.5;stroke-linejoin:round;stroke-miterlimit:10;fill:none;stroke:#fff}.st93{fill:#67503b;stroke:#333}.st93,.st94,.st95,.st96{stroke-width:3.5;stroke-miterlimit:10}.st94{stroke-linecap:round;fill:#67503b;stroke:#fff}.st95,.st96{fill:#333;stroke:#333}.st96{fill:url(#SVGID_2_)}.st97{fill:#f47e5f}.st98,.st99{stroke-miterlimit:10}.st98{opacity:.2;stroke-width:3.5;stroke-linecap:round;stroke:#000}.st99{fill:#fff;stroke:#333}.st100{opacity:.3}.st101{stroke:#333;stroke-miterlimit:10}.st102{fill:#e6e6e6}</style><g class="ld ld-fade" style="transform-origin: 50px 50px 0px; animation-duration: 1s; animation-delay: -0.986111s; animation-direction: normal;"><path class="st89" d="M77.853,48.935c0.625-1.971,0.965-4.069,0.965-6.247c0-11.402-9.243-20.645-20.645-20.645 c-7.9,0-14.76,4.439-18.231,10.957c-1.305-0.411-2.693-0.634-4.134-0.634c-7.601,0-13.763,6.162-13.763,13.763 c0,0.952,0.097,1.881,0.281,2.779C15.343,50.014,10,56.041,10,63.333c0,8.076,6.547,14.624,14.624,14.624h50.753 C83.453,77.957,90,71.41,90,63.333C90,56.103,84.747,50.113,77.853,48.935z" fill="rgb(255, 255, 255)" stroke="rgb(51, 51, 51)" style="fill: rgb(255, 255, 255); stroke: rgb(51, 51, 51);"></path></g><g class="ld ld-fade" style="transform-origin: 50px 50px 0px; animation-duration: 1s; animation-delay: -0.972222s; animation-direction: normal;"><path class="st52" d="M14.437,66.899c-0.127-0.232-0.279-0.431-0.455-0.6c-0.176-0.167-0.378-0.299-0.604-0.392 c-0.226-0.094-0.48-0.141-0.761-0.141c-0.218,0-0.419,0.048-0.613,0.113c0.216,1.073,0.577,2.091,1.043,3.05l1.704-1.26 C14.669,67.387,14.564,67.13,14.437,66.899z"></path></g><g class="ld ld-fade" style="transform-origin: 50px 50px 0px; animation-duration: 1s; animation-delay: -0.958333s; animation-direction: normal;"><path class="st52" d="M51.695,53.722c-0.127-0.232-0.279-0.431-0.455-0.6c-0.177-0.167-0.378-0.299-0.604-0.392 c-0.226-0.094-0.48-0.141-0.761-0.141c-0.375,0-0.716,0.091-1.021,0.273c-0.307,0.182-0.567,0.454-0.782,0.815 c-0.215,0.361-0.381,0.808-0.496,1.34s-0.174,1.148-0.174,1.848c0,0.171,0.001,0.342,0.004,0.513s0.013,0.336,0.029,0.496 l4.574-3.383C51.926,54.21,51.822,53.954,51.695,53.722z"></path></g><g class="ld ld-fade" style="transform-origin: 50px 50px 0px; animation-duration: 1s; animation-delay: -0.944444s; animation-direction: normal;"><path class="st52" d="M84.659,56.866c0,0.171,0.001,0.342,0.004,0.513c0.003,0.171,0.013,0.336,0.029,0.496l1.676-1.24 c-0.42-0.689-0.906-1.333-1.446-1.93c-0.032,0.101-0.065,0.199-0.09,0.312C84.717,55.55,84.659,56.165,84.659,56.866z"></path></g><g class="ld ld-fade" style="transform-origin: 50px 50px 0px; animation-duration: 1s; animation-delay: -0.930556s; animation-direction: normal;"><path class="st52" d="M15.071,69.584c-0.015-0.185-0.029-0.366-0.046-0.542l-1.361,1.011c0.38,0.617,0.807,1.2,1.282,1.743 c0.092-0.488,0.145-1.032,0.145-1.654C15.091,69.954,15.083,69.768,15.071,69.584z"></path></g><g class="ld ld-fade" style="transform-origin: 50px 50px 0px; animation-duration: 1s; animation-delay: -0.916667s; animation-direction: normal;"><path class="st52" d="M52.282,55.865l-4.574,3.4c0.083,0.287,0.188,0.551,0.314,0.794c0.127,0.243,0.279,0.451,0.459,0.624 c0.179,0.175,0.383,0.31,0.612,0.406s0.49,0.144,0.782,0.144c0.375,0,0.716-0.091,1.021-0.273c0.307-0.182,0.567-0.452,0.782-0.811 c0.215-0.358,0.38-0.803,0.496-1.336c0.116-0.531,0.174-1.148,0.174-1.848c0-0.188-0.007-0.373-0.02-0.558 C52.313,56.222,52.299,56.041,52.282,55.865z"></path></g><g class="ld ld-fade" style="transform-origin: 50px 50px 0px; animation-duration: 1s; animation-delay: -0.902778s; animation-direction: normal;"><path class="st52" d="M61.009,66.899c-0.127-0.232-0.279-0.431-0.455-0.6c-0.177-0.167-0.378-0.299-0.604-0.392 s-0.48-0.141-0.761-0.141c-0.375,0-0.716,0.091-1.021,0.273c-0.307,0.182-0.567,0.454-0.782,0.815s-0.38,0.808-0.496,1.34 c-0.116,0.532-0.174,1.148-0.174,1.848c0,0.171,0.001,0.342,0.004,0.513s0.013,0.336,0.029,0.496l4.574-3.383 C61.241,67.387,61.136,67.13,61.009,66.899z"></path></g><g class="ld ld-fade" style="transform-origin: 50px 50px 0px; animation-duration: 1s; animation-delay: -0.888889s; animation-direction: normal;"><path class="st52" d="M13.639,60.96c0.307-0.182,0.567-0.452,0.782-0.811s0.38-0.803,0.496-1.336 c0.116-0.531,0.174-1.148,0.174-1.848c0-0.188-0.007-0.373-0.02-0.558c-0.015-0.185-0.029-0.366-0.046-0.542l-1.673,1.243 c-0.678,1.231-1.164,2.58-1.41,4.012c0.203,0.07,0.425,0.113,0.675,0.113C12.992,61.233,13.333,61.142,13.639,60.96z"></path></g><g class="ld ld-fade" style="transform-origin: 50px 50px 0px; animation-duration: 1s; animation-delay: -0.875s; animation-direction: normal;"><path class="st52" d="M51.695,40.546c-0.127-0.232-0.279-0.431-0.455-0.6c-0.177-0.167-0.378-0.299-0.604-0.392 c-0.226-0.094-0.48-0.141-0.761-0.141c-0.375,0-0.716,0.091-1.021,0.273c-0.307,0.182-0.567,0.454-0.782,0.815 s-0.381,0.808-0.496,1.34s-0.174,1.148-0.174,1.848c0,0.171,0.001,0.342,0.004,0.513s0.013,0.336,0.029,0.496l4.574-3.383 C51.926,41.034,51.822,40.778,51.695,40.546z"></path></g><g class="ld ld-fade" style="transform-origin: 50px 50px 0px; animation-duration: 1s; animation-delay: -0.861111s; animation-direction: normal;"><path class="st52" d="M52.282,42.688l-4.574,3.4c0.083,0.287,0.188,0.551,0.314,0.794c0.127,0.243,0.279,0.451,0.459,0.624 c0.179,0.175,0.383,0.31,0.612,0.406c0.229,0.096,0.49,0.144,0.782,0.144c0.375,0,0.716-0.091,1.021-0.273 c0.307-0.182,0.567-0.452,0.782-0.811c0.215-0.358,0.38-0.803,0.496-1.336c0.116-0.531,0.174-1.148,0.174-1.848 c0-0.188-0.007-0.373-0.02-0.558C52.313,43.046,52.299,42.865,52.282,42.688z"></path></g><g class="ld ld-fade" style="transform-origin: 50px 50px 0px; animation-duration: 1s; animation-delay: -0.847222s; animation-direction: normal;"><path class="st52" d="M61.596,69.041l-4.574,3.4c0.083,0.287,0.188,0.552,0.314,0.794c0.127,0.243,0.279,0.451,0.459,0.624 c0.179,0.175,0.383,0.31,0.612,0.406c0.229,0.096,0.49,0.144,0.782,0.144c0.375,0,0.716-0.091,1.021-0.273 c0.307-0.182,0.567-0.452,0.782-0.811c0.215-0.358,0.38-0.803,0.496-1.336c0.116-0.531,0.174-1.148,0.174-1.848 c0-0.188-0.007-0.373-0.02-0.558C61.628,69.399,61.613,69.218,61.596,69.041z"></path></g><g class="ld ld-fade" style="transform-origin: 50px 50px 0px; animation-duration: 1s; animation-delay: -0.833333s; animation-direction: normal;"><path class="st52" d="M33.066,40.546c-0.127-0.232-0.278-0.431-0.455-0.6c-0.176-0.167-0.378-0.299-0.604-0.392 c-0.226-0.094-0.48-0.141-0.761-0.141c-0.375,0-0.716,0.091-1.021,0.273c-0.307,0.182-0.567,0.454-0.782,0.815 c-0.215,0.361-0.381,0.808-0.496,1.34c-0.116,0.532-0.174,1.148-0.174,1.848c0,0.171,0.001,0.342,0.004,0.513 s0.013,0.336,0.029,0.496l4.574-3.383C33.298,41.034,33.193,40.778,33.066,40.546z"></path></g><g class="ld ld-fade" style="transform-origin: 50px 50px 0px; animation-duration: 1s; animation-delay: -0.819444s; animation-direction: normal;"><path class="st52" d="M33.653,42.688l-4.574,3.4c0.083,0.287,0.188,0.551,0.314,0.794c0.127,0.243,0.279,0.451,0.459,0.624 c0.179,0.175,0.383,0.31,0.612,0.406c0.229,0.096,0.49,0.144,0.782,0.144c0.375,0,0.716-0.091,1.021-0.273 c0.307-0.182,0.567-0.452,0.782-0.811c0.215-0.358,0.381-0.803,0.496-1.336c0.116-0.531,0.174-1.148,0.174-1.848 c0-0.188-0.007-0.373-0.02-0.558C33.685,43.046,33.67,42.865,33.653,42.688z"></path></g><g class="ld ld-fade" style="transform-origin: 50px 50px 0px; animation-duration: 1s; animation-delay: -0.805556s; animation-direction: normal;"><path class="st52" d="M42.968,69.041l-4.574,3.4c0.083,0.287,0.188,0.552,0.314,0.794c0.127,0.243,0.279,0.451,0.459,0.624 c0.179,0.175,0.383,0.31,0.612,0.406s0.49,0.144,0.782,0.144c0.375,0,0.716-0.091,1.021-0.273c0.307-0.182,0.567-0.452,0.782-0.811 c0.215-0.358,0.381-0.803,0.496-1.336c0.116-0.531,0.174-1.148,0.174-1.848c0-0.188-0.007-0.373-0.02-0.558 C42.999,69.399,42.984,69.218,42.968,69.041z"></path></g><g class="ld ld-fade" style="transform-origin: 50px 50px 0px; animation-duration: 1s; animation-delay: -0.791667s; animation-direction: normal;"><path class="st52" d="M33.066,53.722c-0.127-0.232-0.278-0.431-0.455-0.6c-0.176-0.167-0.378-0.299-0.604-0.392 c-0.226-0.094-0.48-0.141-0.761-0.141c-0.375,0-0.716,0.091-1.021,0.273c-0.307,0.182-0.567,0.454-0.782,0.815 c-0.215,0.361-0.381,0.808-0.496,1.34c-0.116,0.532-0.174,1.148-0.174,1.848c0,0.171,0.001,0.342,0.004,0.513 s0.013,0.336,0.029,0.496l4.574-3.383C33.298,54.21,33.193,53.954,33.066,53.722z"></path></g><g class="ld ld-fade" style="transform-origin: 50px 50px 0px; animation-duration: 1s; animation-delay: -0.777778s; animation-direction: normal;"><path class="st52" d="M33.653,55.865l-4.574,3.4c0.083,0.287,0.188,0.551,0.314,0.794c0.127,0.243,0.279,0.451,0.459,0.624 c0.179,0.175,0.383,0.31,0.612,0.406s0.49,0.144,0.782,0.144c0.375,0,0.716-0.091,1.021-0.273c0.307-0.182,0.567-0.452,0.782-0.811 c0.215-0.358,0.381-0.803,0.496-1.336c0.116-0.531,0.174-1.148,0.174-1.848c0-0.188-0.007-0.373-0.02-0.558 C33.685,56.222,33.67,56.041,33.653,55.865z"></path></g><g class="ld ld-fade" style="transform-origin: 50px 50px 0px; animation-duration: 1s; animation-delay: -0.763889s; animation-direction: normal;"><path class="st52" d="M23.752,66.899c-0.127-0.232-0.279-0.431-0.455-0.6c-0.176-0.167-0.378-0.299-0.604-0.392 c-0.226-0.094-0.48-0.141-0.761-0.141c-0.375,0-0.716,0.091-1.021,0.273c-0.307,0.182-0.567,0.454-0.782,0.815 c-0.215,0.361-0.38,0.808-0.496,1.34c-0.116,0.532-0.174,1.148-0.174,1.848c0,0.171,0.001,0.342,0.004,0.513 s0.013,0.336,0.029,0.496l4.574-3.383C23.983,67.387,23.878,67.13,23.752,66.899z"></path></g><g class="ld ld-fade" style="transform-origin: 50px 50px 0px; animation-duration: 1s; animation-delay: -0.75s; animation-direction: normal;"><path class="st52" d="M24.339,69.041l-4.574,3.4c0.083,0.287,0.188,0.552,0.314,0.794c0.127,0.243,0.279,0.451,0.459,0.624 c0.179,0.175,0.383,0.31,0.612,0.406c0.229,0.096,0.49,0.144,0.782,0.144c0.375,0,0.716-0.091,1.021-0.273 c0.307-0.182,0.567-0.452,0.782-0.811s0.381-0.803,0.496-1.336c0.116-0.531,0.174-1.148,0.174-1.848c0-0.188-0.007-0.373-0.02-0.558 C24.37,69.399,24.356,69.218,24.339,69.041z"></path></g><g class="ld ld-fade" style="transform-origin: 50px 50px 0px; animation-duration: 1s; animation-delay: -0.736111s; animation-direction: normal;"><path class="st52" d="M42.38,66.899c-0.127-0.232-0.279-0.431-0.455-0.6c-0.176-0.167-0.378-0.299-0.604-0.392 c-0.226-0.094-0.48-0.141-0.761-0.141c-0.375,0-0.716,0.091-1.021,0.273c-0.307,0.182-0.567,0.454-0.782,0.815 c-0.215,0.361-0.381,0.808-0.496,1.34c-0.116,0.532-0.174,1.148-0.174,1.848c0,0.171,0.001,0.342,0.004,0.513 s0.013,0.336,0.029,0.496l4.574-3.383C42.612,67.387,42.507,67.13,42.38,66.899z"></path></g><g class="ld ld-fade" style="transform-origin: 50px 50px 0px; animation-duration: 1s; animation-delay: -0.722222s; animation-direction: normal;"><path class="st52" d="M80.225,55.865l-4.574,3.4c0.083,0.287,0.188,0.551,0.314,0.794c0.127,0.243,0.279,0.451,0.459,0.624 c0.179,0.175,0.383,0.31,0.612,0.406c0.229,0.096,0.49,0.144,0.782,0.144c0.375,0,0.716-0.091,1.021-0.273 c0.307-0.182,0.567-0.452,0.782-0.811s0.38-0.803,0.496-1.336c0.116-0.531,0.174-1.148,0.174-1.848c0-0.188-0.007-0.373-0.02-0.558 C80.256,56.222,80.242,56.041,80.225,55.865z"></path></g><g class="ld ld-fade" style="transform-origin: 50px 50px 0px; animation-duration: 1s; animation-delay: -0.708333s; animation-direction: normal;"><path class="st52" d="M79.638,53.722c-0.127-0.232-0.279-0.431-0.455-0.6c-0.176-0.167-0.378-0.299-0.604-0.392 c-0.226-0.094-0.48-0.141-0.761-0.141c-0.375,0-0.716,0.091-1.021,0.273c-0.307,0.182-0.567,0.454-0.782,0.815 c-0.215,0.361-0.38,0.808-0.496,1.34c-0.116,0.532-0.174,1.148-0.174,1.848c0,0.171,0.001,0.342,0.004,0.513 c0.003,0.171,0.013,0.336,0.029,0.496l4.574-3.383C79.869,54.21,79.765,53.954,79.638,53.722z"></path></g><g class="ld ld-fade" style="transform-origin: 50px 50px 0px; animation-duration: 1s; animation-delay: -0.694444s; animation-direction: normal;"><path class="st52" d="M47.435,31.522l4.574-3.383c-0.083-0.281-0.188-0.538-0.314-0.769s-0.279-0.431-0.455-0.6 c-0.177-0.167-0.378-0.299-0.604-0.392c-0.226-0.094-0.48-0.141-0.761-0.141c-0.375,0-0.716,0.091-1.021,0.273 c-0.307,0.182-0.567,0.454-0.782,0.815s-0.381,0.808-0.496,1.34s-0.174,1.148-0.174,1.848c0,0.171,0.001,0.342,0.004,0.513 S47.418,31.362,47.435,31.522z"></path></g><g class="ld ld-fade" style="transform-origin: 50px 50px 0px; animation-duration: 1s; animation-delay: -0.680556s; animation-direction: normal;"><path class="st52" d="M80.225,69.041l-4.574,3.4c0.083,0.287,0.188,0.552,0.314,0.794c0.127,0.243,0.279,0.451,0.459,0.624 c0.179,0.175,0.383,0.31,0.612,0.406c0.229,0.096,0.49,0.144,0.782,0.144c0.375,0,0.716-0.091,1.021-0.273 c0.307-0.182,0.567-0.452,0.782-0.811s0.38-0.803,0.496-1.336c0.116-0.531,0.174-1.148,0.174-1.848c0-0.188-0.007-0.373-0.02-0.558 C80.256,69.399,80.242,69.218,80.225,69.041z"></path></g><g class="ld ld-fade" style="transform-origin: 50px 50px 0px; animation-duration: 1s; animation-delay: -0.666667s; animation-direction: normal;"><path class="st52" d="M84.121,67.668l-0.529-1.224l3.441-1.812h1.151c0.043-0.427,0.066-0.861,0.066-1.299 c0-0.356-0.019-0.707-0.047-1.056c-0.354,0.11-0.728,0.189-1.154,0.189c-0.579,0-1.106-0.109-1.58-0.327 c-0.474-0.217-0.88-0.552-1.216-1.005c-0.336-0.452-0.596-1.029-0.778-1.729c-0.182-0.7-0.273-1.53-0.273-2.49 c0-0.827,0.084-1.583,0.252-2.267c0.093-0.377,0.222-0.71,0.367-1.026c-1.727-1.498-3.866-2.553-6.264-2.963l-1.98-0.338 l0.456-1.437c-0.419-0.216-0.789-0.517-1.094-0.927c-0.336-0.452-0.596-1.028-0.778-1.729c-0.182-0.7-0.273-1.53-0.273-2.49 c0-0.827,0.084-1.583,0.252-2.267c0.168-0.684,0.419-1.269,0.754-1.758c0.333-0.487,0.751-0.865,1.253-1.132 c0.129-0.069,0.275-0.109,0.418-0.154c-0.24-1.035-0.552-2.042-0.955-3.005c-0.245-0.178-0.476-0.379-0.671-0.641 c-0.336-0.452-0.596-1.029-0.778-1.729c-0.043-0.167-0.069-0.359-0.097-0.546c-1.179-1.833-2.665-3.444-4.386-4.772v6.89h2.415v1.34 h-6.791v-1.34h2.779v-7.892l-2.589,1.406l-0.529-1.224l1.886-0.993c-2.602-1.352-5.548-2.129-8.677-2.129 c-2.478,0-4.877,0.491-7.092,1.388c0.156,0.043,0.313,0.083,0.458,0.149c0.474,0.219,0.88,0.555,1.216,1.009 c0.336,0.456,0.596,1.033,0.778,1.733c0.182,0.7,0.273,1.53,0.273,2.49c0,0.827-0.083,1.582-0.248,2.262 c-0.165,0.682-0.416,1.267-0.753,1.754c-0.336,0.489-0.755,0.867-1.253,1.134c-0.5,0.267-1.085,0.401-1.758,0.401 c-0.579,0-1.106-0.109-1.58-0.327c-0.474-0.217-0.88-0.552-1.216-1.005c-0.336-0.452-0.596-1.029-0.778-1.729 c-0.182-0.7-0.273-1.53-0.273-2.49c0-0.827,0.084-1.583,0.252-2.267c0.027-0.11,0.065-0.207,0.101-0.307 c-1.819,1.471-3.371,3.295-4.564,5.4v1.234h2.415v1.34h-6.791v-1.34h1.892c-1.116-0.334-2.273-0.508-3.444-0.508 c-0.485,0-0.96,0.037-1.43,0.093c-0.064,0.127-0.125,0.257-0.202,0.369c-0.336,0.489-0.755,0.867-1.253,1.134 c-0.5,0.267-1.085,0.401-1.758,0.401c-0.543,0-1.036-0.105-1.487-0.297c-3.516,2.098-5.884,5.929-5.884,10.313 c0,0.56,0.053,1.118,0.13,1.672h1.599v1.34h-1.365l0.247,1.21l-1.807,0.286c-2.53,0.401-4.773,1.514-6.56,3.106 c0.086,0.216,0.171,0.433,0.236,0.683c0.182,0.7,0.273,1.53,0.273,2.49c0,0.827-0.083,1.582-0.248,2.262 c-0.165,0.682-0.416,1.267-0.753,1.754c-0.336,0.489-0.755,0.867-1.253,1.134c-0.5,0.267-1.086,0.401-1.758,0.401 c-0.26,0-0.504-0.032-0.742-0.077c-0.022,0.312-0.042,0.626-0.042,0.944c0,0.439,0.023,0.872,0.066,1.299 c0.278-0.061,0.569-0.099,0.884-0.099c0.579,0,1.106,0.109,1.58,0.326c0.474,0.219,0.88,0.555,1.216,1.009 c0.336,0.456,0.596,1.033,0.778,1.733c0.182,0.7,0.273,1.53,0.273,2.49c0,0.827-0.083,1.582-0.248,2.262 c-0.052,0.216-0.126,0.408-0.198,0.602c2.273,2.016,5.253,3.251,8.523,3.251h50.752c4.894,0,9.157-2.746,11.334-6.777v-3.168 L84.121,67.668z M21.833,51.456h1.274v9.521h2.415v1.34h-6.791v-1.34h2.779v-7.892l-2.589,1.406l-0.529-1.224L21.833,51.456z M25.613,72.354c-0.165,0.682-0.416,1.267-0.753,1.754c-0.336,0.489-0.755,0.867-1.253,1.134c-0.5,0.267-1.085,0.401-1.758,0.401 c-0.579,0-1.106-0.109-1.58-0.327c-0.474-0.217-0.88-0.552-1.216-1.005c-0.336-0.452-0.596-1.029-0.778-1.729 c-0.182-0.7-0.273-1.53-0.273-2.49c0-0.827,0.084-1.583,0.252-2.267c0.168-0.684,0.419-1.269,0.754-1.758 c0.333-0.487,0.751-0.865,1.253-1.132s1.086-0.402,1.754-0.402c0.579,0,1.106,0.109,1.58,0.326c0.474,0.219,0.88,0.555,1.216,1.009 c0.336,0.456,0.596,1.033,0.778,1.733c0.182,0.7,0.273,1.53,0.273,2.49C25.861,70.919,25.778,71.674,25.613,72.354z M34.836,75.494 h-6.791v-1.34h2.779v-7.892l-2.589,1.406l-0.529-1.224l3.441-1.812h1.274v9.521h2.415V75.494z M34.927,59.177 c-0.165,0.682-0.416,1.267-0.753,1.754c-0.336,0.489-0.755,0.867-1.253,1.134c-0.5,0.267-1.085,0.401-1.758,0.401 c-0.579,0-1.106-0.109-1.58-0.327c-0.474-0.217-0.88-0.552-1.216-1.005c-0.336-0.452-0.596-1.029-0.778-1.729 s-0.273-1.53-0.273-2.49c0-0.827,0.084-1.583,0.252-2.267c0.168-0.684,0.419-1.269,0.754-1.758c0.333-0.487,0.751-0.865,1.253-1.132 s1.086-0.402,1.754-0.402c0.579,0,1.106,0.109,1.58,0.326c0.474,0.219,0.88,0.555,1.216,1.009c0.336,0.456,0.596,1.033,0.778,1.733 c0.182,0.7,0.273,1.53,0.273,2.49C35.175,57.743,35.093,58.497,34.927,59.177z M34.927,46.001c-0.165,0.682-0.416,1.267-0.753,1.754 c-0.336,0.489-0.755,0.867-1.253,1.134c-0.5,0.267-1.085,0.401-1.758,0.401c-0.579,0-1.106-0.109-1.58-0.327 c-0.474-0.217-0.88-0.552-1.216-1.005c-0.336-0.452-0.596-1.028-0.778-1.729s-0.273-1.53-0.273-2.49 c0-0.827,0.084-1.583,0.252-2.267c0.168-0.684,0.419-1.269,0.754-1.758c0.333-0.487,0.751-0.865,1.253-1.132 c0.502-0.267,1.086-0.402,1.754-0.402c0.579,0,1.106,0.109,1.58,0.326c0.474,0.219,0.88,0.555,1.216,1.009 c0.336,0.456,0.596,1.033,0.778,1.733s0.273,1.53,0.273,2.49C35.175,44.566,35.093,45.321,34.927,46.001z M40.461,38.279h1.274V47.8 h2.415v1.34h-6.791V47.8h2.779v-7.892l-2.589,1.406l-0.529-1.224L40.461,38.279z M40.461,51.456h1.274v9.521h2.415v1.34h-6.791 v-1.34h2.779v-7.892l-2.589,1.406l-0.529-1.224L40.461,51.456z M44.242,72.354c-0.165,0.682-0.416,1.267-0.753,1.754 c-0.336,0.489-0.755,0.867-1.253,1.134c-0.5,0.267-1.085,0.401-1.758,0.401c-0.579,0-1.106-0.109-1.58-0.327 c-0.474-0.217-0.88-0.552-1.216-1.005c-0.336-0.452-0.596-1.029-0.778-1.729c-0.182-0.7-0.273-1.53-0.273-2.49 c0-0.827,0.084-1.583,0.252-2.267c0.168-0.684,0.419-1.269,0.754-1.758c0.333-0.487,0.751-0.865,1.253-1.132 s1.086-0.402,1.754-0.402c0.579,0,1.106,0.109,1.58,0.326c0.474,0.219,0.88,0.555,1.216,1.009c0.336,0.456,0.596,1.033,0.778,1.733 s0.273,1.53,0.273,2.49C44.49,70.919,44.407,71.674,44.242,72.354z M53.465,75.494h-6.791v-1.34h2.779v-7.892l-2.589,1.406 l-0.529-1.224l3.441-1.812h1.274v9.521h2.415V75.494z M53.556,59.177c-0.165,0.682-0.416,1.267-0.753,1.754 c-0.336,0.489-0.755,0.867-1.253,1.134c-0.5,0.267-1.085,0.401-1.758,0.401c-0.579,0-1.106-0.109-1.58-0.327 c-0.474-0.217-0.88-0.552-1.216-1.005c-0.336-0.452-0.596-1.029-0.778-1.729c-0.182-0.7-0.273-1.53-0.273-2.49 c0-0.827,0.084-1.583,0.252-2.267c0.168-0.684,0.419-1.269,0.754-1.758c0.333-0.487,0.751-0.865,1.253-1.132 s1.086-0.402,1.754-0.402c0.579,0,1.106,0.109,1.58,0.326c0.474,0.219,0.88,0.555,1.216,1.009c0.336,0.456,0.596,1.033,0.778,1.733 c0.182,0.7,0.273,1.53,0.273,2.49C53.804,57.743,53.721,58.497,53.556,59.177z M53.556,46.001c-0.165,0.682-0.416,1.267-0.753,1.754 c-0.336,0.489-0.755,0.867-1.253,1.134c-0.5,0.267-1.085,0.401-1.758,0.401c-0.579,0-1.106-0.109-1.58-0.327 c-0.474-0.217-0.88-0.552-1.216-1.005c-0.336-0.452-0.596-1.028-0.778-1.729c-0.182-0.7-0.273-1.53-0.273-2.49 c0-0.827,0.084-1.583,0.252-2.267c0.168-0.684,0.419-1.269,0.754-1.758c0.333-0.487,0.751-0.865,1.253-1.132 c0.502-0.267,1.086-0.402,1.754-0.402c0.579,0,1.106,0.109,1.58,0.326c0.474,0.219,0.88,0.555,1.216,1.009 c0.336,0.456,0.596,1.033,0.778,1.733c0.182,0.7,0.273,1.53,0.273,2.49C53.804,44.566,53.721,45.321,53.556,46.001z M62.87,72.354 c-0.165,0.682-0.416,1.267-0.753,1.754c-0.336,0.489-0.755,0.867-1.253,1.134c-0.5,0.267-1.086,0.401-1.758,0.401 c-0.579,0-1.106-0.109-1.58-0.327c-0.474-0.217-0.88-0.552-1.216-1.005c-0.336-0.452-0.596-1.029-0.778-1.729 c-0.182-0.7-0.273-1.53-0.273-2.49c0-0.827,0.084-1.583,0.252-2.267s0.419-1.269,0.754-1.758c0.333-0.487,0.751-0.865,1.253-1.132 s1.086-0.402,1.754-0.402c0.579,0,1.106,0.109,1.58,0.326c0.474,0.219,0.88,0.555,1.216,1.009c0.336,0.456,0.596,1.033,0.778,1.733 c0.182,0.7,0.273,1.53,0.273,2.49C63.118,70.919,63.036,71.674,62.87,72.354z M62.779,47.8v1.34h-6.791V47.8h2.779v-7.892 l-2.589,1.406l-0.529-1.224l3.441-1.812h1.274V47.8H62.779z M59.09,51.456h1.274v9.521h2.415v1.34h-6.791v-1.34h2.779v-7.892 l-2.589,1.406l-0.529-1.224L59.09,51.456z M62.87,32.824c-0.165,0.682-0.416,1.267-0.753,1.754 c-0.336,0.489-0.755,0.867-1.253,1.134c-0.5,0.267-1.086,0.401-1.758,0.401c-0.579,0-1.106-0.109-1.58-0.327 c-0.474-0.217-0.88-0.552-1.216-1.005c-0.336-0.452-0.596-1.029-0.778-1.729c-0.182-0.7-0.273-1.53-0.273-2.49 c0-0.827,0.084-1.583,0.252-2.267s0.419-1.269,0.754-1.758c0.333-0.487,0.751-0.865,1.253-1.132s1.086-0.402,1.754-0.402 c0.579,0,1.106,0.109,1.58,0.326c0.474,0.219,0.88,0.555,1.216,1.009c0.336,0.456,0.596,1.033,0.778,1.733 c0.182,0.7,0.273,1.53,0.273,2.49C63.118,31.39,63.036,32.144,62.87,32.824z M72.094,75.494h-6.791v-1.34h2.779v-7.892l-2.589,1.406 l-0.529-1.224l3.441-1.812h1.274v9.521h2.415V75.494z M72.094,62.317h-6.791v-1.34h2.779v-7.892l-2.589,1.406l-0.529-1.224 l3.441-1.812h1.274v9.521h2.415V62.317z M72.094,49.141h-6.791V47.8h2.779v-7.892l-2.589,1.406l-0.529-1.224l3.441-1.812h1.274V47.8 h2.415V49.141z M81.499,72.354c-0.165,0.682-0.416,1.267-0.753,1.754c-0.336,0.489-0.755,0.867-1.253,1.134 c-0.5,0.267-1.086,0.401-1.758,0.401c-0.579,0-1.106-0.109-1.58-0.327c-0.474-0.217-0.88-0.552-1.216-1.005 c-0.336-0.452-0.596-1.029-0.778-1.729c-0.182-0.7-0.273-1.53-0.273-2.49c0-0.827,0.084-1.583,0.252-2.267s0.419-1.269,0.754-1.758 c0.333-0.487,0.751-0.865,1.253-1.132c0.502-0.267,1.086-0.402,1.754-0.402c0.579,0,1.106,0.109,1.58,0.326 c0.474,0.219,0.88,0.555,1.216,1.009c0.336,0.456,0.596,1.033,0.778,1.733c0.182,0.7,0.273,1.53,0.273,2.49 C81.747,70.919,81.664,71.674,81.499,72.354z M81.499,59.177c-0.165,0.682-0.416,1.267-0.753,1.754 c-0.336,0.489-0.755,0.867-1.253,1.134c-0.5,0.267-1.086,0.401-1.758,0.401c-0.579,0-1.106-0.109-1.58-0.327 c-0.474-0.217-0.88-0.552-1.216-1.005c-0.336-0.452-0.596-1.029-0.778-1.729c-0.182-0.7-0.273-1.53-0.273-2.49 c0-0.827,0.084-1.583,0.252-2.267c0.168-0.684,0.419-1.269,0.754-1.758c0.333-0.487,0.751-0.865,1.253-1.132 c0.502-0.267,1.086-0.402,1.754-0.402c0.579,0,1.106,0.109,1.58,0.326c0.474,0.219,0.88,0.555,1.216,1.009 c0.336,0.456,0.596,1.033,0.778,1.733c0.182,0.7,0.273,1.53,0.273,2.49C81.747,57.743,81.664,58.497,81.499,59.177z"></path></g><g class="ld ld-fade" style="transform-origin: 50px 50px 0px; animation-duration: 1s; animation-delay: -0.652778s; animation-direction: normal;"><path class="st52" d="M85.279,60.059c0.127,0.243,0.279,0.451,0.459,0.624c0.179,0.175,0.383,0.31,0.612,0.406 c0.229,0.096,0.49,0.144,0.782,0.144c0.331,0,0.631-0.083,0.908-0.226c-0.207-1.139-0.566-2.228-1.054-3.245l-2.021,1.502 C85.048,59.551,85.152,59.816,85.279,60.059z"></path></g><g class="ld ld-fade" style="transform-origin: 50px 50px 0px; animation-duration: 1s; animation-delay: -0.638889s; animation-direction: normal;"><path class="st52" d="M79.638,66.899c-0.127-0.232-0.279-0.431-0.455-0.6c-0.176-0.167-0.378-0.299-0.604-0.392 c-0.226-0.094-0.48-0.141-0.761-0.141c-0.375,0-0.716,0.091-1.021,0.273c-0.307,0.182-0.567,0.454-0.782,0.815 s-0.38,0.808-0.496,1.34c-0.116,0.532-0.174,1.148-0.174,1.848c0,0.171,0.001,0.342,0.004,0.513 c0.003,0.171,0.013,0.336,0.029,0.496l4.574-3.383C79.869,67.387,79.765,67.13,79.638,66.899z"></path></g><g class="ld ld-fade" style="transform-origin: 50px 50px 0px; animation-duration: 1s; animation-delay: -0.625s; animation-direction: normal;"><path class="st52" d="M48.022,33.706c0.127,0.243,0.279,0.451,0.459,0.624c0.179,0.175,0.383,0.31,0.612,0.406 s0.49,0.144,0.782,0.144c0.375,0,0.716-0.091,1.021-0.273c0.307-0.182,0.567-0.452,0.782-0.811c0.215-0.358,0.38-0.803,0.496-1.336 c0.116-0.531,0.174-1.148,0.174-1.848c0-0.188-0.007-0.373-0.02-0.558c-0.015-0.185-0.029-0.366-0.046-0.542l-4.574,3.4 C47.79,33.198,47.895,33.463,48.022,33.706z"></path></g><g class="ld ld-fade" style="transform-origin: 50px 50px 0px; animation-duration: 1s; animation-delay: -0.611111s; animation-direction: normal;"><path class="st52" d="M76.015,40.501c-0.215,0.361-0.38,0.808-0.496,1.34c-0.116,0.532-0.174,1.148-0.174,1.848 c0,0.171,0.001,0.342,0.004,0.513c0.003,0.171,0.013,0.336,0.029,0.496l1.66-1.228c0.011-0.261,0.03-0.521,0.03-0.783 c0-1.025-0.105-2.024-0.263-3.006c-0.003,0.001-0.006,0.002-0.008,0.003C76.49,39.868,76.23,40.14,76.015,40.501z"></path></g><g class="ld ld-fade" style="transform-origin: 50px 50px 0px; animation-duration: 1s; animation-delay: -0.597222s; animation-direction: normal;"><path class="st52" d="M61.596,29.512l-4.574,3.4c0.083,0.287,0.188,0.551,0.314,0.794c0.127,0.243,0.279,0.451,0.459,0.624 c0.179,0.175,0.383,0.31,0.612,0.406c0.229,0.096,0.49,0.144,0.782,0.144c0.375,0,0.716-0.091,1.021-0.273 c0.307-0.182,0.567-0.452,0.782-0.811c0.215-0.358,0.38-0.803,0.496-1.336c0.116-0.531,0.174-1.148,0.174-1.848 c0-0.188-0.007-0.373-0.02-0.558C61.628,29.869,61.613,29.688,61.596,29.512z"></path></g><g class="ld ld-fade" style="transform-origin: 50px 50px 0px; animation-duration: 1s; animation-delay: -0.583333s; animation-direction: normal;"><path class="st52" d="M61.009,27.369c-0.127-0.232-0.279-0.431-0.455-0.6c-0.177-0.167-0.378-0.299-0.604-0.392 s-0.48-0.141-0.761-0.141c-0.375,0-0.716,0.091-1.021,0.273c-0.307,0.182-0.567,0.454-0.782,0.815s-0.38,0.808-0.496,1.34 c-0.116,0.532-0.174,1.148-0.174,1.848c0,0.171,0.001,0.342,0.004,0.513s0.013,0.336,0.029,0.496l4.574-3.383 C61.241,27.857,61.136,27.601,61.009,27.369z"></path></g><g class="ld ld-fade" style="transform-origin: 50px 50px 0px; animation-duration: 1s; animation-delay: -0.569444s; animation-direction: normal;"><path class="st52" d="M75.965,46.882c0.127,0.243,0.279,0.451,0.459,0.624c0.002,0.002,0.005,0.004,0.007,0.006 c0.204-0.773,0.359-1.556,0.464-2.348l-1.244,0.924C75.733,46.375,75.838,46.64,75.965,46.882z"></path></g><g class="ld ld-fade" style="transform-origin: 50px 50px 0px; animation-duration: 1s; animation-delay: -0.555556s; animation-direction: normal;"><path class="st25" d="M32.922,35.712c0.498-0.267,0.916-0.645,1.253-1.134c0.077-0.112,0.138-0.242,0.202-0.369 c-1.702,0.203-3.292,0.767-4.7,1.607c0.451,0.192,0.944,0.297,1.487,0.297C31.836,36.113,32.422,35.979,32.922,35.712z" fill="rgb(160, 200, 215)" style="fill: rgb(160, 200, 215);"></path></g><g class="ld ld-fade" style="transform-origin: 50px 50px 0px; animation-duration: 1s; animation-delay: -0.541667s; animation-direction: normal;"><path class="st25" d="M37.359,35.964h6.791v-1.34h-2.415V33.39c-0.082,0.145-0.171,0.285-0.25,0.433l-0.683,1.283l-1.387-0.436 c-0.054-0.017-0.11-0.029-0.164-0.045h-1.892V35.964z" fill="rgb(160, 200, 215)" style="fill: rgb(160, 200, 215);"></path></g><g class="ld ld-fade" style="transform-origin: 50px 50px 0px; animation-duration: 1s; animation-delay: -0.527778s; animation-direction: normal;"><path class="st25" d="M45.946,30.562c0,0.96,0.091,1.79,0.273,2.49c0.182,0.7,0.441,1.277,0.778,1.729 c0.336,0.452,0.742,0.788,1.216,1.005c0.474,0.218,1.001,0.327,1.58,0.327c0.673,0,1.258-0.134,1.758-0.401 c0.498-0.267,0.916-0.645,1.253-1.134c0.336-0.487,0.587-1.072,0.753-1.754c0.165-0.68,0.248-1.435,0.248-2.262 c0-0.96-0.091-1.789-0.273-2.49c-0.182-0.7-0.441-1.278-0.778-1.733c-0.336-0.454-0.742-0.79-1.216-1.009 c-0.145-0.066-0.302-0.107-0.458-0.149c-1.723,0.698-3.335,1.64-4.781,2.809c-0.036,0.1-0.074,0.196-0.101,0.307 C46.029,28.98,45.946,29.735,45.946,30.562z M52.282,29.512c0.017,0.176,0.031,0.358,0.046,0.542c0.013,0.185,0.02,0.37,0.02,0.558 c0,0.7-0.058,1.317-0.174,1.848c-0.116,0.533-0.281,0.978-0.496,1.336c-0.215,0.358-0.475,0.629-0.782,0.811 c-0.305,0.182-0.646,0.273-1.021,0.273c-0.292,0-0.553-0.048-0.782-0.144s-0.433-0.232-0.612-0.406 c-0.179-0.173-0.332-0.381-0.459-0.624c-0.127-0.243-0.232-0.507-0.314-0.794L52.282,29.512z M47.575,28.664 c0.116-0.532,0.281-0.979,0.496-1.34s0.475-0.633,0.782-0.815c0.305-0.182,0.646-0.273,1.021-0.273c0.281,0,0.535,0.047,0.761,0.141 c0.226,0.094,0.427,0.225,0.604,0.392c0.176,0.169,0.328,0.369,0.455,0.6s0.232,0.488,0.314,0.769l-4.574,3.383 c-0.017-0.16-0.027-0.325-0.029-0.496s-0.004-0.342-0.004-0.513C47.401,29.812,47.459,29.197,47.575,28.664z" fill="rgb(160, 200, 215)" style="fill: rgb(160, 200, 215);"></path></g><g class="ld ld-fade" style="transform-origin: 50px 50px 0px; animation-duration: 1s; animation-delay: -0.513889s; animation-direction: normal;"><path class="st25" d="M62.068,26.339c-0.336-0.454-0.742-0.79-1.216-1.009c-0.474-0.217-1.001-0.326-1.58-0.326 c-0.667,0-1.252,0.134-1.754,0.402s-0.92,0.645-1.253,1.132c-0.335,0.489-0.585,1.074-0.754,1.758s-0.252,1.439-0.252,2.267 c0,0.96,0.091,1.79,0.273,2.49c0.182,0.7,0.441,1.277,0.778,1.729c0.336,0.452,0.742,0.788,1.216,1.005 c0.474,0.218,1.001,0.327,1.58,0.327c0.673,0,1.258-0.134,1.758-0.401c0.498-0.267,0.916-0.645,1.253-1.134 c0.336-0.487,0.587-1.072,0.753-1.754c0.165-0.68,0.248-1.435,0.248-2.262c0-0.96-0.091-1.789-0.273-2.49 C62.663,27.372,62.404,26.795,62.068,26.339z M56.749,31.522c-0.017-0.16-0.027-0.325-0.029-0.496s-0.004-0.342-0.004-0.513 c0-0.7,0.058-1.316,0.174-1.848c0.116-0.532,0.281-0.979,0.496-1.34s0.475-0.633,0.782-0.815c0.305-0.182,0.646-0.273,1.021-0.273 c0.281,0,0.535,0.047,0.761,0.141s0.427,0.225,0.604,0.392c0.176,0.169,0.328,0.369,0.455,0.6s0.232,0.488,0.314,0.769 L56.749,31.522z M61.489,32.46c-0.116,0.533-0.281,0.978-0.496,1.336c-0.215,0.358-0.475,0.629-0.782,0.811 c-0.305,0.182-0.646,0.273-1.021,0.273c-0.292,0-0.553-0.048-0.782-0.144c-0.229-0.096-0.433-0.232-0.612-0.406 c-0.179-0.173-0.332-0.381-0.459-0.624c-0.127-0.243-0.232-0.507-0.314-0.794l4.574-3.4c0.017,0.176,0.031,0.358,0.046,0.542 c0.013,0.185,0.02,0.37,0.02,0.558C61.663,31.312,61.605,31.929,61.489,32.46z" fill="rgb(160, 200, 215)" style="fill: rgb(160, 200, 215);"></path></g><g class="ld ld-fade" style="transform-origin: 50px 50px 0px; animation-duration: 1s; animation-delay: -0.5s; animation-direction: normal;"><path class="st25" d="M65.492,28.139l2.589-1.406v7.892h-2.779v1.34h6.791v-1.34h-2.415v-6.89c-0.886-0.683-1.829-1.293-2.829-1.813 l-1.886,0.993L65.492,28.139z" fill="rgb(160, 200, 215)" style="fill: rgb(160, 200, 215);"></path></g><g class="ld ld-fade" style="transform-origin: 50px 50px 0px; animation-duration: 1s; animation-delay: -0.486111s; animation-direction: normal;"><path class="st25" d="M74.939,34.781c0.195,0.262,0.427,0.463,0.671,0.641c-0.428-1.023-0.953-1.993-1.546-2.916 c0.029,0.187,0.054,0.38,0.097,0.546C74.344,33.753,74.603,34.329,74.939,34.781z" fill="rgb(160, 200, 215)" style="fill: rgb(160, 200, 215);"></path></g><g class="ld ld-fade" style="transform-origin: 50px 50px 0px; animation-duration: 1s; animation-delay: -0.472222s; animation-direction: normal;"><path class="st25" d="M25.522,47.8h-1.599c0.035,0.253,0.064,0.508,0.115,0.757l0.119,0.583h1.365V47.8z" fill="rgb(160, 200, 215)" style="fill: rgb(160, 200, 215);"></path></g><g class="ld ld-fade" style="transform-origin: 50px 50px 0px; animation-duration: 1s; animation-delay: -0.458333s; animation-direction: normal;"><path class="st25" d="M34.125,39.516c-0.336-0.454-0.742-0.79-1.216-1.009c-0.474-0.217-1.001-0.326-1.58-0.326 c-0.667,0-1.252,0.134-1.754,0.402c-0.502,0.268-0.92,0.645-1.253,1.132c-0.335,0.489-0.586,1.074-0.754,1.758 c-0.168,0.684-0.252,1.439-0.252,2.267c0,0.96,0.091,1.79,0.273,2.49s0.441,1.277,0.778,1.729c0.336,0.452,0.742,0.788,1.216,1.005 c0.474,0.218,1.001,0.327,1.58,0.327c0.673,0,1.258-0.134,1.758-0.401c0.498-0.267,0.916-0.645,1.253-1.134 c0.336-0.487,0.587-1.072,0.753-1.754c0.165-0.68,0.248-1.435,0.248-2.262c0-0.96-0.091-1.789-0.273-2.49 S34.461,39.971,34.125,39.516z M28.806,44.698c-0.017-0.16-0.027-0.325-0.029-0.496s-0.004-0.342-0.004-0.513 c0-0.7,0.058-1.316,0.174-1.848c0.116-0.532,0.281-0.979,0.496-1.34c0.215-0.361,0.475-0.633,0.782-0.815 c0.305-0.182,0.646-0.273,1.021-0.273c0.281,0,0.535,0.047,0.761,0.141c0.226,0.094,0.427,0.225,0.604,0.392 c0.177,0.169,0.328,0.369,0.455,0.6c0.127,0.232,0.232,0.488,0.314,0.769L28.806,44.698z M33.546,45.637 c-0.116,0.533-0.281,0.978-0.496,1.336c-0.215,0.358-0.475,0.629-0.782,0.811c-0.305,0.182-0.646,0.273-1.021,0.273 c-0.292,0-0.553-0.048-0.782-0.144c-0.229-0.097-0.433-0.232-0.612-0.406c-0.179-0.173-0.332-0.381-0.459-0.624 c-0.127-0.243-0.232-0.507-0.314-0.794l4.574-3.4c0.017,0.177,0.031,0.358,0.046,0.542c0.013,0.185,0.02,0.37,0.02,0.558 C33.719,44.489,33.662,45.106,33.546,45.637z" fill="rgb(160, 200, 215)" style="fill: rgb(160, 200, 215);"></path></g><g class="ld ld-fade" style="transform-origin: 50px 50px 0px; animation-duration: 1s; animation-delay: -0.444444s; animation-direction: normal;"><polygon class="st25" points="40.139,39.909 40.139,47.8 37.359,47.8 37.359,49.141 44.151,49.141 44.151,47.8 41.735,47.8 41.735,38.279 40.461,38.279 37.02,40.091 37.549,41.315 " fill="rgb(160, 200, 215)" style="fill: rgb(160, 200, 215);"></polygon></g><g class="ld ld-fade" style="transform-origin: 50px 50px 0px; animation-duration: 1s; animation-delay: -0.430556s; animation-direction: normal;"><path class="st25" d="M52.753,39.516c-0.336-0.454-0.742-0.79-1.216-1.009c-0.474-0.217-1.001-0.326-1.58-0.326 c-0.667,0-1.252,0.134-1.754,0.402c-0.502,0.268-0.92,0.645-1.253,1.132c-0.335,0.489-0.585,1.074-0.754,1.758 c-0.168,0.684-0.252,1.439-0.252,2.267c0,0.96,0.091,1.79,0.273,2.49c0.182,0.7,0.441,1.277,0.778,1.729 c0.336,0.452,0.742,0.788,1.216,1.005c0.474,0.218,1.001,0.327,1.58,0.327c0.673,0,1.258-0.134,1.758-0.401 c0.498-0.267,0.916-0.645,1.253-1.134c0.336-0.487,0.587-1.072,0.753-1.754c0.165-0.68,0.248-1.435,0.248-2.262 c0-0.96-0.091-1.789-0.273-2.49C53.349,40.549,53.09,39.971,52.753,39.516z M47.435,44.698c-0.017-0.16-0.027-0.325-0.029-0.496 s-0.004-0.342-0.004-0.513c0-0.7,0.058-1.316,0.174-1.848s0.281-0.979,0.496-1.34s0.475-0.633,0.782-0.815 c0.305-0.182,0.646-0.273,1.021-0.273c0.281,0,0.535,0.047,0.761,0.141c0.226,0.094,0.427,0.225,0.604,0.392 c0.176,0.169,0.328,0.369,0.455,0.6s0.232,0.488,0.314,0.769L47.435,44.698z M52.174,45.637c-0.116,0.533-0.281,0.978-0.496,1.336 c-0.215,0.358-0.475,0.629-0.782,0.811c-0.305,0.182-0.646,0.273-1.021,0.273c-0.292,0-0.553-0.048-0.782-0.144 c-0.229-0.097-0.433-0.232-0.612-0.406c-0.179-0.173-0.332-0.381-0.459-0.624c-0.127-0.243-0.232-0.507-0.314-0.794l4.574-3.4 c0.017,0.177,0.031,0.358,0.046,0.542c0.013,0.185,0.02,0.37,0.02,0.558C52.348,44.489,52.29,45.106,52.174,45.637z" fill="rgb(160, 200, 215)" style="fill: rgb(160, 200, 215);"></path></g><g class="ld ld-fade" style="transform-origin: 50px 50px 0px; animation-duration: 1s; animation-delay: -0.416667s; animation-direction: normal;"><polygon class="st25" points="59.09,38.279 55.649,40.091 56.178,41.315 58.767,39.909 58.767,47.8 55.988,47.8 55.988,49.141 62.779,49.141 62.779,47.8 60.364,47.8 60.364,38.279 " fill="rgb(160, 200, 215)" style="fill: rgb(160, 200, 215);"></polygon></g><g class="ld ld-fade" style="transform-origin: 50px 50px 0px; animation-duration: 1s; animation-delay: -0.402778s; animation-direction: normal;"><polygon class="st25" points="69.678,38.279 68.404,38.279 64.963,40.091 65.492,41.315 68.082,39.909 68.082,47.8 65.302,47.8 65.302,49.141 72.094,49.141 72.094,47.8 69.678,47.8 " fill="rgb(160, 200, 215)" style="fill: rgb(160, 200, 215);"></polygon></g><g class="ld ld-fade" style="transform-origin: 50px 50px 0px; animation-duration: 1s; animation-delay: -0.388889s; animation-direction: normal;"><path class="st25" d="M74.894,39.714c-0.335,0.489-0.585,1.074-0.754,1.758c-0.168,0.684-0.252,1.439-0.252,2.267 c0,0.96,0.091,1.79,0.273,2.49c0.182,0.7,0.441,1.277,0.778,1.729c0.305,0.41,0.675,0.711,1.094,0.927l0.152-0.478 c0.094-0.295,0.167-0.595,0.246-0.894c-0.002-0.002-0.005-0.004-0.007-0.006c-0.179-0.173-0.332-0.381-0.459-0.624 c-0.127-0.243-0.232-0.507-0.314-0.794l1.244-0.924c0.074-0.561,0.12-1.126,0.143-1.693l-1.66,1.228 c-0.017-0.16-0.027-0.325-0.029-0.496c-0.003-0.171-0.004-0.342-0.004-0.513c0-0.7,0.058-1.316,0.174-1.848 c0.116-0.532,0.281-0.979,0.496-1.34s0.475-0.633,0.782-0.815c0.003-0.002,0.006-0.002,0.008-0.003 c-0.068-0.423-0.144-0.842-0.24-1.255c-0.143,0.045-0.289,0.086-0.418,0.154C75.645,38.849,75.227,39.227,74.894,39.714z" fill="rgb(160, 200, 215)" style="fill: rgb(160, 200, 215);"></path></g><g class="ld ld-fade" style="transform-origin: 50px 50px 0px; animation-duration: 1s; animation-delay: -0.375s; animation-direction: normal;"><path class="st25" d="M14.293,62.065c0.498-0.267,0.916-0.645,1.253-1.134c0.336-0.487,0.587-1.072,0.753-1.754 c0.165-0.68,0.248-1.435,0.248-2.262c0-0.96-0.091-1.79-0.273-2.49c-0.065-0.249-0.15-0.467-0.236-0.683 c-1.079,0.961-1.987,2.097-2.686,3.365l1.673-1.243c0.017,0.176,0.031,0.357,0.046,0.542c0.013,0.185,0.02,0.37,0.02,0.558 c0,0.7-0.058,1.317-0.174,1.848c-0.116,0.533-0.281,0.978-0.496,1.336s-0.475,0.629-0.782,0.811 c-0.305,0.182-0.646,0.273-1.021,0.273c-0.25,0-0.472-0.042-0.675-0.113c-0.071,0.417-0.119,0.84-0.15,1.269 c0.239,0.044,0.483,0.077,0.742,0.077C13.208,62.466,13.793,62.332,14.293,62.065z" fill="rgb(160, 200, 215)" style="fill: rgb(160, 200, 215);"></path></g><g class="ld ld-fade" style="transform-origin: 50px 50px 0px; animation-duration: 1s; animation-delay: -0.361111s; animation-direction: normal;"><polygon class="st25" points="21.51,53.085 21.51,60.977 18.731,60.977 18.731,62.317 25.522,62.317 25.522,60.977 23.106,60.977 23.106,51.456 21.833,51.456 18.391,53.267 18.921,54.492 " fill="rgb(160, 200, 215)" style="fill: rgb(160, 200, 215);"></polygon></g><g class="ld ld-fade" style="transform-origin: 50px 50px 0px; animation-duration: 1s; animation-delay: -0.347222s; animation-direction: normal;"><path class="st25" d="M34.125,52.692c-0.336-0.454-0.742-0.79-1.216-1.009c-0.474-0.217-1.001-0.326-1.58-0.326 c-0.667,0-1.252,0.134-1.754,0.402s-0.92,0.645-1.253,1.132c-0.335,0.489-0.586,1.074-0.754,1.758 c-0.168,0.684-0.252,1.439-0.252,2.267c0,0.96,0.091,1.789,0.273,2.49s0.441,1.277,0.778,1.729c0.336,0.452,0.742,0.788,1.216,1.005 c0.474,0.218,1.001,0.327,1.58,0.327c0.673,0,1.258-0.134,1.758-0.401c0.498-0.267,0.916-0.645,1.253-1.134 c0.336-0.487,0.587-1.072,0.753-1.754c0.165-0.68,0.248-1.435,0.248-2.262c0-0.96-0.091-1.79-0.273-2.49 C34.72,53.725,34.461,53.148,34.125,52.692z M28.806,57.875c-0.017-0.16-0.027-0.325-0.029-0.496s-0.004-0.342-0.004-0.513 c0-0.7,0.058-1.316,0.174-1.848c0.116-0.532,0.281-0.979,0.496-1.34c0.215-0.361,0.475-0.633,0.782-0.815 c0.305-0.182,0.646-0.273,1.021-0.273c0.281,0,0.535,0.047,0.761,0.141c0.226,0.094,0.427,0.225,0.604,0.392 c0.177,0.169,0.328,0.369,0.455,0.6c0.127,0.232,0.232,0.488,0.314,0.769L28.806,57.875z M33.546,58.813 c-0.116,0.533-0.281,0.978-0.496,1.336c-0.215,0.358-0.475,0.629-0.782,0.811c-0.305,0.182-0.646,0.273-1.021,0.273 c-0.292,0-0.553-0.048-0.782-0.144s-0.433-0.232-0.612-0.406c-0.179-0.173-0.332-0.381-0.459-0.624 c-0.127-0.243-0.232-0.507-0.314-0.794l4.574-3.4c0.017,0.176,0.031,0.357,0.046,0.542c0.013,0.185,0.02,0.37,0.02,0.558 C33.719,57.665,33.662,58.282,33.546,58.813z" fill="rgb(160, 200, 215)" style="fill: rgb(160, 200, 215);"></path></g><g class="ld ld-fade" style="transform-origin: 50px 50px 0px; animation-duration: 1s; animation-delay: -0.333333s; animation-direction: normal;"><polygon class="st25" points="40.139,53.085 40.139,60.977 37.359,60.977 37.359,62.317 44.151,62.317 44.151,60.977 41.735,60.977 41.735,51.456 40.461,51.456 37.02,53.267 37.549,54.492 " fill="rgb(160, 200, 215)" style="fill: rgb(160, 200, 215);"></polygon></g><g class="ld ld-fade" style="transform-origin: 50px 50px 0px; animation-duration: 1s; animation-delay: -0.319444s; animation-direction: normal;"><path class="st25" d="M52.753,52.692c-0.336-0.454-0.742-0.79-1.216-1.009c-0.474-0.217-1.001-0.326-1.58-0.326 c-0.667,0-1.252,0.134-1.754,0.402s-0.92,0.645-1.253,1.132c-0.335,0.489-0.585,1.074-0.754,1.758 c-0.168,0.684-0.252,1.439-0.252,2.267c0,0.96,0.091,1.789,0.273,2.49c0.182,0.7,0.441,1.277,0.778,1.729 c0.336,0.452,0.742,0.788,1.216,1.005c0.474,0.218,1.001,0.327,1.58,0.327c0.673,0,1.258-0.134,1.758-0.401 c0.498-0.267,0.916-0.645,1.253-1.134c0.336-0.487,0.587-1.072,0.753-1.754c0.165-0.68,0.248-1.435,0.248-2.262 c0-0.96-0.091-1.79-0.273-2.49C53.349,53.725,53.09,53.148,52.753,52.692z M47.435,57.875c-0.017-0.16-0.027-0.325-0.029-0.496 s-0.004-0.342-0.004-0.513c0-0.7,0.058-1.316,0.174-1.848s0.281-0.979,0.496-1.34c0.215-0.361,0.475-0.633,0.782-0.815 c0.305-0.182,0.646-0.273,1.021-0.273c0.281,0,0.535,0.047,0.761,0.141c0.226,0.094,0.427,0.225,0.604,0.392 c0.176,0.169,0.328,0.369,0.455,0.6c0.127,0.232,0.232,0.488,0.314,0.769L47.435,57.875z M52.174,58.813 c-0.116,0.533-0.281,0.978-0.496,1.336c-0.215,0.358-0.475,0.629-0.782,0.811c-0.305,0.182-0.646,0.273-1.021,0.273 c-0.292,0-0.553-0.048-0.782-0.144s-0.433-0.232-0.612-0.406c-0.179-0.173-0.332-0.381-0.459-0.624 c-0.127-0.243-0.232-0.507-0.314-0.794l4.574-3.4c0.017,0.176,0.031,0.357,0.046,0.542c0.013,0.185,0.02,0.37,0.02,0.558 C52.348,57.665,52.29,58.282,52.174,58.813z" fill="rgb(160, 200, 215)" style="fill: rgb(160, 200, 215);"></path></g><g class="ld ld-fade" style="transform-origin: 50px 50px 0px; animation-duration: 1s; animation-delay: -0.305556s; animation-direction: normal;"><polygon class="st25" points="56.178,54.492 58.767,53.085 58.767,60.977 55.988,60.977 55.988,62.317 62.779,62.317 62.779,60.977 60.364,60.977 60.364,51.456 59.09,51.456 55.649,53.267 " fill="rgb(160, 200, 215)" style="fill: rgb(160, 200, 215);"></polygon></g><g class="ld ld-fade" style="transform-origin: 50px 50px 0px; animation-duration: 1s; animation-delay: -0.291667s; animation-direction: normal;"><polygon class="st25" points="69.678,51.456 68.404,51.456 64.963,53.267 65.492,54.492 68.082,53.085 68.082,60.977 65.302,60.977 65.302,62.317 72.094,62.317 72.094,60.977 69.678,60.977 " fill="rgb(160, 200, 215)" style="fill: rgb(160, 200, 215);"></polygon></g><g class="ld ld-fade" style="transform-origin: 50px 50px 0px; animation-duration: 1s; animation-delay: -0.277778s; animation-direction: normal;"><path class="st25" d="M80.697,52.692c-0.336-0.454-0.742-0.79-1.216-1.009c-0.474-0.217-1.001-0.326-1.58-0.326 c-0.667,0-1.252,0.134-1.754,0.402c-0.502,0.267-0.92,0.645-1.253,1.132c-0.335,0.489-0.585,1.074-0.754,1.758 c-0.168,0.684-0.252,1.439-0.252,2.267c0,0.96,0.091,1.789,0.273,2.49c0.182,0.7,0.441,1.277,0.778,1.729 c0.336,0.452,0.742,0.788,1.216,1.005c0.474,0.218,1.001,0.327,1.58,0.327c0.673,0,1.258-0.134,1.758-0.401 c0.498-0.267,0.916-0.645,1.253-1.134c0.336-0.487,0.587-1.072,0.753-1.754c0.165-0.68,0.248-1.435,0.248-2.262 c0-0.96-0.091-1.79-0.273-2.49C81.292,53.725,81.033,53.148,80.697,52.692z M75.378,57.875c-0.017-0.16-0.027-0.325-0.029-0.496 c-0.003-0.171-0.004-0.342-0.004-0.513c0-0.7,0.058-1.316,0.174-1.848c0.116-0.532,0.281-0.979,0.496-1.34 c0.215-0.361,0.475-0.633,0.782-0.815c0.305-0.182,0.646-0.273,1.021-0.273c0.281,0,0.535,0.047,0.761,0.141 c0.226,0.094,0.427,0.225,0.604,0.392c0.176,0.169,0.328,0.369,0.455,0.6c0.127,0.232,0.232,0.488,0.314,0.769L75.378,57.875z M80.117,58.813c-0.116,0.533-0.281,0.978-0.496,1.336s-0.475,0.629-0.782,0.811c-0.305,0.182-0.646,0.273-1.021,0.273 c-0.292,0-0.553-0.048-0.782-0.144c-0.229-0.096-0.433-0.232-0.612-0.406c-0.179-0.173-0.332-0.381-0.459-0.624 c-0.127-0.243-0.232-0.507-0.314-0.794l4.574-3.4c0.017,0.176,0.031,0.357,0.046,0.542c0.013,0.185,0.02,0.37,0.02,0.558 C80.291,57.665,80.233,58.282,80.117,58.813z" fill="rgb(160, 200, 215)" style="fill: rgb(160, 200, 215);"></path></g><g class="ld ld-fade" style="transform-origin: 50px 50px 0px; animation-duration: 1s; animation-delay: -0.263889s; animation-direction: normal;"><path class="st25" d="M83.203,56.915c0,0.96,0.091,1.789,0.273,2.49c0.182,0.7,0.441,1.277,0.778,1.729 c0.336,0.452,0.742,0.788,1.216,1.005c0.474,0.218,1.001,0.327,1.58,0.327c0.425,0,0.8-0.078,1.154-0.189 c-0.035-0.429-0.087-0.853-0.163-1.27c-0.277,0.142-0.577,0.226-0.908,0.226c-0.292,0-0.553-0.048-0.782-0.144 c-0.229-0.096-0.433-0.232-0.612-0.406c-0.179-0.173-0.332-0.381-0.459-0.624c-0.127-0.243-0.232-0.507-0.314-0.794l2.021-1.502 c-0.186-0.388-0.395-0.762-0.618-1.127l-1.676,1.24c-0.017-0.16-0.027-0.325-0.029-0.496c-0.003-0.171-0.004-0.342-0.004-0.513 c0-0.7,0.058-1.316,0.174-1.848c0.025-0.113,0.058-0.211,0.09-0.312c-0.345-0.382-0.711-0.745-1.101-1.083 c-0.145,0.316-0.274,0.649-0.367,1.026C83.287,55.333,83.203,56.088,83.203,56.915z" fill="rgb(160, 200, 215)" style="fill: rgb(160, 200, 215);"></path></g><g class="ld ld-fade" style="transform-origin: 50px 50px 0px; animation-duration: 1s; animation-delay: -0.25s; animation-direction: normal;"><path class="st25" d="M16.547,70.092c0-0.96-0.091-1.789-0.273-2.49c-0.182-0.7-0.441-1.278-0.778-1.733 c-0.336-0.454-0.742-0.79-1.216-1.009c-0.474-0.217-1.001-0.326-1.58-0.326c-0.315,0-0.607,0.039-0.884,0.099 c0.042,0.422,0.107,0.837,0.189,1.246c0.194-0.065,0.394-0.113,0.613-0.113c0.281,0,0.535,0.047,0.761,0.141 c0.226,0.094,0.427,0.225,0.604,0.392c0.176,0.169,0.328,0.369,0.455,0.6s0.232,0.488,0.314,0.769l-1.704,1.26 c0.187,0.386,0.393,0.761,0.616,1.124l1.361-1.011c0.017,0.176,0.031,0.358,0.046,0.542c0.013,0.185,0.02,0.37,0.02,0.558 c0,0.621-0.053,1.166-0.145,1.654c0.36,0.411,0.746,0.798,1.155,1.16c0.072-0.193,0.145-0.386,0.198-0.602 C16.464,71.674,16.547,70.919,16.547,70.092z" fill="rgb(160, 200, 215)" style="fill: rgb(160, 200, 215);"></path></g><g class="ld ld-fade" style="transform-origin: 50px 50px 0px; animation-duration: 1s; animation-delay: -0.236111s; animation-direction: normal;"><path class="st25" d="M24.81,65.869c-0.336-0.454-0.742-0.79-1.216-1.009c-0.474-0.217-1.001-0.326-1.58-0.326 c-0.667,0-1.252,0.134-1.754,0.402s-0.92,0.645-1.253,1.132c-0.335,0.489-0.586,1.074-0.754,1.758 c-0.168,0.684-0.252,1.439-0.252,2.267c0,0.96,0.091,1.79,0.273,2.49c0.182,0.7,0.441,1.277,0.778,1.729 c0.336,0.452,0.742,0.788,1.216,1.005c0.474,0.218,1.001,0.327,1.58,0.327c0.673,0,1.258-0.134,1.758-0.401 c0.498-0.267,0.916-0.645,1.253-1.134c0.336-0.487,0.587-1.072,0.753-1.754c0.165-0.68,0.248-1.435,0.248-2.262 c0-0.96-0.091-1.789-0.273-2.49C25.406,66.902,25.147,66.324,24.81,65.869z M19.492,71.051c-0.017-0.16-0.027-0.325-0.029-0.496 s-0.004-0.342-0.004-0.513c0-0.7,0.058-1.316,0.174-1.848c0.116-0.532,0.281-0.979,0.496-1.34c0.215-0.361,0.475-0.633,0.782-0.815 c0.305-0.182,0.646-0.273,1.021-0.273c0.281,0,0.535,0.047,0.761,0.141c0.226,0.094,0.427,0.225,0.604,0.392 c0.176,0.169,0.328,0.369,0.455,0.6s0.232,0.488,0.314,0.769L19.492,71.051z M24.231,71.99c-0.116,0.533-0.281,0.978-0.496,1.336 s-0.475,0.629-0.782,0.811c-0.305,0.182-0.646,0.273-1.021,0.273c-0.292,0-0.553-0.048-0.782-0.144 c-0.229-0.096-0.433-0.232-0.612-0.406c-0.179-0.173-0.332-0.381-0.459-0.624c-0.127-0.243-0.232-0.507-0.314-0.794l4.574-3.4 c0.017,0.176,0.031,0.358,0.046,0.542c0.013,0.185,0.02,0.37,0.02,0.558C24.405,70.842,24.347,71.459,24.231,71.99z" fill="rgb(160, 200, 215)" style="fill: rgb(160, 200, 215);"></path></g><g class="ld ld-fade" style="transform-origin: 50px 50px 0px; animation-duration: 1s; animation-delay: -0.222222s; animation-direction: normal;"><polygon class="st25" points="32.421,64.632 31.147,64.632 27.706,66.444 28.235,67.668 30.824,66.262 30.824,74.153 28.045,74.153 28.045,75.494 34.836,75.494 34.836,74.153 32.421,74.153 " fill="rgb(160, 200, 215)" style="fill: rgb(160, 200, 215);"></polygon></g><g class="ld ld-fade" style="transform-origin: 50px 50px 0px; animation-duration: 1s; animation-delay: -0.208333s; animation-direction: normal;"><path class="st25" d="M43.439,65.869c-0.336-0.454-0.742-0.79-1.216-1.009c-0.474-0.217-1.001-0.326-1.58-0.326 c-0.667,0-1.252,0.134-1.754,0.402s-0.92,0.645-1.253,1.132c-0.335,0.489-0.586,1.074-0.754,1.758 c-0.168,0.684-0.252,1.439-0.252,2.267c0,0.96,0.091,1.79,0.273,2.49c0.182,0.7,0.441,1.277,0.778,1.729 c0.336,0.452,0.742,0.788,1.216,1.005c0.474,0.218,1.001,0.327,1.58,0.327c0.673,0,1.258-0.134,1.758-0.401 c0.498-0.267,0.916-0.645,1.253-1.134c0.336-0.487,0.587-1.072,0.753-1.754c0.165-0.68,0.248-1.435,0.248-2.262 c0-0.96-0.091-1.789-0.273-2.49S43.776,66.324,43.439,65.869z M38.12,71.051c-0.017-0.16-0.027-0.325-0.029-0.496 s-0.004-0.342-0.004-0.513c0-0.7,0.058-1.316,0.174-1.848c0.116-0.532,0.281-0.979,0.496-1.34c0.215-0.361,0.475-0.633,0.782-0.815 c0.305-0.182,0.646-0.273,1.021-0.273c0.281,0,0.535,0.047,0.761,0.141c0.226,0.094,0.427,0.225,0.604,0.392 c0.177,0.169,0.328,0.369,0.455,0.6c0.127,0.232,0.232,0.488,0.314,0.769L38.12,71.051z M42.86,71.99 c-0.116,0.533-0.281,0.978-0.496,1.336c-0.215,0.358-0.475,0.629-0.782,0.811c-0.305,0.182-0.646,0.273-1.021,0.273 c-0.292,0-0.553-0.048-0.782-0.144s-0.433-0.232-0.612-0.406c-0.179-0.173-0.332-0.381-0.459-0.624 c-0.127-0.243-0.232-0.507-0.314-0.794l4.574-3.4c0.017,0.176,0.031,0.358,0.046,0.542c0.013,0.185,0.02,0.37,0.02,0.558 C43.034,70.842,42.976,71.459,42.86,71.99z" fill="rgb(160, 200, 215)" style="fill: rgb(160, 200, 215);"></path></g><g class="ld ld-fade" style="transform-origin: 50px 50px 0px; animation-duration: 1s; animation-delay: -0.194444s; animation-direction: normal;"><polygon class="st25" points="51.049,64.632 49.776,64.632 46.334,66.444 46.864,67.668 49.453,66.262 49.453,74.153 46.674,74.153 46.674,75.494 53.465,75.494 53.465,74.153 51.049,74.153 " fill="rgb(160, 200, 215)" style="fill: rgb(160, 200, 215);"></polygon></g><g class="ld ld-fade" style="transform-origin: 50px 50px 0px; animation-duration: 1s; animation-delay: -0.180556s; animation-direction: normal;"><path class="st25" d="M62.068,65.869c-0.336-0.454-0.742-0.79-1.216-1.009c-0.474-0.217-1.001-0.326-1.58-0.326 c-0.667,0-1.252,0.134-1.754,0.402s-0.92,0.645-1.253,1.132c-0.335,0.489-0.585,1.074-0.754,1.758s-0.252,1.439-0.252,2.267 c0,0.96,0.091,1.79,0.273,2.49c0.182,0.7,0.441,1.277,0.778,1.729c0.336,0.452,0.742,0.788,1.216,1.005 c0.474,0.218,1.001,0.327,1.58,0.327c0.673,0,1.258-0.134,1.758-0.401c0.498-0.267,0.916-0.645,1.253-1.134 c0.336-0.487,0.587-1.072,0.753-1.754c0.165-0.68,0.248-1.435,0.248-2.262c0-0.96-0.091-1.789-0.273-2.49 C62.663,66.902,62.404,66.324,62.068,65.869z M56.749,71.051c-0.017-0.16-0.027-0.325-0.029-0.496s-0.004-0.342-0.004-0.513 c0-0.7,0.058-1.316,0.174-1.848c0.116-0.532,0.281-0.979,0.496-1.34s0.475-0.633,0.782-0.815c0.305-0.182,0.646-0.273,1.021-0.273 c0.281,0,0.535,0.047,0.761,0.141s0.427,0.225,0.604,0.392c0.176,0.169,0.328,0.369,0.455,0.6s0.232,0.488,0.314,0.769 L56.749,71.051z M61.489,71.99c-0.116,0.533-0.281,0.978-0.496,1.336c-0.215,0.358-0.475,0.629-0.782,0.811 c-0.305,0.182-0.646,0.273-1.021,0.273c-0.292,0-0.553-0.048-0.782-0.144c-0.229-0.096-0.433-0.232-0.612-0.406 c-0.179-0.173-0.332-0.381-0.459-0.624c-0.127-0.243-0.232-0.507-0.314-0.794l4.574-3.4c0.017,0.176,0.031,0.358,0.046,0.542 c0.013,0.185,0.02,0.37,0.02,0.558C61.663,70.842,61.605,71.459,61.489,71.99z" fill="rgb(160, 200, 215)" style="fill: rgb(160, 200, 215);"></path></g><g class="ld ld-fade" style="transform-origin: 50px 50px 0px; animation-duration: 1s; animation-delay: -0.166667s; animation-direction: normal;"><polygon class="st25" points="69.678,64.632 68.404,64.632 64.963,66.444 65.492,67.668 68.082,66.262 68.082,74.153 65.302,74.153 65.302,75.494 72.094,75.494 72.094,74.153 69.678,74.153 " fill="rgb(160, 200, 215)" style="fill: rgb(160, 200, 215);"></polygon></g><g class="ld ld-fade" style="transform-origin: 50px 50px 0px; animation-duration: 1s; animation-delay: -0.152778s; animation-direction: normal;"><path class="st25" d="M80.697,65.869c-0.336-0.454-0.742-0.79-1.216-1.009c-0.474-0.217-1.001-0.326-1.58-0.326 c-0.667,0-1.252,0.134-1.754,0.402c-0.502,0.267-0.92,0.645-1.253,1.132c-0.335,0.489-0.585,1.074-0.754,1.758 s-0.252,1.439-0.252,2.267c0,0.96,0.091,1.79,0.273,2.49c0.182,0.7,0.441,1.277,0.778,1.729c0.336,0.452,0.742,0.788,1.216,1.005 c0.474,0.218,1.001,0.327,1.58,0.327c0.673,0,1.258-0.134,1.758-0.401c0.498-0.267,0.916-0.645,1.253-1.134 c0.336-0.487,0.587-1.072,0.753-1.754c0.165-0.68,0.248-1.435,0.248-2.262c0-0.96-0.091-1.789-0.273-2.49 C81.292,66.902,81.033,66.324,80.697,65.869z M75.378,71.051c-0.017-0.16-0.027-0.325-0.029-0.496 c-0.003-0.171-0.004-0.342-0.004-0.513c0-0.7,0.058-1.316,0.174-1.848c0.116-0.532,0.281-0.979,0.496-1.34s0.475-0.633,0.782-0.815 c0.305-0.182,0.646-0.273,1.021-0.273c0.281,0,0.535,0.047,0.761,0.141c0.226,0.094,0.427,0.225,0.604,0.392 c0.176,0.169,0.328,0.369,0.455,0.6s0.232,0.488,0.314,0.769L75.378,71.051z M80.117,71.99c-0.116,0.533-0.281,0.978-0.496,1.336 s-0.475,0.629-0.782,0.811c-0.305,0.182-0.646,0.273-1.021,0.273c-0.292,0-0.553-0.048-0.782-0.144 c-0.229-0.096-0.433-0.232-0.612-0.406c-0.179-0.173-0.332-0.381-0.459-0.624c-0.127-0.243-0.232-0.507-0.314-0.794l4.574-3.4 c0.017,0.176,0.031,0.358,0.046,0.542c0.013,0.185,0.02,0.37,0.02,0.558C80.291,70.842,80.233,71.459,80.117,71.99z" fill="rgb(160, 200, 215)" style="fill: rgb(160, 200, 215);"></path></g><g class="ld ld-fade" style="transform-origin: 50px 50px 0px; animation-duration: 1s; animation-delay: -0.138889s; animation-direction: normal;"><path class="st25" d="M87.033,64.632l-3.441,1.812l0.529,1.224l2.589-1.406v3.168c0.786-1.455,1.301-3.077,1.474-4.798H87.033z" fill="rgb(160, 200, 215)" style="fill: rgb(160, 200, 215);"></path></g><metadata xmlns:d="https://loading.io/stock/" class="ld ld-fade" style="transform-origin: 50px 50px 0px; animation-duration: 1s; animation-delay: -0.125s; animation-direction: normal;">
<d:name class="ld ld-fade" style="transform-origin: 50px 50px 0px; animation-duration: 1s; animation-delay: -0.111111s; animation-direction: normal;">open data</d:name>
<d:tags class="ld ld-fade" style="transform-origin: 50px 50px 0px; animation-duration: 1s; animation-delay: -0.0972222s; animation-direction: normal;">open data,cloud,big data,data api,data storage,open government data,data literacy</d:tags>
<d:license class="ld ld-fade" style="transform-origin: 50px 50px 0px; animation-duration: 1s; animation-delay: -0.0833333s; animation-direction: normal;">cc-by</d:license>
<d:slug class="ld ld-fade" style="transform-origin: 50px 50px 0px; animation-duration: 1s; animation-delay: -0.0694444s; animation-direction: normal;">yfl4lz</d:slug>
</metadata></g></g></g></g><style type="text/css" class="ld ld-fade" style="transform-origin: 50px 50px 0px; animation-duration: 1s; animation-delay: -0.0555556s; animation-direction: normal;">path,ellipse,circle,rect,polygon,polyline,line { stroke-width: 0; }@keyframes ld-fade {
  0% {
    opacity: 1;
  }
  100% {
    opacity: 0;
  }
}
@-webkit-keyframes ld-fade {
  0% {
    opacity: 1;
  }
  100% {
    opacity: 0;
  }
}
.ld.ld-fade {
  -webkit-animation: ld-fade 1s infinite linear;
  animation: ld-fade 1s infinite linear;
}
</style></svg></svg>