<svg class="ldi-x5xjvu" width="100%" height="100%" xmlns="http://www.w3.org/2000/svg" xmlns:xlink="http://www.w3.org/1999/xlink" viewBox="0 0 100 100" preserveAspectRatio="xMidYMid"><!--?xml version="1.0" encoding="utf-8"?--><!--Generator: Adobe Illustrator 21.0.0, SVG Export Plug-In . SVG Version: 6.00 Build 0)--><svg version="1.1" id="Layer_1" xmlns="http://www.w3.org/2000/svg" xmlns:xlink="http://www.w3.org/1999/xlink" x="0px" y="0px" viewBox="0 0 100 100" style="transform-origin: 50px 50px 0px;" xml:space="preserve"><g style="transform-origin: 50px 50px 0px;"><g style="transform-origin: 50px 50px 0px; transform: scale(0.6);"><g style="transform-origin: 50px 50px 0px;"><g><g class="ld ld-heartbeat" style="transform-origin: 50px 50px 0px; animation-duration: 1s; animation-delay: -1s; animation-direction: normal;"><path style="fill:#e15c64" d="M30.052,59.401l-9.988,25.833c-0.273,0.706,0.444,1.39,1.136,1.084l9.4-4.158 c0.429-0.19,0.931,0.004,1.121,0.433l4.158,9.4c0.306,0.692,1.297,0.669,1.57-0.037l9.988-25.833 c2.052-5.307-1.09-11.199-6.64-12.452l0,0C36.291,52.654,31.718,55.092,30.052,59.401z" fill="rgb(225, 92, 100)"></path></g><g class="ld ld-heartbeat" style="transform-origin: 50px 50px 0px; animation-duration: 1s; animation-delay: -0.933333s; animation-direction: normal;"><path style="fill:#e15c64" d="M68.946,59.401l9.988,25.833c0.273,0.706-0.444,1.39-1.136,1.084l-9.4-4.158 c-0.429-0.19-0.931,0.004-1.121,0.433l-4.158,9.4c-0.306,0.692-1.297,0.669-1.57-0.037L51.56,66.123 c-2.052-5.307,1.09-11.199,6.64-12.452l0,0C62.707,52.654,67.279,55.092,68.946,59.401z" fill="rgb(225, 92, 100)"></path></g><g style="transform-origin: 50px 50px 0px;"><g><g class="ld ld-heartbeat" style="transform-origin: 50px 50px 0px; animation-duration: 1s; animation-delay: -0.866667s; animation-direction: normal;"><path style="fill:#f47e5f" d="M51.918,8.268l2.671,2.545c0.779,0.742,1.916,0.969,2.92,0.581l3.442-1.329 c1.384-0.534,2.944,0.112,3.545,1.468l1.494,3.374c0.436,0.984,1.4,1.628,2.476,1.654l3.689,0.089 c1.483,0.036,2.677,1.23,2.713,2.713l0.089,3.689c0.026,1.076,0.67,2.04,1.654,2.476l3.374,1.494 c1.357,0.601,2.003,2.161,1.468,3.545l-1.329,3.442c-0.388,1.004-0.161,2.141,0.581,2.92l2.545,2.671 c1.023,1.074,1.023,2.763,0,3.837l-2.545,2.671c-0.742,0.779-0.969,1.916-0.581,2.92l1.329,3.442 c0.534,1.384-0.112,2.944-1.468,3.545l-3.374,1.494c-0.984,0.436-1.628,1.4-1.654,2.476l-0.089,3.689 c-0.036,1.483-1.23,2.677-2.713,2.713l-3.689,0.089c-1.076,0.026-2.04,0.67-2.476,1.654l-1.494,3.374 c-0.601,1.357-2.161,2.003-3.545,1.468l-3.442-1.329c-1.004-0.388-2.141-0.161-2.92,0.581l-2.671,2.545 c-1.074,1.023-2.763,1.023-3.837,0l-2.671-2.545c-0.779-0.742-1.916-0.969-2.92-0.581l-3.442,1.329 c-1.384,0.534-2.944-0.112-3.545-1.468l-1.494-3.374c-0.436-0.984-1.4-1.628-2.476-1.654l-3.689-0.089 c-1.483-0.036-2.677-1.23-2.713-2.713l-0.089-3.689c-0.026-1.076-0.67-2.04-1.654-2.476l-3.374-1.494 c-1.357-0.601-2.003-2.161-1.468-3.545l1.329-3.442c0.388-1.004,0.161-2.141-0.581-2.92l-2.545-2.671 c-1.023-1.074-1.023-2.763,0-3.837l2.545-2.671c0.742-0.779,0.969-1.916,0.581-2.92l-1.329-3.442 c-0.534-1.384,0.112-2.944,1.468-3.545l3.374-1.494c0.984-0.436,1.628-1.4,1.654-2.476l0.089-3.689 c0.036-1.483,1.23-2.677,2.713-2.713l3.689-0.089c1.076-0.026,2.04-0.67,2.476-1.654l1.494-3.374 c0.601-1.357,2.161-2.003,3.545-1.468l3.442,1.329c1.004,0.388,2.141,0.161,2.92-0.581l2.671-2.545 C49.156,7.244,50.844,7.244,51.918,8.268z" fill="rgb(244, 126, 95)"></path></g><g class="ld ld-heartbeat" style="transform-origin: 50px 50px 0px; animation-duration: 1s; animation-delay: -0.8s; animation-direction: normal;"><circle style="fill:#f7b26a" cx="50" cy="41.517" r="22.55" fill="rgb(247, 178, 106)"></circle></g><g class="ld ld-heartbeat" style="transform-origin: 50px 50px 0px; animation-duration: 1s; animation-delay: -0.733333s; animation-direction: normal;"><path style="fill:#f5e169" d="M50.948,28.138l3.452,6.995c0.154,0.312,0.451,0.528,0.796,0.578l7.719,1.122 c0.867,0.126,1.213,1.191,0.586,1.802l-5.586,5.445c-0.249,0.243-0.363,0.593-0.304,0.935l1.319,7.688 c0.148,0.863-0.758,1.521-1.533,1.114l-6.904-3.63c-0.308-0.162-0.676-0.162-0.983,0l-6.904,3.63 c-0.775,0.408-1.681-0.251-1.533-1.114l1.319-7.688c0.059-0.343-0.055-0.693-0.304-0.935L36.5,38.634 c-0.627-0.611-0.281-1.676,0.586-1.802l7.719-1.122c0.344-0.05,0.642-0.266,0.796-0.578l3.452-6.995 C49.44,27.352,50.56,27.352,50.948,28.138z" fill="rgb(245, 225, 105)"></path></g></g></g><metadata xmlns:d="https://loading.io/stock/" class="ld ld-heartbeat" style="transform-origin: 50px 50px 0px; animation-duration: 1s; animation-delay: -0.666667s; animation-direction: normal;">
<d:name class="ld ld-heartbeat" style="transform-origin: 50px 50px 0px; animation-duration: 1s; animation-delay: -0.6s; animation-direction: normal;">award</d:name>
<d:tags class="ld ld-heartbeat" style="transform-origin: 50px 50px 0px; animation-duration: 1s; animation-delay: -0.533333s; animation-direction: normal;">award,medal,champion,prize,corsage,badge,trophy,tribute,proof,certificate</d:tags>
<d:license class="ld ld-heartbeat" style="transform-origin: 50px 50px 0px; animation-duration: 1s; animation-delay: -0.466667s; animation-direction: normal;">cc-by</d:license>
<d:slug class="ld ld-heartbeat" style="transform-origin: 50px 50px 0px; animation-duration: 1s; animation-delay: -0.4s; animation-direction: normal;">x5xjvu</d:slug>
</metadata></g></g></g></g><style type="text/css" class="ld ld-heartbeat" style="transform-origin: 50px 50px 0px; animation-duration: 1s; animation-delay: -0.333333s; animation-direction: normal;">path,ellipse,circle,rect,polygon,polyline,line { stroke-width: 0; }@keyframes ld-heartbeat {
  0% {
    -webkit-transform: scale(1.05);
    transform: scale(1.05);
  }
  5% {
    -webkit-transform: scale(1.25);
    transform: scale(1.25);
  }
  39% {
    -webkit-transform: scale(0.9);
    transform: scale(0.9);
  }
  45% {
    -webkit-transform: scale(1.15);
    transform: scale(1.15);
  }
  60% {
    -webkit-transform: scale(1.05);
    transform: scale(1.05);
  }
  100% {
    -webkit-transform: scale(1);
    transform: scale(1);
  }
}
@-webkit-keyframes ld-heartbeat {
  0% {
    -webkit-transform: scale(1.05);
    transform: scale(1.05);
  }
  5% {
    -webkit-transform: scale(1.25);
    transform: scale(1.25);
  }
  39% {
    -webkit-transform: scale(0.9);
    transform: scale(0.9);
  }
  45% {
    -webkit-transform: scale(1.15);
    transform: scale(1.15);
  }
  60% {
    -webkit-transform: scale(1.05);
    transform: scale(1.05);
  }
  100% {
    -webkit-transform: scale(1);
    transform: scale(1);
  }
}
.ld.ld-heartbeat {
  -webkit-animation: ld-heartbeat 0.8s infinite cubic-bezier(0.215, 0.61, 0.355, 1);
  animation: ld-heartbeat 0.8s infinite cubic-bezier(0.215, 0.61, 0.355, 1);
}
</style></svg></svg>