<svg class="ldi-lfucx4" width="100%" height="100%" xmlns="http://www.w3.org/2000/svg" xmlns:xlink="http://www.w3.org/1999/xlink" viewBox="0 0 100 100" preserveAspectRatio="xMidYMid"><!--?xml version="1.0" encoding="utf-8"?--><!--Generator: Adobe Illustrator 21.0.0, SVG Export Plug-In . SVG Version: 6.00 Build 0)--><svg version="1.1" id="圖層_1" xmlns="http://www.w3.org/2000/svg" xmlns:xlink="http://www.w3.org/1999/xlink" x="0px" y="0px" viewBox="0 0 100 100" style="transform-origin: 50px 50px 0px;" xml:space="preserve"><g style="transform-origin: 50px 50px 0px;"><g style="transform-origin: 50px 50px 0px; transform: scale(0.6);"><g style="transform-origin: 50px 50px 0px;"><g><style type="text/css" class="ld ld-heartbeat" style="transform-origin: 50px 50px 0px; animation-duration: 1s; animation-delay: -1s; animation-direction: normal;">.st0{fill:#333}.st1,.st2{stroke:#333}.st1{stroke-width:3.5;stroke-linecap:round;stroke-linejoin:round;stroke-miterlimit:10;fill:#e0e0e0}.st2{fill:#f5e6c8}.st2,.st3,.st4{stroke-width:3.5;stroke-miterlimit:10}.st3{fill:#e15b64;stroke:#333}.st4{opacity:.1;stroke:#000}.st5{fill:#fff}.st6{fill:#e0e0e0}.st7{fill:#e15b64}.st8{opacity:.1}.st10,.st9{stroke:#333;stroke-miterlimit:10}.st9{stroke-linecap:round;stroke-linejoin:round;fill:none;stroke-width:4.3153}.st10{fill:#e0e0e0;stroke-width:3.5}.st11{fill:#f5e169;stroke:#333;stroke-linecap:round}.st11,.st12,.st13{stroke-width:3.5;stroke-linejoin:round;stroke-miterlimit:10}.st12{stroke-linecap:round;fill:#f5e6c8;stroke:#333}.st13{fill:none;stroke:#fff}.st13,.st14,.st15{stroke-linecap:round}.st14{opacity:.1;stroke-width:3.5;stroke-linejoin:round;stroke-miterlimit:10;stroke:#000}.st15{fill:none;stroke:#fff}.st15,.st16,.st17{stroke-width:3.5;stroke-miterlimit:10}.st16{fill:none;stroke:#333}.st17{opacity:.2;stroke:#000;stroke-linecap:round;stroke-linejoin:round}.st18,.st19,.st20,.st21{stroke:#333;stroke-miterlimit:10}.st18{stroke-linecap:round;fill:#66503a;stroke-width:3.5}.st19,.st20,.st21{fill:#4a3827;stroke-width:3.56}.st20,.st21{fill:#66503a;stroke-width:3.5}.st21{fill:none;stroke-linecap:round}.st22{fill:#66503a}.st23{fill:#a0c8d7;stroke:#333;stroke-width:3.5;stroke-miterlimit:10}.st24,.st25{fill:none;stroke:#333;stroke-linecap:round}.st24{stroke-miterlimit:10;stroke-dasharray:9.0554,9.0554;stroke-width:3.5}.st25{stroke-width:7;stroke-linejoin:round}.st25,.st26{stroke-miterlimit:10}.st26,.st27,.st28{fill:none;stroke:#333;stroke-width:3.5;stroke-linecap:round;stroke-linejoin:round}.st28{stroke-dasharray:3.1078,6.2156}.st29{fill:none;stroke-miterlimit:10;stroke-dasharray:6,4}.st29,.st30,.st31{stroke:#333;stroke-width:3.5}.st30{stroke-miterlimit:10;fill:#fff}.st31{fill:#f8b26a}.st31,.st32,.st33{stroke-miterlimit:10}.st32{fill:#e15b64;stroke:#333;stroke-width:3.0483}.st33{stroke-width:3.048}.st33,.st34,.st35{opacity:.1;stroke:#000}.st34{stroke-miterlimit:10;stroke-width:2.983}.st35{stroke-width:2.602}.st35,.st36,.st37,.st38,.st39,.st40,.st41,.st42,.st43{stroke-linecap:round;stroke-linejoin:round;stroke-miterlimit:10}.st36{opacity:.2;stroke:#000;stroke-width:2.602}.st37,.st38,.st39,.st40,.st41,.st42,.st43{fill:#e15b64;stroke:#333;stroke-width:3.5}.st38,.st39,.st40,.st41,.st42,.st43{fill:#fff}.st39,.st40,.st41,.st42,.st43{fill:#f8b26a}.st40,.st41,.st42,.st43{fill:#f47e60}.st41,.st42,.st43{fill:#333;stroke:#fff}.st42,.st43{fill:#666;stroke:#333}.st43{fill:#a0c8d7}.st44{fill:#666}.st45,.st46{stroke:#000;stroke-width:3.5;stroke-linecap:round;stroke-linejoin:round;stroke-miterlimit:10}.st46{fill:#666;stroke:#fff}.st47{fill:#e15b64;stroke:#333;stroke-width:2}.st47,.st48,.st49,.st50{stroke-miterlimit:10}.st48{opacity:.1;stroke-linejoin:bevel;stroke:#000;stroke-width:3.5}.st49,.st50{fill:none;stroke:#fff;stroke-width:2;stroke-linecap:round}.st50{fill:#c33737;stroke:#333;stroke-width:3.5;stroke-linejoin:round}.st51{fill:#abbd81}.st52,.st53,.st54{fill:url(#SVGID_1_);stroke:#333;stroke-width:3.5;stroke-linecap:round;stroke-linejoin:round;stroke-miterlimit:10}.st53,.st54{fill:url(#SVGID_2_)}.st54{fill:url(#SVGID_3_)}</style><g class="ld ld-heartbeat" style="transform-origin: 50px 50px 0px; animation-duration: 1s; animation-delay: -0.954545s; animation-direction: normal;"><path class="st37" d="M56.172,82.307c-4.115-1.131-8.23-1.131-12.345,0c-2.888,0.794-5.99,0.724-8.669-0.615 c-6.565-3.283-9.41-11.579-4.715-18.064l8.561-11.824c5.35-7.39,16.343-7.438,21.759-0.097l8.727,11.832 c4.78,6.479,1.958,14.836-4.629,18.144C62.179,83.03,59.068,83.103,56.172,82.307z" fill="rgb(225, 91, 100)" stroke="rgb(51, 51, 51)" style="fill: rgb(225, 91, 100); stroke: rgb(51, 51, 51);"></path></g><g class="ld ld-heartbeat" style="transform-origin: 50px 50px 0px; animation-duration: 1s; animation-delay: -0.909091s; animation-direction: normal;"><path class="st13" d="M39.785,61.46l4.469-6.173c0.358-0.494,0.741-0.956,1.146-1.385" stroke="rgb(255, 255, 255)" style="stroke: rgb(255, 255, 255);"></path></g><g class="ld ld-heartbeat" style="transform-origin: 50px 50px 0px; animation-duration: 1s; animation-delay: -0.863636s; animation-direction: normal;"><path class="st13" d="M36.157,66.394c0.302-0.453,0.572-0.854,0.659-0.974" stroke="rgb(255, 255, 255)" style="stroke: rgb(255, 255, 255);"></path></g><g class="ld ld-heartbeat" style="transform-origin: 50px 50px 0px; animation-duration: 1s; animation-delay: -0.818182s; animation-direction: normal;"><path class="st37" d="M46.696,28.451c0.892,7.819-2.119,12.705-8.015,13.378s-9.931-3.409-10.823-11.228 c-0.892-7.819,3.614-12.876,8.015-13.378S45.803,20.632,46.696,28.451z" fill="rgb(225, 91, 100)" stroke="rgb(51, 51, 51)" style="fill: rgb(225, 91, 100); stroke: rgb(51, 51, 51);"></path></g><g class="ld ld-heartbeat" style="transform-origin: 50px 50px 0px; animation-duration: 1s; animation-delay: -0.772727s; animation-direction: normal;"><path class="st37" d="M26.288,44.147c4.044,5.721,3.785,10.824-0.529,13.874c-4.314,3.049-9.211,1.591-13.255-4.13 s-2.692-11.597,0.529-13.874S22.244,38.426,26.288,44.147z" fill="rgb(225, 91, 100)" stroke="rgb(51, 51, 51)" style="fill: rgb(225, 91, 100); stroke: rgb(51, 51, 51);"></path></g><g class="ld ld-heartbeat" style="transform-origin: 50px 50px 0px; animation-duration: 1s; animation-delay: -0.727273s; animation-direction: normal;"><path class="st37" d="M73.712,44.147c-4.044,5.721-3.785,10.824,0.529,13.874c4.314,3.049,9.211,1.591,13.255-4.13 s2.692-11.597-0.529-13.874S77.756,38.426,73.712,44.147z" fill="rgb(225, 91, 100)" stroke="rgb(51, 51, 51)" style="fill: rgb(225, 91, 100); stroke: rgb(51, 51, 51);"></path></g><g class="ld ld-heartbeat" style="transform-origin: 50px 50px 0px; animation-duration: 1s; animation-delay: -0.681818s; animation-direction: normal;"><path class="st37" d="M53.304,28.451c-0.892,7.819,2.119,12.705,8.015,13.378s9.931-3.409,10.823-11.228s-3.614-12.876-8.015-13.378 C59.726,16.721,54.197,20.632,53.304,28.451z" fill="rgb(225, 91, 100)" stroke="rgb(51, 51, 51)" style="fill: rgb(225, 91, 100); stroke: rgb(51, 51, 51);"></path></g><g class="ld ld-heartbeat" style="transform-origin: 50px 50px 0px; animation-duration: 1s; animation-delay: -0.636364s; animation-direction: normal;"><path class="st14" d="M69.491,63.538l-1.532-2.078c2.224,5.864-0.636,12.342-6.246,15.16c-2.683,1.348-5.794,1.421-8.69,0.625 c-4.115-1.131-8.23-1.131-12.345,0c-2.888,0.794-5.99,0.724-8.668-0.615c-1.234-0.617-2.335-1.411-3.281-2.336 c1.022,3.112,3.294,5.83,6.431,7.398c2.678,1.34,5.781,1.409,8.668,0.615c4.115-1.131,8.23-1.131,12.345,0 c2.896,0.796,6.006,0.723,8.69-0.625C71.448,78.374,74.271,70.017,69.491,63.538z" fill="rgb(134, 114, 167)" stroke="#000000" style="fill: rgb(134, 114, 167); stroke: rgb(0, 0, 0);"></path></g><g class="ld ld-heartbeat" style="transform-origin: 50px 50px 0px; animation-duration: 1s; animation-delay: -0.590909s; animation-direction: normal;"><path class="st14" d="M46.696,28.451c-0.435-3.814-1.977-6.691-3.95-8.586c0.371,1.071,0.653,2.24,0.8,3.525 c0.892,7.819-2.119,12.705-8.015,13.378c-2.685,0.307-4.979-0.384-6.771-1.954c1.677,5.037,5.199,7.554,9.921,7.016 C44.576,41.157,47.588,36.271,46.696,28.451z" fill="rgb(134, 114, 167)" stroke="#000000" style="fill: rgb(134, 114, 167); stroke: rgb(0, 0, 0);"></path></g><g class="ld ld-heartbeat" style="transform-origin: 50px 50px 0px; animation-duration: 1s; animation-delay: -0.545455s; animation-direction: normal;"><path class="st14" d="M26.288,44.147c-0.354-0.501-0.727-0.949-1.107-1.374c1.676,4.188,0.789,7.811-2.571,10.186 c-3.832,2.709-8.122,1.852-11.868-2.381c0.404,1.092,0.98,2.205,1.763,3.312c4.044,5.721,8.941,7.18,13.255,4.13 C30.074,54.972,30.333,49.869,26.288,44.147z" fill="rgb(134, 114, 167)" stroke="#000000" style="fill: rgb(134, 114, 167); stroke: rgb(0, 0, 0);"></path></g><g class="ld ld-heartbeat" style="transform-origin: 50px 50px 0px; animation-duration: 1s; animation-delay: -0.5s; animation-direction: normal;"><path class="st14" d="M86.967,40.017c-0.085-0.06-0.18-0.11-0.269-0.166c0.462,2.62-0.121,5.821-2.352,8.978 c-4.044,5.721-8.941,7.18-13.255,4.13c-0.063-0.044-0.116-0.093-0.177-0.138c0.284,2.058,1.396,3.835,3.326,5.2 c4.314,3.049,9.211,1.591,13.255-4.13C91.54,48.169,90.187,42.293,86.967,40.017z" fill="rgb(134, 114, 167)" stroke="#000000" style="fill: rgb(134, 114, 167); stroke: rgb(0, 0, 0);"></path></g><g class="ld ld-heartbeat" style="transform-origin: 50px 50px 0px; animation-duration: 1s; animation-delay: -0.454545s; animation-direction: normal;"><path class="st14" d="M68.479,19.297c0.557,1.801,0.782,3.894,0.515,6.242c-0.892,7.819-4.927,11.901-10.823,11.228 c-1.796-0.205-3.32-0.806-4.552-1.756c1.021,3.951,3.692,6.36,7.701,6.818c5.896,0.673,9.931-3.409,10.823-11.228 C72.728,25.472,70.986,21.543,68.479,19.297z" fill="rgb(134, 114, 167)" stroke="#000000" style="fill: rgb(134, 114, 167); stroke: rgb(0, 0, 0);"></path></g><metadata xmlns:d="https://loading.io/stock/" class="ld ld-heartbeat" style="transform-origin: 50px 50px 0px; animation-duration: 1s; animation-delay: -0.409091s; animation-direction: normal;">
<d:name class="ld ld-heartbeat" style="transform-origin: 50px 50px 0px; animation-duration: 1s; animation-delay: -0.363636s; animation-direction: normal;">paw</d:name>
<d:tags class="ld ld-heartbeat" style="transform-origin: 50px 50px 0px; animation-duration: 1s; animation-delay: -0.318182s; animation-direction: normal;">paw,cat,claw,nail,meow,trace,trail,footprint,animal</d:tags>
<d:license class="ld ld-heartbeat" style="transform-origin: 50px 50px 0px; animation-duration: 1s; animation-delay: -0.272727s; animation-direction: normal;">cc-by</d:license>
<d:slug class="ld ld-heartbeat" style="transform-origin: 50px 50px 0px; animation-duration: 1s; animation-delay: -0.227273s; animation-direction: normal;">lfucx4</d:slug>
</metadata></g></g></g></g><style type="text/css" class="ld ld-heartbeat" style="transform-origin: 50px 50px 0px; animation-duration: 1s; animation-delay: -0.181818s; animation-direction: normal;">path,ellipse,circle,rect,polygon,polyline,line { stroke-width: 0; }@keyframes ld-heartbeat {
  0% {
    -webkit-transform: scale(1.05);
    transform: scale(1.05);
  }
  5% {
    -webkit-transform: scale(1.25);
    transform: scale(1.25);
  }
  39% {
    -webkit-transform: scale(0.9);
    transform: scale(0.9);
  }
  45% {
    -webkit-transform: scale(1.15);
    transform: scale(1.15);
  }
  60% {
    -webkit-transform: scale(1.05);
    transform: scale(1.05);
  }
  100% {
    -webkit-transform: scale(1);
    transform: scale(1);
  }
}
@-webkit-keyframes ld-heartbeat {
  0% {
    -webkit-transform: scale(1.05);
    transform: scale(1.05);
  }
  5% {
    -webkit-transform: scale(1.25);
    transform: scale(1.25);
  }
  39% {
    -webkit-transform: scale(0.9);
    transform: scale(0.9);
  }
  45% {
    -webkit-transform: scale(1.15);
    transform: scale(1.15);
  }
  60% {
    -webkit-transform: scale(1.05);
    transform: scale(1.05);
  }
  100% {
    -webkit-transform: scale(1);
    transform: scale(1);
  }
}
.ld.ld-heartbeat {
  -webkit-animation: ld-heartbeat 0.8s infinite cubic-bezier(0.215, 0.61, 0.355, 1);
  animation: ld-heartbeat 0.8s infinite cubic-bezier(0.215, 0.61, 0.355, 1);
}
</style></svg></svg>